<?xml version="1.0" encoding="UTF-8"?>
<!DOCTYPE svg PUBLIC "-//W3C//DTD SVG 1.1//EN" "http://www.w3.org/Graphics/SVG/1.1/DTD/svg11.dtd">
<!-- Creator: CorelDRAW X7 -->
<svg xmlns="http://www.w3.org/2000/svg" xml:space="preserve" width="11.9291in" height="8.50394in" version="1.1" style="shape-rendering:geometricPrecision; text-rendering:geometricPrecision; image-rendering:optimizeQuality; fill-rule:evenodd; clip-rule:evenodd"
viewBox="0 0 11929 8504"
 xmlns:xlink="http://www.w3.org/1999/xlink">
 <defs>
  <style type="text/css">
   <![CDATA[
    .fil0 {fill:#F58634}
    .fil1 {fill:#00A859}
   ]]>
  </style>
 </defs>
 <g id="Layer_x0020_1">
  <metadata id="CorelCorpID_0Corel-Layer"/>
  <g id="_632446736">
   <path class="fil0" d="M4966 3922c246,-397 375,-654 647,-1033l554 16 409 -633 -592 0c98,-139 113,-175 178,-276 55,-86 116,-142 109,-249 -15,-229 -427,-283 -550,-104 -32,35 -79,108 -137,202 -93,150 -141,246 -272,427l-461 0 -416 633 498 -7 -625 1024c-404,747 -1335,951 -796,0 134,-238 320,-533 402,-699l-610 -8c-273,451 -662,1384 -1215,1345 -271,-20 -237,-274 -183,-427 159,-516 1108,-1654 1663,-1913 206,-101 259,99 137,400 -133,326 -184,431 -131,467 113,77 890,-896 700,-1414 -176,-576 -1666,388 -2507,1581 -239,340 -388,662 -481,1032 -210,843 523,1077 1436,272 -126,783 829,542 1438,0 59,792 1070,523 1497,0 83,751 1160,541 1564,0 -5,422 202,511 475,497 31,-1 71,-5 100,-9 312,-37 610,-237 844,-486 21,219 117,463 367,494 324,40 550,-284 705,-531 69,-111 118,-218 -90,-75 -133,91 -350,203 -488,134 -121,-61 -142,-197 -136,-239 446,-352 625,-491 1098,-1010 392,-431 581,-963 581,-1392 0,-334 -147,-424 -334,-398 -595,86 -1134,857 -1429,1424 -173,334 -309,819 -303,1216l-145 106c-238,171 -472,301 -622,294 -504,-23 222,-1180 323,-1362l-555 0c-301,529 -534,1464 -1213,1327 -241,-81 -124,-413 39,-732l390 -595 -613 0c-123,204 -397,651 -526,847 -474,727 -1185,600 -724,-146zm4070 -98c55,-186 117,-351 154,-436 80,-180 178,-363 295,-542 103,-158 253,-363 430,-540 132,-131 263,-221 316,-193 84,45 -111,364 -166,456 -259,431 -551,791 -771,1012 -45,45 -114,111 -198,189l-58 52 -2 2z"/>
   <path class="fil1" d="M2147 6913c93,61 159,91 225,89 81,-1 163,-46 314,-106 2116,-846 4593,-1015 6838,-587 338,64 610,173 641,85 20,-55 -92,-116 -549,-325 -1517,-695 -4649,-556 -6741,-186 -440,78 -909,176 -1337,310 -178,56 -257,112 -62,247 172,119 361,263 543,388 43,30 86,58 128,85z"/>
  </g>
 </g>
</svg>
