<?xml version="1.0" encoding="utf-8"?>
<!-- Generator: Adobe Illustrator 24.2.1, SVG Export Plug-In . SVG Version: 6.00 Build 0)  -->
<svg version="1.1" id="Layer_1" xmlns="http://www.w3.org/2000/svg" xmlns:xlink="http://www.w3.org/1999/xlink" x="0px" y="0px"
	 viewBox="0 0 331 208" style="enable-background:new 0 0 331 208;" xml:space="preserve">
<style type="text/css">
	.st0{fill-rule:evenodd;clip-rule:evenodd;fill:#026A3A;}
	.st1{fill-rule:evenodd;clip-rule:evenodd;fill:#20285A;}
	.st2{fill:#026A3A;}
	.st3{fill:#20285A;}
</style>
<g>
	<path class="st0" d="M112.9,191.8C-56.2,122,81.2-4.1,257.4,27.4C99.7-16.4-86.2,112.2,112.9,191.8L112.9,191.8z"/>
	<path class="st1" d="M326.6,44.2C261.7,6.2,163.2,1.7,93,30C-28.9,79.6,5.4,176.2,148.2,204C31.1,186.5-36.6,115,28.1,55
		C97-10.4,255-9.1,326.6,44.2L326.6,44.2z"/>
	<g>
		<path class="st2" d="M275.7,58.8v21.8c1.7-1.7,3.5-3.7,5.4-4.6c1.9-0.9,4-1.3,6.3-1.3c8.8,0,12.6,5.5,12.7,10.7l-0.4,62.2h-17.9
			l-0.6-56.7c-0.2-3.3-4.9-3.1-4.9-0.1l-0.6,56.8h-19.6l-0.1-88.7H275.7L275.7,58.8z"/>
		<path class="st2" d="M202.8,112.8h-25.3v15.1c0,11.6,6.6,8.4,6.6-1.4v-8.1h18.7v13.9c0,6.6-3.1,11.1-11.2,14.1
			c-6.9,1.6-13.8,1.5-20.8,0.3c-7.4-1.3-12.1-8.7-12.1-18.7v-9.1V90.4c0-24.6,43.3-21.7,43.6-3L202.8,112.8L202.8,112.8z
			 M183.2,101.8V94c0-3.7-0.2-6.1-0.5-7.2c-0.4-1.1-1.1-1.6-2.2-1.6c-1.4,0-2.2,0.5-2.5,1.4c-0.3,0.9-0.5,3.4-0.5,7.4v7.7H183.2
			L183.2,101.8z"/>
		<path class="st2" d="M150.5,63.6v13.1h5.6v11.4h-5.6v38.4c0,4.7,0.2,7.4,0.7,7.9c0.4,0.5,1.7,1.5,4.9,1.5v11.6h-6.9
			c-18.5,0-16.8-5.3-17-12.9c-0.1-2,0-2.8,0-10V88.1h-4.7V76.7h4.8V63.6H150.5L150.5,63.6z"/>
		<polygon class="st2" points="86.2,58.9 125.4,58.9 125.4,70.8 106.7,70.8 106.7,91.5 125,91.5 125,104.4 106.7,104.4 106.7,133.9 
			125,133.9 125,147.5 86,147.5 86.2,58.9 		"/>
		<path class="st2" d="M251.2,99.5h-18.5v-6.8c0-3.6-0.2-5.9-0.6-6.8c-0.4-0.9-1.3-1.4-2.6-1.4c-1.5,0-2.5,0.5-2.9,1.6
			c-0.4,1.1-0.6,3.5-0.6,7.1v33.5c0,3.5,0.2,5.8,0.6,6.9c0.4,1.1,1.3,1.6,2.8,1.6c1.4,0,2.3-0.5,2.7-1.6c0.4-1.1,0.8-3.6,0.6-7.5
			l-0.2-8.3h18.3c0,13.7,4.9,28.7-21.2,29.6c-5.4,0.2-10.1-1-13.7-2.8c-7-3.7-7.8-8.5-8-16.8V88.5c0-5.6,2.5-15.5,18.2-15.5h5.8
			c12.1,0,19,5.8,19.2,13.6V99.5L251.2,99.5z"/>
	</g>
	<g>
		<path class="st3" d="M86,173v-12.9h1.5v1.2c0.3-0.5,0.7-0.8,1.2-1.1c0.4-0.2,1-0.4,1.6-0.4c0.8,0,1.5,0.2,2.2,0.6
			c0.6,0.4,1.1,1,1.4,1.7c0.3,0.7,0.5,1.6,0.5,2.5c0,1-0.2,1.8-0.5,2.6c-0.4,0.8-0.9,1.4-1.5,1.8c-0.7,0.4-1.4,0.6-2.1,0.6
			c-0.5,0-1-0.1-1.5-0.3c-0.4-0.2-0.8-0.5-1.1-0.8v4.5H86L86,173z M87.4,164.8c0,1.2,0.3,2.1,0.8,2.7c0.5,0.6,1.1,0.9,1.8,0.9
			c0.7,0,1.3-0.3,1.9-0.9c0.5-0.6,0.8-1.5,0.8-2.8c0-1.2-0.3-2.1-0.8-2.7c-0.5-0.6-1.1-0.9-1.8-0.9c-0.7,0-1.3,0.3-1.8,0.9
			C87.7,162.7,87.4,163.6,87.4,164.8L87.4,164.8z M97.1,169.5v-12.9h1.6v12.9H97.1L97.1,169.5z M108.5,168.3
			c-0.6,0.5-1.2,0.8-1.7,1.1c-0.6,0.2-1.2,0.3-1.8,0.3c-1.1,0-1.9-0.2-2.4-0.8c-0.6-0.5-0.8-1.1-0.8-1.9c0-0.5,0.1-0.9,0.3-1.3
			c0.2-0.4,0.5-0.7,0.8-0.9c0.3-0.2,0.7-0.4,1.2-0.5c0.3-0.1,0.8-0.2,1.4-0.2c1.3-0.2,2.3-0.3,2.9-0.5c0-0.2,0-0.4,0-0.4
			c0-0.6-0.2-1.1-0.5-1.4c-0.4-0.4-1-0.5-1.9-0.5c-0.8,0-1.3,0.1-1.7,0.4c-0.4,0.3-0.6,0.7-0.8,1.4l-1.6-0.2
			c0.1-0.7,0.4-1.2,0.7-1.6c0.3-0.4,0.8-0.7,1.4-0.9c0.6-0.2,1.4-0.3,2.2-0.3c0.8,0,1.5,0.1,2,0.3c0.5,0.2,0.9,0.4,1.1,0.7
			c0.2,0.3,0.4,0.6,0.5,1.1c0.1,0.3,0.1,0.8,0.1,1.5v2.1c0,1.5,0,2.4,0.1,2.8c0.1,0.4,0.2,0.8,0.4,1.1h-1.7
			C108.6,169.1,108.5,168.7,108.5,168.3L108.5,168.3z M108.3,164.8c-0.6,0.2-1.5,0.4-2.7,0.6c-0.7,0.1-1.1,0.2-1.4,0.3
			c-0.3,0.1-0.5,0.3-0.6,0.5c-0.2,0.2-0.2,0.5-0.2,0.8c0,0.4,0.2,0.8,0.5,1.1c0.3,0.3,0.8,0.4,1.4,0.4c0.6,0,1.2-0.1,1.7-0.4
			c0.5-0.3,0.8-0.6,1.1-1.1c0.2-0.4,0.3-0.9,0.3-1.6V164.8L108.3,164.8z M113.3,173l-0.2-1.5c0.4,0.1,0.7,0.1,0.9,0.1
			c0.4,0,0.7-0.1,0.9-0.2c0.2-0.1,0.4-0.3,0.5-0.5c0.1-0.2,0.3-0.5,0.5-1.2c0-0.1,0.1-0.2,0.1-0.4l-3.6-9.4h1.8l2,5.4
			c0.3,0.7,0.5,1.4,0.7,2.2c0.2-0.7,0.4-1.4,0.7-2.1l2.1-5.4h1.6l-3.7,9.5c-0.4,1-0.7,1.7-0.9,2.1c-0.3,0.5-0.6,0.9-1,1.1
			c-0.4,0.2-0.8,0.4-1.3,0.4C114,173.2,113.7,173.2,113.3,173L113.3,173z M123.6,158.4v-1.8h1.6v1.8H123.6L123.6,158.4z
			 M123.6,169.5v-9.3h1.6v9.3H123.6L123.6,169.5z M128.6,169.5v-9.3h1.5v1.3c0.7-1,1.7-1.5,3.1-1.5c0.6,0,1.1,0.1,1.6,0.3
			c0.5,0.2,0.8,0.5,1.1,0.8c0.2,0.3,0.4,0.7,0.5,1.2c0.1,0.3,0.1,0.8,0.1,1.5v5.7h-1.6v-5.7c0-0.6-0.1-1.1-0.2-1.4
			c-0.1-0.3-0.4-0.6-0.7-0.8c-0.3-0.2-0.7-0.3-1.1-0.3c-0.7,0-1.3,0.2-1.8,0.6c-0.5,0.4-0.8,1.2-0.8,2.4v5.1H128.6L128.6,169.5z
			 M139.5,170.2l1.6,0.2c0.1,0.5,0.3,0.8,0.5,1c0.4,0.3,1,0.4,1.7,0.4c0.8,0,1.3-0.1,1.7-0.4c0.4-0.3,0.7-0.7,0.8-1.2
			c0.1-0.3,0.1-1,0.1-2c-0.7,0.8-1.6,1.2-2.7,1.2c-1.3,0-2.3-0.5-3.1-1.4c-0.7-0.9-1.1-2-1.1-3.3c0-0.9,0.2-1.7,0.5-2.5
			c0.3-0.8,0.8-1.3,1.4-1.7c0.6-0.4,1.4-0.6,2.2-0.6c1.1,0,2.1,0.4,2.8,1.3v-1.1h1.5v8.1c0,1.5-0.2,2.5-0.5,3.1
			c-0.3,0.6-0.8,1.1-1.4,1.4c-0.7,0.4-1.5,0.5-2.4,0.5c-1.1,0-2.1-0.3-2.8-0.8C139.8,172,139.4,171.2,139.5,170.2L139.5,170.2z
			 M140.8,164.6c0,1.2,0.3,2.1,0.8,2.7c0.5,0.6,1.1,0.8,1.9,0.8c0.7,0,1.4-0.3,1.9-0.8c0.5-0.6,0.8-1.4,0.8-2.6c0-1.1-0.3-2-0.8-2.6
			c-0.5-0.6-1.2-0.9-1.9-0.9c-0.7,0-1.3,0.3-1.8,0.9C141.1,162.6,140.8,163.5,140.8,164.6L140.8,164.6z M157.6,169.5h-1.5v-12.9h1.6
			v4.6c0.7-0.8,1.6-1.3,2.6-1.3c0.6,0,1.2,0.1,1.7,0.3c0.5,0.2,1,0.6,1.3,1c0.3,0.4,0.6,0.9,0.8,1.5c0.2,0.6,0.3,1.2,0.3,1.9
			c0,1.6-0.4,2.8-1.2,3.7c-0.8,0.9-1.8,1.3-2.9,1.3c-1.1,0-2-0.5-2.7-1.4V169.5L157.6,169.5z M157.6,164.7c0,1.1,0.2,1.9,0.5,2.4
			c0.5,0.8,1.2,1.2,2.1,1.2c0.7,0,1.3-0.3,1.8-0.9c0.5-0.6,0.8-1.5,0.8-2.7c0-1.2-0.3-2.1-0.7-2.7c-0.5-0.6-1.1-0.9-1.8-0.9
			c-0.7,0-1.3,0.3-1.8,0.9C157.9,162.7,157.6,163.6,157.6,164.7L157.6,164.7z M167.3,173l-0.2-1.5c0.4,0.1,0.7,0.1,0.9,0.1
			c0.4,0,0.7-0.1,0.9-0.2c0.2-0.1,0.4-0.3,0.5-0.5c0.1-0.2,0.3-0.5,0.5-1.2c0-0.1,0.1-0.2,0.1-0.4l-3.6-9.4h1.8l2,5.4
			c0.3,0.7,0.5,1.4,0.7,2.2c0.2-0.7,0.4-1.4,0.7-2.1l2.1-5.4h1.6l-3.7,9.5c-0.4,1-0.7,1.7-0.9,2.1c-0.3,0.5-0.6,0.9-1,1.1
			c-0.4,0.2-0.8,0.4-1.3,0.4C168,173.2,167.6,173.2,167.3,173L167.3,173z M186.2,168l0.2,1.4c-0.5,0.1-0.9,0.1-1.2,0.1
			c-0.6,0-1.1-0.1-1.4-0.3c-0.3-0.2-0.6-0.4-0.7-0.7c-0.1-0.3-0.2-0.9-0.2-1.9v-5.4h-1.2v-1.2h1.2v-2.3l1.6-0.9v3.3h1.6v1.2h-1.6
			v5.5c0,0.5,0,0.7,0.1,0.9c0.1,0.1,0.2,0.2,0.3,0.3c0.1,0.1,0.3,0.1,0.6,0.1C185.7,168.1,185.9,168.1,186.2,168L186.2,168z
			 M188.7,169.5v-12.9h1.6v4.6c0.8-0.9,1.7-1.3,2.9-1.3c0.7,0,1.3,0.1,1.9,0.4c0.5,0.3,0.9,0.6,1.1,1.1c0.2,0.5,0.3,1.2,0.3,2.1v5.9
			h-1.6v-5.9c0-0.8-0.2-1.4-0.5-1.7c-0.4-0.4-0.9-0.5-1.5-0.5c-0.5,0-0.9,0.1-1.4,0.4c-0.4,0.2-0.7,0.6-0.9,1
			c-0.2,0.4-0.3,1-0.3,1.7v5.1H188.7L188.7,169.5z M206.5,166.4l1.7,0.2c-0.3,1-0.8,1.7-1.5,2.2c-0.7,0.5-1.6,0.8-2.8,0.8
			c-1.4,0-2.5-0.4-3.3-1.3c-0.8-0.8-1.2-2-1.2-3.5c0-1.6,0.4-2.8,1.2-3.7c0.8-0.9,1.9-1.3,3.2-1.3c1.3,0,2.3,0.4,3.1,1.3
			c0.8,0.8,1.2,2,1.2,3.6c0,0.1,0,0.2,0,0.4H201c0.1,1,0.4,1.8,0.9,2.4c0.5,0.5,1.2,0.8,2,0.8c0.6,0,1.1-0.2,1.5-0.5
			C205.9,167.6,206.2,167.1,206.5,166.4L206.5,166.4z M201.1,163.9h5.4c-0.1-0.8-0.3-1.4-0.6-1.8c-0.5-0.6-1.2-0.9-2-0.9
			c-0.7,0-1.4,0.2-1.9,0.7C201.5,162.4,201.2,163.1,201.1,163.9L201.1,163.9z M216.2,169.5v-9.3h1.5v1.4c0.4-0.7,0.7-1.1,1-1.3
			c0.3-0.2,0.7-0.3,1-0.3c0.5,0,1.1,0.2,1.7,0.5l-0.6,1.5c-0.4-0.2-0.8-0.3-1.2-0.3c-0.4,0-0.7,0.1-1,0.3c-0.3,0.2-0.5,0.5-0.6,0.9
			c-0.2,0.6-0.3,1.2-0.3,1.8v4.9H216.2L216.2,169.5z M229.6,169.5v-1.4c-0.8,1.1-1.8,1.6-3.1,1.6c-0.6,0-1.1-0.1-1.6-0.3
			c-0.5-0.2-0.9-0.5-1.1-0.8c-0.2-0.3-0.4-0.7-0.5-1.2c-0.1-0.3-0.1-0.8-0.1-1.5v-5.8h1.6v5.2c0,0.8,0,1.4,0.1,1.7
			c0.1,0.4,0.3,0.7,0.7,1c0.3,0.2,0.7,0.4,1.2,0.4c0.5,0,0.9-0.1,1.4-0.4c0.4-0.2,0.7-0.6,0.9-1c0.2-0.4,0.3-1,0.3-1.8v-5h1.6v9.3
			H229.6L229.6,169.5z M234.5,169.5v-12.9h1.6v12.9H234.5L234.5,169.5z M246.1,166.4l1.7,0.2c-0.3,1-0.8,1.7-1.5,2.2
			c-0.7,0.5-1.6,0.8-2.8,0.8c-1.4,0-2.5-0.4-3.3-1.3c-0.8-0.8-1.2-2-1.2-3.5c0-1.6,0.4-2.8,1.2-3.7c0.8-0.9,1.9-1.3,3.2-1.3
			c1.3,0,2.3,0.4,3.1,1.3c0.8,0.8,1.2,2,1.2,3.6c0,0.1,0,0.2,0,0.4h-7.2c0.1,1,0.4,1.8,0.9,2.4c0.5,0.5,1.2,0.8,2,0.8
			c0.6,0,1.1-0.2,1.5-0.5C245.5,167.6,245.9,167.1,246.1,166.4L246.1,166.4z M240.8,163.9h5.4c-0.1-0.8-0.3-1.4-0.6-1.8
			c-0.5-0.6-1.2-0.9-2-0.9c-0.7,0-1.4,0.2-1.9,0.7C241.1,162.4,240.8,163.1,240.8,163.9L240.8,163.9z M250.1,166.7l1.6-0.2
			c0.1,0.6,0.3,1.1,0.8,1.4c0.4,0.3,1,0.5,1.7,0.5c0.7,0,1.3-0.2,1.7-0.4c0.4-0.3,0.5-0.6,0.5-1c0-0.4-0.2-0.6-0.5-0.8
			c-0.2-0.1-0.8-0.3-1.7-0.5c-1.2-0.3-2-0.5-2.5-0.8c-0.5-0.2-0.8-0.5-1.1-0.9c-0.2-0.4-0.4-0.8-0.4-1.3c0-0.4,0.1-0.8,0.3-1.2
			c0.2-0.4,0.5-0.7,0.8-0.9c0.3-0.2,0.6-0.3,1-0.5c0.4-0.1,0.9-0.2,1.4-0.2c0.8,0,1.4,0.1,2,0.3c0.6,0.2,1,0.5,1.3,0.9
			c0.3,0.4,0.5,0.8,0.6,1.4l-1.6,0.2c-0.1-0.5-0.3-0.9-0.6-1.1c-0.3-0.3-0.8-0.4-1.5-0.4c-0.7,0-1.3,0.1-1.6,0.4
			c-0.3,0.2-0.5,0.5-0.5,0.8c0,0.2,0.1,0.4,0.2,0.6c0.1,0.2,0.3,0.3,0.6,0.4c0.2,0.1,0.6,0.2,1.4,0.4c1.2,0.3,2,0.5,2.4,0.7
			c0.5,0.2,0.8,0.5,1.1,0.8c0.3,0.4,0.4,0.8,0.4,1.4c0,0.5-0.2,1-0.5,1.5c-0.3,0.5-0.8,0.8-1.4,1.1c-0.6,0.3-1.3,0.4-2,0.4
			c-1.3,0-2.2-0.3-2.9-0.8C250.7,168.4,250.3,167.7,250.1,166.7L250.1,166.7z"/>
		<path class="st1" d="M258.3,157.6v-3.4h-1.1v-0.6h2.8v0.6h-1.1v3.4H258.3L258.3,157.6z M260.4,157.6v-4h0.8l0.9,3.2l0.8-3.2h0.8v4
			h-0.5v-3.4l-0.9,3.4h-0.5l-0.9-3.4v3.4H260.4L260.4,157.6z"/>
	</g>
	<g>
		<path class="st1" d="M307.4,136.3c0.9,0,1.8,0.2,2.7,0.7c0.9,0.5,1.6,1.2,2.1,2s0.8,1.8,0.8,2.8c0,1-0.3,1.9-0.8,2.8
			c-0.5,0.9-1.2,1.6-2,2.1c-0.9,0.5-1.8,0.7-2.8,0.7l0,0v-0.9l0,0c0.8,0,1.5-0.2,2.3-0.6c0.8-0.4,1.3-1,1.7-1.7
			c0.4-0.7,0.6-1.5,0.6-2.3c0-0.8-0.2-1.5-0.6-2.3s-1-1.3-1.8-1.7c-0.7-0.4-1.5-0.6-2.3-0.6l0,0V136.3L307.4,136.3L307.4,136.3z
			 M307.4,142.7c0.3,0.2,0.5,0.6,0.9,1.3l0.5,1h1.2l-0.8-1.2c-0.3-0.5-0.6-1-0.9-1.2c-0.1-0.1-0.3-0.3-0.5-0.3
			c0.5,0,0.9-0.2,1.3-0.5c0.3-0.3,0.5-0.7,0.5-1.1c0-0.3-0.1-0.6-0.3-0.9c-0.2-0.3-0.4-0.5-0.8-0.6c-0.3-0.1-0.6-0.1-1.1-0.2v0.8
			c0.3,0,0.5,0,0.6,0.1c0.2,0,0.3,0.2,0.4,0.3c0.1,0.2,0.1,0.3,0.1,0.5c0,0.3-0.1,0.5-0.3,0.6c-0.2,0.2-0.5,0.3-0.8,0.3V142.7z
			 M307.4,147.3c-1,0-1.9-0.3-2.8-0.7c-0.9-0.5-1.5-1.2-2-2.1c-0.5-0.9-0.8-1.8-0.8-2.8c0-1,0.3-1.9,0.8-2.8c0.5-0.9,1.2-1.6,2.1-2
			c0.9-0.5,1.8-0.7,2.7-0.7v0.9c-0.8,0-1.5,0.2-2.3,0.6c-0.8,0.4-1.3,1-1.8,1.7c-0.4,0.8-0.6,1.5-0.6,2.3c0,0.8,0.2,1.6,0.6,2.3
			c0.4,0.8,1,1.3,1.7,1.7c0.8,0.4,1.5,0.6,2.3,0.6V147.3L307.4,147.3z M307.4,138.9c-0.1,0-0.3,0-0.4,0h-2v6h1v-2.5h0.5
			c0.4,0,0.6,0.1,0.8,0.2c0,0,0.1,0.1,0.1,0.1v-1.2c-0.1,0-0.2,0-0.3,0H306v-1.8h1.1c0.1,0,0.3,0,0.4,0V138.9z"/>
	</g>
</g>
</svg>
