<?xml version="1.0" encoding="utf-8"?>
<!-- Generator: Adobe Illustrator 21.1.0, SVG Export Plug-In . SVG Version: 6.00 Build 0)  -->
<svg version="1.1" id="Layer_1" xmlns="http://www.w3.org/2000/svg" xmlns:xlink="http://www.w3.org/1999/xlink" x="0px" y="0px"
	 viewBox="0 0 85.6 85.5" style="enable-background:new 0 0 85.6 85.5;" xml:space="preserve">
<style type="text/css">
	.st0{fill:#FFFFFF;}
</style>
<g>
	<path class="st0" d="M0.2,44.2c0-0.8,0-1.6,0-2.4c0-0.2,0-0.4,0-0.6c0.1-4.5,0.2-8.9,0.7-13.4c0.1-1.2,0.5-2.3,1.3-3.3
		c0.8-1,1.6-2,2.5-3c2.9-3.3,5.9-6.5,9.1-9.6c3.4-3.3,6.9-6.6,10.7-9.5c0.6-0.5,1.3-0.8,2.1-1c1.1-0.2,2.2-0.3,3.3-0.4
		c5-0.4,9.9-0.5,14.9-0.5c4.4,0.1,8.8,0.2,13.2,0.7c1.4,0.2,2.6,0.6,3.6,1.5C63.7,4.6,66,6.4,68,8.4c3.2,3,6.3,6.2,9.4,9.3
		c2.1,2.2,4.1,4.6,6.1,7c0.7,0.8,1.1,1.7,1.1,2.7c0.2,3.1,0.5,6.3,0.7,9.4c0.3,7.2,0.2,14.4-0.6,21.6c-0.1,1.1-0.4,2.2-1.2,3.1
		c-0.7,0.8-1.3,1.6-2,2.4c-3.1,3.6-6.3,7-9.7,10.3c-3.4,3.3-6.8,6.6-10.6,9.5c-0.8,0.6-1.7,1-2.7,1.1c-2.7,0.2-5.4,0.5-8.1,0.6
		c-7.4,0.3-14.7,0.2-22.1-0.5c-1.7-0.2-3.2-0.6-4.6-1.7c-3.4-2.8-6.6-5.7-9.7-8.8c-4.2-4.1-8.2-8.4-11.9-12.9
		c-0.7-0.8-1-1.7-1.1-2.8c-0.4-4-0.6-8-0.7-12.1C0.3,45.9,0.3,45.1,0.2,44.2z M42.8,7.3c-4,0-8,0.1-12,0.5c-1.2,0.1-2.4,0.2-3.3,1
		c-1,0.8-2.1,1.6-3.1,2.5c-3.3,2.8-6.4,5.8-9.3,9c-2.4,2.5-4.7,5-6.8,7.8c-0.4,0.6-0.6,1.2-0.7,1.9C7.1,33.4,6.9,37,6.9,40.6
		c-0.1,5,0,10,0.6,15c0.1,1.2,0.4,2.4,1.3,3.3c0.6,0.7,1.2,1.5,1.8,2.2c3.2,3.8,6.6,7.3,10.2,10.7c2.1,2,4.3,4,6.7,5.7
		c0.6,0.4,1.2,0.7,1.9,0.8c1.2,0.2,2.4,0.3,3.5,0.4c4.2,0.3,8.4,0.4,12.6,0.3c3.3-0.1,6.6-0.1,9.9-0.5c1.2-0.1,2.4-0.4,3.4-1.3
		c0.6-0.5,1.3-1,1.9-1.6c3.6-3,6.9-6.3,10.2-9.7c2.1-2.2,4.2-4.5,6.1-7c0.6-0.8,1.1-1.5,1.2-2.5c0.1-0.5,0.1-1,0.2-1.6
		c0.4-3.8,0.5-7.7,0.5-11.6c0-4.4-0.1-8.7-0.6-13.1c-0.1-1-0.4-2-1.1-2.8c-0.9-1-1.7-2.1-2.5-3.1c-2.8-3.2-5.8-6.3-8.9-9.2
		c-2.4-2.3-4.7-4.5-7.4-6.4C57.7,8.4,57,8.1,56.2,8c-0.7-0.1-1.5-0.2-2.2-0.3C50.3,7.5,42.8,7.2,42.8,7.3z"/>
	<path class="st0" d="M32.3,32.9c-0.1,0.2-0.3,0.4-0.4,0.7c-0.6,1.5-1.2,3-1.7,4.5c-2,5-3.9,10-5.9,15c-0.1,0.2-0.3,0.4-0.5,0.6
		c-0.2-0.2-0.4-0.3-0.5-0.6c-1.6-3-3.2-6-4.8-9c-0.1-0.2-0.3-0.4-0.5-0.6c-0.1,0.3-0.2,0.5-0.2,0.8c-0.1,5.5,0.1,11,0.6,16.5
		c0.1,0.9,0.2,1.8,0.3,2.7c0,0.2-0.1,0.4-0.1,0.5c-0.2-0.1-0.4-0.1-0.5-0.3c-2-2.2-4-4.4-6-6.6c-0.8-0.8-0.8-1.8-0.9-2.7
		c-0.4-5.4-0.5-10.9-0.3-16.3c0.1-2.5,0.3-5,0.4-7.5c0-0.3,0.1-0.6,0.3-0.8c1.4-1.7,2.9-3.3,4.4-4.9c0.4-0.4,0.6-0.4,0.9,0.2
		c1.3,2.6,2.6,5.1,3.8,7.7c0.6,1.2,1.2,2.4,1.7,3.5c0,0.1,0.1,0.1,0.1,0.2c0.2,0.4,0.5,0.4,0.7,0c0.3-0.6,0.5-1.1,0.7-1.7
		c2.6-6.9,5.2-13.7,7.8-20.6c0.3-0.8,0.6-1.5,0.8-2.3c0.1-0.3,0.3-0.5,0.7-0.5c2.3-0.1,4.6-0.2,6.8-0.2c0.8,0,0.8,0,0.8,0.8
		c0,6.5,0,12.9,0,19.4c0,14.3,0,28.7,0,43c0,0.9,0,0.9-0.9,0.9c-2.2-0.1-4.3-0.2-6.5-0.2c-0.7,0-0.7-0.1-0.7-0.8
		c0-11.6,0-23.2,0-34.8c0-1.9,0-3.8,0-5.7c0-0.3-0.1-0.5-0.1-0.8C32.4,32.9,32.4,32.9,32.3,32.9z"/>
	<path class="st0" d="M44.9,43.2c0-10.3,0-20.7,0-31c0-0.2,0-0.4,0-0.5c0-0.3,0.1-0.5,0.5-0.5c3.3,0.2,6.7,0.3,10,0.5
		c0.3,0,0.6,0.2,0.9,0.4c4.6,3.8,8.8,8,12.9,12.3c1.6,1.7,3.1,3.5,4.7,5.2c0.3,0.4,0.5,0.8,0.6,1.3c0.1,1.8,0.2,3.6,0.3,5.4
		c0,0.5-0.1,0.6-0.5,0.6c-2,0-3.9,0-5.9,0c-0.4,0-0.6-0.2-0.6-0.5c0-0.9-0.1-1.8-0.1-2.7c0-0.5-0.2-0.8-0.5-1.2
		c-4.1-4.6-8.5-9-13.1-13.1c-0.1-0.1-0.3-0.3-0.4-0.4c-0.1-0.1-0.4-0.2-0.5-0.1c-0.1,0.1-0.2,0.3-0.3,0.5c0,0.1,0,0.2,0,0.3
		c0,15.7,0,31.4,0,47.1c0,0.1,0,0.2,0,0.2c0.1,0.2,0.1,0.4,0.2,0.5c0.2,0.1,0.4,0,0.6-0.1c0.9-0.8,1.8-1.6,2.7-2.4
		c3.7-3.5,7.3-7.1,10.6-10.8c0.4-0.5,0.7-1,0.7-1.6c0-0.7,0.1-1.4,0.1-2.1c0-0.5-0.1-0.6-0.6-0.6c-0.9,0-1.9,0-2.8,0
		c-0.5,0-0.6-0.1-0.6-0.6c0-1.9,0-3.8,0-5.6c0-0.5,0.1-0.6,0.6-0.6c3.3,0,6.7,0,10,0c0.4,0,0.6,0.1,0.6,0.5c0,4.1-0.1,8.2-0.5,12.3
		c0,0.3-0.2,0.7-0.4,0.9c-3.4,4.1-7,7.9-10.9,11.5c-2.2,2.1-4.5,4.1-6.8,6.1c-0.3,0.2-0.6,0.4-0.9,0.4c-3.3,0.2-6.7,0.4-10,0.5
		c-0.4,0-0.5-0.1-0.5-0.6c0-2.5,0-5,0-7.5C44.9,59.1,44.9,51.2,44.9,43.2z"/>
</g>
</svg>
