<svg width="208" height="48" viewBox="0 0 208 48" fill="none" xmlns="http://www.w3.org/2000/svg">
<g clip-path="url(#clip0)">
<path d="M49.0698 23.9758C49.0698 36.8349 38.6455 47.2592 25.7864 47.2592C12.9274 47.2592 2.50306 36.8349 2.50306 23.9758C2.50306 11.1167 12.9274 0.69242 25.7864 0.69242C38.6455 0.69242 49.0698 11.1167 49.0698 23.9758Z" fill="url(#paint0_linear)" stroke="url(#paint1_linear)" stroke-width="0.579908"/>
<path fill-rule="evenodd" clip-rule="evenodd" d="M35.4395 5.54657L36.2644 4.17363L38.3264 9.24408L32.8814 9.80387L33.6929 8.4534C31.3202 7.24244 28.6331 6.55952 25.7865 6.55952C16.1678 6.55952 8.37022 14.3571 8.37022 23.9758C8.37022 28.7691 10.3066 33.1102 13.4398 36.2594L11.083 38.688C7.31639 34.9236 4.98648 29.7218 4.98648 23.9758C4.98648 12.4883 14.299 3.17578 25.7865 3.17578C29.2706 3.17578 32.5547 4.03242 35.4395 5.54657ZM16.4035 42.5443L15.7064 43.7044L13.6444 38.634L19.0894 38.0742L18.1522 39.6341C20.4574 40.7601 23.0481 41.3921 25.7865 41.3921C35.4052 41.3921 43.2027 33.5945 43.2027 23.9758C43.2027 19.1912 41.2734 14.8573 38.1504 11.7095L40.5489 9.32276C44.2809 13.0824 46.5865 18.2598 46.5865 23.9758C46.5865 35.4633 37.274 44.7758 25.7865 44.7758C22.4106 44.7758 19.2226 43.9716 16.4035 42.5443ZM30.4639 18.9002H24.4926V12.9289H20.3127V18.9002H14.3414V23.0801H20.3127V29.0514H24.4926V23.0801H30.4639V18.9002ZM35.6889 26.215H38.8238V28.305H35.6889V31.4399H33.5989V28.305H30.464V26.215H33.5989V23.0801H35.6889V26.215ZM31.0611 32.2859H28.6228V29.8476H27.13V32.2859H24.6917V33.7787H27.13V36.217H28.6228V33.7787H31.0611V32.2859Z" fill="white"/>
<path fill-rule="evenodd" clip-rule="evenodd" d="M144.969 35.3906L144.969 35.7488H148.467C148.486 35.716 148.505 35.6875 148.523 35.6619C148.555 35.6144 148.581 35.5769 148.581 35.5395C148.572 34.3834 148.576 33.2265 148.579 32.0695V32.0692C148.589 29.3098 148.598 26.5503 148.429 23.8018C148.231 20.5963 145.893 18.6489 142.66 18.7405C141.783 18.7654 140.912 18.9918 140.013 19.2255C139.596 19.334 139.172 19.4441 138.739 19.5362V11.6697C138.233 11.7958 137.587 11.9759 136.917 12.1628L136.916 12.1629L136.916 12.163L136.916 12.1631L136.915 12.1631C136.281 12.34 135.625 12.523 135.044 12.6721C135.07 18.0912 135.067 24.1194 135.065 29.813V29.8144V29.8158V29.8171V29.8184L135.065 29.8533C135.064 31.4951 135.063 33.109 135.063 34.6722V35.711H138.768V34.546C138.768 33.7685 138.767 32.9909 138.767 32.2134V32.2097C138.766 29.6079 138.764 27.0061 138.779 24.4045C138.781 24.0246 138.838 23.5754 139.044 23.2792C139.755 22.2567 141.444 21.7192 142.652 22.047C144.125 22.4469 144.924 23.5039 144.948 25.2925C144.977 27.4881 144.974 29.684 144.971 31.88C144.97 32.7968 144.968 33.7136 144.969 34.6304C144.97 34.8795 144.97 35.1287 144.969 35.3906ZM56.7364 35.5766V12.6753H60.4266V21.6649H68.7287V12.705H72.4294V35.6112H68.795V25.4138H60.4874V35.5766H56.7364ZM121.223 22.0894V18.9504L122.929 18.8604C122.929 17.9717 122.929 16.3772 122.916 15.522C123.18 15.4165 125.471 14.4956 126.5 14.0819V18.8733H130.684V22.0916H126.582C126.582 22.9709 126.572 23.8391 126.563 24.6992V24.7V24.7008V24.7017C126.541 26.7022 126.52 28.659 126.619 30.6097C126.712 32.4408 127.916 33.1051 129.743 32.6247C130.039 32.5468 130.327 32.4415 130.662 32.3194L130.663 32.3193C130.831 32.2577 131.012 32.192 131.21 32.1233C131.21 32.4045 131.213 32.6802 131.215 32.9517C131.221 33.7059 131.227 34.4285 131.184 35.1482C131.172 35.3466 130.835 35.6715 130.627 35.6889C130.319 35.7147 130.01 35.7472 129.7 35.7797C128.671 35.8878 127.636 35.9965 126.636 35.8649C124.29 35.5564 122.988 33.6973 122.941 30.8772C122.912 29.1391 122.918 27.4005 122.924 25.6618C122.927 24.8923 122.93 24.1228 122.929 23.3534L122.929 22.6195L122.929 22.1643L121.223 22.0894ZM116.692 16.448L116.692 12.8692V11.6799C115.711 11.9368 114.378 12.2966 113.154 12.6464C113.166 16.1873 113.167 19.9955 113.168 23.7669C113.169 26.6265 113.17 29.465 113.175 32.1499C113.176 32.7809 113.212 33.4276 113.354 34.0391C113.646 35.3049 114.296 35.8884 115.352 35.9761C116.708 36.0886 117.734 35.5167 118.3 34.2775C117.212 33.7069 116.88 32.6846 116.79 31.5399C116.784 31.4606 116.777 31.3813 116.771 31.302L116.771 31.2997C116.734 30.8469 116.697 30.3933 116.697 29.9402C116.691 25.4427 116.692 20.9453 116.692 16.448ZM80.6304 25.4826C80.926 23.1659 82.3581 21.8653 84.4972 21.9261C86.5622 21.9849 87.7693 23.2195 87.9404 25.4826H80.6304ZM91.4485 24.7189C90.7237 19.4975 84.5846 16.9506 80.221 19.9347C75.61 23.088 75.9882 30.7344 78.5649 33.64C81.051 36.4432 87.0361 36.8679 89.8374 34.3028L88.5156 31.4616C85.2346 33.94 80.5254 32.783 80.4461 28.5546H81.5946C82.3788 28.5546 83.1631 28.5534 83.9473 28.5522L83.9512 28.5522C86.1205 28.549 88.2898 28.5458 90.4589 28.5672C91.1161 28.5738 91.4825 28.4194 91.4715 27.7034C91.4661 27.353 91.4785 27.0006 91.4908 26.6483V26.6482C91.5136 25.9998 91.5363 25.352 91.4485 24.7189ZM99.3304 32.4443C100.999 33.4119 103.375 32.4339 103.785 30.5492C103.914 29.9585 103.94 29.3457 103.967 28.7173C103.98 28.4274 103.993 28.1342 104.016 27.8382C102.448 27.3853 100.876 27.5169 99.7664 28.1105C98.8109 28.6216 98.3997 29.4576 98.3677 30.484C98.3427 31.2841 98.5776 32.0078 99.3304 32.4443ZM107.474 27.7585C107.491 28.9279 107.509 30.0972 107.602 31.2608C107.612 31.3924 107.621 31.5336 107.631 31.6817C107.701 32.7632 107.795 34.207 108.577 34.897C108.454 35.2686 108.328 35.4216 107.962 35.6733C107.109 36.2598 105.734 36.0495 105.017 35.2686C104.834 35.0703 104.68 34.8468 104.513 34.6063C104.434 34.4913 104.351 34.3724 104.262 34.2504C102.474 36.0337 99.6776 36.5219 97.4377 35.4501C95.3706 34.4608 94.7415 32.6698 94.8201 30.5546C94.9528 26.9856 97.3145 24.8138 101.307 24.5603C101.874 24.5243 102.443 24.5339 103.016 24.5436C103.28 24.5481 103.545 24.5526 103.811 24.5526C103.927 23.3664 103.336 22.4733 102.082 22.133C100.424 21.6831 98.825 21.9399 97.1745 22.6873C96.9683 21.9183 96.5718 20.2925 96.4477 19.7832C96.4344 19.7287 96.4242 19.687 96.4177 19.6605C99.3547 18.4267 102.185 18.3016 104.734 19.5544C106.715 20.5282 107.217 22.4712 107.36 24.4491C107.44 25.5491 107.457 26.6539 107.474 27.7585Z" fill="#3675DD"/>
<path fill-rule="evenodd" clip-rule="evenodd" d="M176.155 15.0086C176.155 16.1503 176.155 17.292 176.154 18.4337C176.154 22.2763 176.153 26.1189 176.159 29.9616C176.16 30.3853 176.193 30.8092 176.227 31.2328L176.227 31.2329L176.227 31.233L176.227 31.233C176.238 31.3758 176.249 31.5184 176.259 31.6611C176.337 32.7838 176.761 33.7203 177.762 34.304C177.148 35.5575 176.069 36.1339 174.709 35.9716C173.658 35.8462 172.936 35.0799 172.723 33.7599C172.623 33.1362 172.614 32.4933 172.613 31.859C172.61 29.8985 172.611 27.8591 172.611 25.7916V25.7908V25.79V25.7893C172.612 21.4372 172.613 16.9608 172.587 12.8341C173.103 12.6542 174.32 12.266 175.388 11.9254L175.388 11.9254L175.389 11.9253C175.658 11.8393 175.918 11.7564 176.155 11.6807V15.0086ZM205.254 18.9034L199.873 27.0253L205.8 35.786C205.412 35.786 205.036 35.7888 204.67 35.7914H204.67H204.669H204.669C203.683 35.7987 202.763 35.8055 201.847 35.7566C201.569 35.7418 201.242 35.4033 201.057 35.133C200.243 33.9457 199.448 32.7451 198.626 31.5042C198.343 31.0756 198.056 30.6422 197.764 30.2028C197.445 30.6806 197.128 31.1496 196.815 31.6137C196.036 32.7675 195.278 33.8905 194.563 35.0402C194.191 35.6384 193.772 35.8334 193.1 35.8004C192.394 35.7657 191.687 35.7726 190.91 35.7802L190.91 35.7802H190.91H190.909C190.562 35.7837 190.2 35.7872 189.819 35.7872L195.694 27.0694L190.296 18.9078C190.655 18.9078 191.005 18.906 191.347 18.9041C192.329 18.8989 193.252 18.894 194.173 18.9342C194.389 18.9438 194.634 19.27 194.791 19.5003C195.537 20.5895 196.27 21.6866 197.025 22.8152L197.025 22.8159L197.026 22.8173L197.027 22.8181L197.028 22.8207C197.28 23.1976 197.535 23.578 197.792 23.9628C198.065 23.5566 198.332 23.1545 198.596 22.7564L198.596 22.7562L198.596 22.7561L198.597 22.756L198.597 22.7558C199.339 21.638 200.061 20.5512 200.82 19.4903C201.026 19.2014 201.479 18.9542 201.835 18.9297C202.591 18.8779 203.351 18.8863 204.186 18.8957C204.528 18.8995 204.882 18.9034 205.254 18.9034ZM186.386 35.7168V18.9375H180.907V22.0854L182.813 22.1718V35.7168H186.386ZM182.574 14.5928C182.569 13.3015 183.534 12.2513 184.703 12.2749C185.826 12.2974 186.75 13.3348 186.755 14.5776C186.76 15.8604 185.783 16.9202 184.618 16.8952C183.492 16.8711 182.578 15.8421 182.574 14.5928ZM157.605 23.605C159.167 23.8062 160.681 23.8149 162.136 23.1634C163.573 22.5201 163.909 21.2459 163.93 19.8512C163.95 18.5005 163.373 17.4568 162.093 16.8968C160.678 16.2779 159.196 16.2049 157.605 16.3806V23.605ZM163.64 13.4297C166.196 14.2909 167.537 16.0438 167.669 18.7116C167.717 19.6736 167.718 20.6645 167.543 21.6059C166.873 25.2145 164.395 27.132 160.257 27.3217C159.673 27.3485 159.086 27.3416 158.476 27.3344C158.188 27.331 157.895 27.3275 157.595 27.3275V35.7516H153.901V12.8767C154.064 12.8654 154.227 12.854 154.39 12.8426C157.504 12.6247 160.607 12.4075 163.64 13.4297Z" fill="#49B61C"/>
</g>
<defs>
<linearGradient id="paint0_linear" x1="21.3329" y1="32.1715" x2="31.1291" y2="44.3967" gradientUnits="userSpaceOnUse">
<stop stop-color="#5DB106"/>
<stop offset="1" stop-color="#0078A6"/>
</linearGradient>
<linearGradient id="paint1_linear" x1="2.2131" y1="0.402466" x2="2.2131" y2="47.5491" gradientUnits="userSpaceOnUse">
<stop stop-color="#A3EA2B"/>
<stop offset="1" stop-color="#095269"/>
</linearGradient>
<clipPath id="clip0">
<rect width="208" height="48" fill="white"/>
</clipPath>
</defs>
</svg>
