<svg xmlns="http://www.w3.org/2000/svg" width="200" height="37" viewBox="0 0 200 37">
    <g fill="none" fill-rule="evenodd">
        <path fill="#B41F5E" d="M69.641 36.884H50.298c6.562 0 10.68-7.212 7.426-13.005L49.13 8.582l2.308-4.026c3.313-5.787 11.554-5.754 14.818.066l10.81 19.257c3.258 5.793-.859 13.005-7.426 13.005z"/>
        <path fill="#F05443" d="M49.896 36.884l-7.175-17.12 6.404-11.182-2.221-3.96c-3.265-5.815-11.5-5.853-14.818-.066l-2.45 4.274 8.191 14.59-9.848 13.453 21.917.011z"/>
        <path fill="#D91A5F" d="M50.293 36.884h-2.499c-4.991 0-8.56-4.164-8.566-8.709v-.005c0-1.458.37-2.955 1.174-4.363l8.723-15.23 8.593 15.296c3.26 5.799-.858 13.011-7.425 13.011z"/>
        <path fill="#FEBE10" d="M28.446 36.884H8.821c-6.6 0-10.711-7.278-7.387-13.071L12.466 4.556c3.313-5.787 11.553-5.754 14.818.066l2.363 4.208-8.588 14.983c-3.324 5.793.793 13.071 7.387 13.071z"/>
        <path fill="#F47A37" d="M39.228 28.17c0 4.55-3.574 8.709-8.566 8.709h-2.216c-6.6 0-10.711-7.279-7.387-13.072l8.588-14.982 8.446 15.048a8.715 8.715 0 0 1 1.135 4.297z"/>
        <g fill="#2D2E2D">
            <path d="M110.45 6.798c.842.911 1.257 2.181 1.257 3.805v6.986h-3.63v-6.555c0-.762-.202-1.353-.607-1.778-.405-.426-.957-.636-1.657-.636-.727 0-1.301.227-1.717.68-.42.453-.628 1.088-.628 1.91v6.384h-3.653v-6.56c0-.762-.202-1.353-.596-1.778-.399-.426-.946-.636-1.646-.636-.727 0-1.3.221-1.727.669-.427.447-.64 1.088-.64 1.921v6.384h-3.653V5.556h3.653v2.048a3.56 3.56 0 0 1 1.443-1.596c.646-.386 1.406-.58 2.275-.58.913 0 1.717.21 2.411.636.695.425 1.225 1.032 1.58 1.822a4.818 4.818 0 0 1 1.695-1.79 4.412 4.412 0 0 1 2.379-.667c1.465 0 2.619.458 3.46 1.37z"/>
            <path fill-rule="nonzero" d="M122.938 6.03a3.754 3.754 0 0 1 1.454 1.701V5.556h3.631v12.033h-3.63v-2.176a3.722 3.722 0 0 1-1.455 1.7c-.656.42-1.438.625-2.346.625-.984 0-1.859-.249-2.635-.746-.776-.497-1.389-1.209-1.837-2.142-.449-.934-.673-2.027-.673-3.28 0-1.265.224-2.364.673-3.286.448-.923 1.06-1.64 1.837-2.138.776-.497 1.657-.745 2.635-.745.908.005 1.69.215 2.346.63zm-3.062 3.386c-.476.519-.716 1.237-.716 2.153 0 .923.24 1.64.716 2.16.476.519 1.105.778 1.892.778.77 0 1.4-.265 1.892-.795s.738-1.242.738-2.137c0-.906-.246-1.618-.738-2.143-.492-.524-1.121-.784-1.892-.784-.787-.005-1.416.249-1.892.768z"/>
            <path d="M137.87 6.075a4.463 4.463 0 0 1 2.34-.646v3.948h-1.044c-.968 0-1.717.21-2.252.624-.536.414-.799 1.121-.799 2.115v5.478h-3.652V5.556h3.652V7.82a5.175 5.175 0 0 1 1.755-1.745zM155.515 5.556v12.033h-3.675v-2.176a3.984 3.984 0 0 1-1.525 1.679c-.678.42-1.46.624-2.357.624-1.367 0-2.45-.459-3.258-1.38-.81-.923-1.209-2.188-1.209-3.795V5.556h3.63v6.533c0 .817.209 1.457.63 1.91.42.453.984.68 1.695.68.738 0 1.323-.238 1.75-.713.426-.475.639-1.149.639-2.027V5.556h3.68zM166.702 14.419v3.17h-1.646c-1.394 0-2.482-.348-3.253-1.044-.777-.696-1.165-1.85-1.165-3.462V8.665h-1.602V5.56h1.602V2.607h3.652V5.56h2.39v3.104h-2.39v4.484c0 .475.099.806.29.994.192.188.514.281.973.281h1.149v-.005z"/>
            <path fill-rule="nonzero" d="M170.928.779c.4-.365.924-.553 1.58-.553s1.181.183 1.58.553c.4.364.596.828.596 1.391 0 .547-.202 1.005-.595 1.37-.4.364-.925.552-1.58.552-.657 0-1.182-.182-1.58-.552a1.777 1.777 0 0 1-.597-1.37c0-.557.197-1.021.596-1.391zm3.396 4.777v12.033h-3.653V5.556h3.653z"/>
            <g>
                <path d="M98.3 33.604v3.17h-1.645c-1.394 0-2.483-.348-3.253-1.044-.777-.696-1.165-1.85-1.165-3.463V27.85h-1.602v-3.103h1.602V21.79h3.652v2.955h2.39v3.103h-2.39v4.485c0 .475.099.806.29.994.191.187.514.281.973.281h1.149v-.005z"/>
                <path fill-rule="nonzero" d="M113.479 31.422h-8.262c.044.906.268 1.558.684 1.95.415.392.94.59 1.58.59.541 0 .99-.137 1.345-.408.355-.27.59-.624.705-1.055h3.866a5.098 5.098 0 0 1-1.028 2.275 5.475 5.475 0 0 1-2.007 1.574c-.809.381-1.717.575-2.712.575-1.164 0-2.203-.249-3.105-.746a5.275 5.275 0 0 1-2.122-2.143c-.514-.933-.77-2.026-.77-3.28 0-1.264.25-2.363.76-3.286a5.229 5.229 0 0 1 2.12-2.137c.914-.497 1.953-.745 3.117-.745 1.181 0 2.22.243 3.117.734a5.184 5.184 0 0 1 2.083 2.06c.492.884.738 1.9.738 3.054 0 .298-.038.63-.11.988zm-4.216-3.33c-.432-.392-.973-.59-1.613-.59-.667 0-1.224.198-1.667.601-.443.404-.69.994-.75 1.768h4.654c.022-.79-.192-1.381-.624-1.779z"/>
                <path d="M126.65 25.872c1.04.856 1.696 2.033 1.964 3.524h-3.866c-.115-.52-.35-.923-.705-1.21-.356-.287-.804-.43-1.345-.43-.64 0-1.165.254-1.58.767-.41.508-.619 1.254-.619 2.231 0 .978.208 1.723.618 2.231.41.508.94.768 1.58.768.542 0 .99-.144 1.346-.43.355-.288.59-.691.705-1.21h3.866c-.274 1.496-.924 2.673-1.963 3.523-1.04.85-2.33 1.281-3.866 1.281-1.165 0-2.204-.248-3.106-.745a5.275 5.275 0 0 1-2.121-2.143c-.514-.933-.771-2.027-.771-3.28 0-1.265.251-2.364.76-3.286a5.229 5.229 0 0 1 2.121-2.137c.913-.497 1.952-.746 3.117-.746 1.542.011 2.827.436 3.866 1.292zM143.25 25.994c.804.922 1.209 2.187 1.209 3.794v6.986h-3.652v-6.555c0-.807-.208-1.436-.63-1.89-.42-.452-.978-.678-1.672-.678-.738 0-1.329.237-1.76.712-.433.475-.652 1.149-.652 2.027v6.384h-3.652V20.819h3.652v6.125a3.976 3.976 0 0 1 1.526-1.701c.672-.414 1.47-.624 2.378-.624 1.362-.006 2.45.453 3.254 1.375zM152.442 20.814v15.954h-3.653V20.814h3.653z"/>
                <path fill-rule="nonzero" d="M163.755 25.215a3.754 3.754 0 0 1 1.454 1.701V24.74h3.63v12.034h-3.63v-2.176a3.722 3.722 0 0 1-1.454 1.7c-.657.42-1.438.625-2.346.625-.984 0-1.86-.249-2.636-.746s-1.388-1.21-1.837-2.143c-.448-.933-.672-2.026-.672-3.28 0-1.264.224-2.363.672-3.286.449-.922 1.061-1.64 1.837-2.137.777-.497 1.657-.745 2.636-.745.908.005 1.695.21 2.346.63zm-3.062 3.385c-.476.52-.717 1.237-.717 2.154 0 .922.24 1.64.717 2.16.475.519 1.104.778 1.891.778.771 0 1.4-.265 1.892-.795s.738-1.243.738-2.137c0-.906-.246-1.618-.738-2.143-.492-.525-1.12-.784-1.892-.784-.787-.011-1.416.248-1.891.767zM183.345 25.331c.777.497 1.39 1.21 1.838 2.137.448.928.672 2.022.672 3.286 0 1.254-.224 2.342-.672 3.28-.449.934-1.061 1.652-1.838 2.143-.776.497-1.656.746-2.635.746-.913 0-1.695-.21-2.346-.624a3.614 3.614 0 0 1-1.432-1.701v2.176h-3.653V20.819h3.653v6.103c.3-.718.776-1.287 1.432-1.701.656-.414 1.438-.624 2.346-.624.979-.006 1.859.243 2.635.734zm-5.702 3.28c-.493.525-.739 1.243-.739 2.143 0 .895.246 1.602.739 2.137.492.53 1.12.796 1.891.796.782 0 1.411-.26 1.892-.78.476-.518.716-1.236.716-2.158 0-.923-.24-1.64-.716-2.154s-1.104-.779-1.892-.779c-.77.006-1.4.27-1.891.795z"/>
                <path d="M197.627 25.734c.902.762 1.47 1.767 1.695 3.021h-3.417c-.099-.486-.323-.872-.673-1.154-.35-.282-.787-.42-1.312-.42-.416 0-.727.089-.94.27-.214.183-.323.437-.323.768 0 .376.197.658.585.84.388.182 1.006.375 1.848.558.913.215 1.657.436 2.242.657.585.22 1.088.585 1.514 1.088.427.502.64 1.176.64 2.026 0 .69-.186 1.304-.558 1.834-.371.53-.902.95-1.602 1.248-.7.298-1.525.453-2.477.453-1.607 0-2.897-.36-3.865-1.077-.968-.718-1.559-1.745-1.772-3.082h3.521c.055.52.274.912.651 1.188.377.276.864.408 1.46.408.41 0 .727-.1.94-.292.214-.194.323-.448.323-.768 0-.414-.197-.712-.585-.895-.394-.182-1.028-.37-1.914-.568-.88-.188-1.607-.387-2.176-.602a3.578 3.578 0 0 1-1.47-1.044c-.416-.48-.619-1.138-.619-1.972 0-1.076.405-1.949 1.22-2.617.809-.668 1.957-1.005 3.439-1.005 1.514-.006 2.723.375 3.625 1.137z"/>
            </g>
        </g>
    </g>
</svg>
