<svg id="Layer_1" data-name="Layer 1" xmlns="http://www.w3.org/2000/svg" width="213.982" height="34" viewBox="0 0 213.982 34">
  <title>SHV-logo</title>
  <g>
    <path d="M34.071,16.965A17.029,17.029,0,0,0,25.045,1.932V7a12.774,12.774,0,1,1-16.019.047V1.932A17.035,17.035,0,1,0,34.071,16.965Zm-7.056,0a9.909,9.909,0,0,0-3.732-7.753,2.5,2.5,0,0,1-1.035-2.036V.749A16.945,16.945,0,0,0,18.493,0V7.131h0V9.2a3.163,3.163,0,0,0,1.326,2.837,5.678,5.678,0,1,1-5.568,0A3.138,3.138,0,0,0,15.641,9.2V0a16.936,16.936,0,0,0-3.755.726v6.45a2.517,2.517,0,0,1-1.047,2.045,9.943,9.943,0,1,0,16.176,7.744Z" fill="#ec1e26"/>
    <path d="M213.982,8.1h-4.426l-4.3,7.106L201.034,8.1h-4.552l6.8,10.722V25.8h3.894V18.744l6.8-10.646ZM195.95,16.965a9.755,9.755,0,0,0-.1-1.39h-8.714v3.41h4.548c-.506,2.172-2.223,3.486-4.85,3.486a5.179,5.179,0,0,1-5.127-5.506,5.194,5.194,0,0,1,5.127-5.456A6.4,6.4,0,0,1,191.48,13.2l2.652-2.652a9.775,9.775,0,0,0-7.3-2.727,8.945,8.945,0,0,0-9.118,9.143,8.946,8.946,0,0,0,9.118,9.143c5.759,0,9.118-3.991,9.118-9.143Zm-22,9.04a5.948,5.948,0,0,0,.936-.051v-3.34a2.78,2.78,0,0,1-.329.025c-1.215,0-2.277-.557-3.973-2.252L169.9,19.7a5.487,5.487,0,0,0,4.453-5.542c0-4-2.935-6.073-6.68-6.073h-8.1V25.8h3.9V11.682h3.9c1.822,0,3.037.861,3.037,2.581s-1.215,2.581-3.037,2.581H165.6v3.594l1.823,1.948c3.138,3.34,4.4,3.619,6.529,3.619Zm-31.547-.2H155.9V22.341h-9.619V18.62h8.354V15.151h-8.354V11.557h9.493V8.089H142.405v17.72Zm-7.136-.009h3.313V8.1h-3.844V19L126.444,8.1h-3.592V25.8H126.7V14.547L135.269,25.8Zm-29.671.009h13.493V22.341h-9.62V18.62h8.355V15.151h-8.355V11.557h9.493V8.089H105.6v17.72ZM89.26,25.8,96.366,8.1H92.2L87.6,20.476,83.008,8.1H78.74l7.105,17.7Zm-17.369.009h3.9V8.089h-3.9V15.1H64.7V8.089H60.8v17.72h3.9V18.7h7.189v7.114ZM47.775,12.956c0-1.016,1.016-1.574,2.742-1.574a5.746,5.746,0,0,1,4.265,1.675l2.589-2.589a9.082,9.082,0,0,0-6.854-2.64c-3.63,0-6.6,1.929-6.6,5.128,0,3.3,2.259,4.671,6.067,5.66,3.35.863,3.783,1.346,3.783,2.336s-.965,1.549-3,1.549a7.188,7.188,0,0,1-4.848-1.93L43.333,23.16a10.4,10.4,0,0,0,7.437,2.945c3.91,0,6.956-1.7,6.956-5.2,0-3.249-2.031-4.62-5.864-5.635-3.1-.812-4.087-1.193-4.087-2.31Z"/>
  </g>
</svg>
