<?xml version="1.0" encoding="UTF-8" ?>
<!DOCTYPE svg PUBLIC "-//W3C//DTD SVG 1.1//EN" "http://www.w3.org/Graphics/SVG/1.1/DTD/svg11.dtd">
<svg width="626pt" height="437pt" viewBox="0 0 626 437" version="1.1" xmlns="http://www.w3.org/2000/svg">
<g id="#fafafaff">
<path fill="#fafafa" opacity="1.00" d=" M 0.00 0.00 L 626.00 0.00 L 626.00 437.00 L 0.00 437.00 L 0.00 0.00 M 236.35 215.96 C 236.16 266.69 236.51 317.42 236.20 368.14 C 230.97 368.18 225.74 368.21 220.52 368.37 C 219.72 361.27 220.07 354.10 220.07 346.97 C 219.98 341.82 221.31 336.71 220.52 331.57 L 220.58 331.57 C 221.99 319.92 221.13 307.96 217.59 296.74 C 221.41 299.30 220.72 304.25 220.98 308.23 C 221.38 307.72 222.17 306.71 222.57 306.20 C 223.29 308.57 223.00 311.52 224.92 313.35 C 225.32 310.61 225.92 307.75 224.97 305.06 C 221.92 294.72 217.60 284.65 216.81 273.79 C 216.98 273.08 217.30 271.66 217.47 270.95 C 215.95 266.50 214.31 261.38 209.53 259.44 C 209.26 259.03 208.71 258.22 208.43 257.82 C 210.84 254.33 212.02 250.33 211.83 246.09 C 211.87 242.50 211.58 238.00 208.03 236.05 C 204.71 234.60 200.39 235.01 197.40 237.09 C 193.28 241.37 195.06 248.03 196.57 253.08 C 196.64 256.76 194.02 259.82 193.39 263.39 C 193.47 264.61 193.54 265.84 193.59 267.07 C 192.42 272.61 190.20 278.09 190.33 283.81 C 190.96 287.78 195.92 285.95 198.17 287.80 C 196.73 295.52 194.08 303.59 196.50 311.37 C 196.47 317.45 198.40 323.32 198.68 329.39 L 199.03 329.43 C 198.87 331.54 199.00 333.83 197.73 335.67 C 192.83 343.92 191.53 353.74 186.95 362.12 C 184.19 363.70 184.28 367.38 182.88 369.96 C 181.23 368.70 178.96 369.51 177.04 369.35 C 170.60 369.87 164.05 369.21 157.67 370.40 C 157.03 370.01 156.39 369.63 155.75 369.25 C 155.30 368.70 154.40 367.58 153.95 367.02 C 151.39 353.83 145.82 341.34 143.88 328.02 C 140.86 319.71 137.15 311.65 133.63 303.54 C 133.81 301.35 134.07 299.18 134.32 297.01 C 135.64 298.64 136.98 300.24 138.37 301.81 L 138.24 301.87 C 138.59 302.81 138.99 303.73 139.42 304.64 C 138.90 306.66 140.65 310.94 143.17 309.19 C 145.74 307.79 148.35 306.42 150.72 304.69 C 151.57 303.02 149.48 301.32 148.94 299.75 C 147.75 300.28 146.55 300.82 145.37 301.38 C 143.94 300.61 142.68 299.59 141.54 298.43 C 139.34 294.66 137.41 290.74 135.30 286.93 C 135.74 285.26 135.66 283.67 135.07 282.17 C 135.38 278.35 140.41 275.25 137.77 271.38 C 135.34 267.62 132.59 264.02 129.45 260.83 C 130.06 259.70 130.68 258.57 131.30 257.44 C 134.58 258.30 136.14 255.16 137.85 253.00 C 137.82 250.55 137.79 248.10 137.76 245.65 L 138.71 245.29 C 139.54 236.66 126.63 233.38 122.08 240.01 C 118.79 245.12 121.26 251.49 119.86 257.10 C 119.34 261.65 116.33 265.21 113.75 268.78 C 111.85 271.49 112.57 275.03 114.50 277.51 C 113.23 277.79 113.13 279.41 112.56 280.37 C 109.88 287.12 108.45 294.26 107.31 301.40 L 107.31 300.93 C 107.28 301.74 107.23 303.38 107.20 304.19 C 106.65 304.94 106.09 305.69 105.51 306.43 C 103.42 307.23 103.70 309.86 102.94 311.57 C 100.09 310.96 97.22 310.38 94.33 309.99 C 93.63 313.73 92.74 317.44 91.94 321.16 C 91.34 323.98 90.69 326.79 90.05 329.61 C 96.42 331.33 103.31 331.83 109.31 334.41 C 104.89 341.86 102.22 350.18 99.18 358.26 C 100.45 359.28 101.65 360.52 103.30 360.94 L 102.69 361.80 C 100.94 361.72 99.14 361.48 98.88 359.35 C 96.58 361.16 94.74 363.46 93.41 366.07 C 94.66 367.14 96.08 367.96 97.66 368.47 C 98.26 369.50 98.95 370.48 99.71 371.41 C 94.95 373.52 89.65 373.25 84.58 373.79 C 78.96 374.53 73.28 374.87 67.69 375.77 L 66.76 376.60 C 61.18 377.58 55.34 377.89 50.07 380.12 C 48.70 380.44 48.33 381.83 47.78 382.92 C 50.41 384.28 53.23 385.26 56.15 385.80 C 73.25 389.12 90.67 390.06 108.00 391.52 C 130.98 392.82 153.96 394.20 176.98 394.63 C 199.10 395.87 221.29 395.89 243.45 395.81 C 269.16 395.98 294.88 395.99 320.58 395.84 C 337.39 396.10 354.19 395.81 371.00 395.89 C 381.83 395.73 392.70 396.14 403.51 395.63 C 418.35 395.78 433.22 395.68 448.03 394.64 C 460.37 394.66 472.68 393.67 485.02 393.47 C 500.56 392.15 516.18 392.02 531.70 390.33 C 542.18 391.82 552.44 388.44 562.88 388.34 C 568.19 386.63 574.15 386.80 578.60 383.00 C 577.99 381.24 577.15 379.36 575.08 379.06 C 564.89 376.13 554.19 374.77 543.61 374.87 C 529.91 373.84 516.19 371.87 502.42 372.40 C 502.34 370.95 502.17 369.52 501.94 368.10 C 500.85 369.59 500.57 371.40 500.22 373.16 C 500.55 371.52 500.49 369.89 500.04 368.27 C 500.33 368.13 500.89 367.84 501.17 367.69 C 501.23 358.74 503.46 349.93 503.46 340.97 C 503.46 335.88 503.52 330.79 503.82 325.71 C 500.97 325.60 498.12 325.60 495.28 325.71 C 495.98 335.81 495.80 345.94 496.89 356.02 C 497.18 361.16 498.46 366.43 497.12 371.52 C 489.18 371.70 481.27 369.65 473.33 370.82 C 473.11 370.11 472.66 368.69 472.43 367.98 C 474.69 361.91 477.78 356.15 479.75 349.96 C 481.42 345.34 480.86 340.25 482.63 335.65 C 483.97 332.06 485.72 328.63 486.94 324.99 C 493.18 325.68 499.53 325.88 505.76 324.89 C 507.07 314.77 506.85 304.42 504.21 294.52 C 503.29 289.99 501.49 285.63 501.32 280.96 C 504.14 281.18 506.98 281.28 509.82 281.10 C 509.59 274.70 508.71 268.26 506.67 262.18 C 505.51 258.22 500.79 257.93 497.40 257.17 L 496.80 255.73 C 497.23 252.93 497.02 249.67 499.59 247.83 C 499.87 248.45 500.42 249.71 500.69 250.34 C 500.04 254.27 505.59 256.79 507.16 252.60 C 506.25 252.57 504.42 252.52 503.50 252.50 C 503.05 246.68 506.64 241.65 507.22 236.00 C 506.82 232.92 505.27 229.52 502.05 228.59 C 498.97 228.26 496.25 230.12 494.62 232.58 C 491.09 233.42 487.99 236.07 487.65 239.85 C 486.74 243.57 487.17 247.60 488.95 251.01 C 489.59 252.02 490.45 253.33 491.81 253.32 C 491.84 253.69 491.90 254.44 491.93 254.81 C 491.59 255.37 490.90 256.50 490.55 257.06 C 490.37 256.89 490.02 256.54 489.85 256.37 L 489.62 256.76 C 484.88 257.27 480.31 259.48 477.95 263.80 C 471.43 263.67 464.98 262.55 458.49 262.08 C 460.51 268.44 462.43 274.84 464.35 281.25 C 465.48 281.45 466.61 281.66 467.76 281.87 C 468.49 282.87 468.62 284.64 470.04 285.00 C 473.64 286.33 477.53 286.56 481.31 287.08 C 481.21 290.42 481.24 293.79 480.46 297.06 C 478.60 305.20 477.52 313.50 475.84 321.67 L 476.62 322.04 C 475.94 329.03 475.12 336.01 473.50 342.86 C 471.98 352.06 470.22 361.23 468.22 370.34 C 458.57 369.39 448.84 369.45 439.15 369.47 C 439.22 358.30 439.48 347.14 439.60 335.97 C 439.77 325.14 440.69 314.31 440.07 303.49 C 440.52 299.99 439.95 296.49 439.77 293.00 C 439.48 287.78 440.69 282.61 440.34 277.40 C 440.97 275.01 440.86 272.51 440.98 270.07 C 443.45 273.78 443.94 278.29 445.64 282.32 C 448.80 288.02 452.99 293.07 456.56 298.51 L 456.22 298.68 C 456.74 298.89 457.78 299.32 458.29 299.54 C 460.09 303.08 462.67 306.82 466.89 307.53 C 467.40 306.46 467.92 305.40 468.46 304.34 C 466.89 302.18 465.26 300.08 463.56 298.03 C 464.69 297.49 465.83 296.95 466.97 296.43 C 465.13 296.24 463.30 295.97 461.49 295.60 C 457.51 289.14 452.66 283.01 450.56 275.61 C 448.70 269.32 446.95 263.00 445.26 256.66 C 441.84 254.01 437.64 252.73 433.51 251.69 C 431.44 250.05 431.16 247.36 430.60 244.97 C 430.90 244.34 431.20 243.72 431.51 243.10 C 433.38 239.52 435.17 235.27 433.80 231.22 C 433.36 229.50 431.42 229.34 430.00 228.98 C 426.66 228.50 422.82 228.90 420.22 231.24 C 419.12 232.23 419.08 234.25 420.44 235.05 C 419.10 240.19 419.26 246.50 423.59 250.22 C 423.65 250.66 423.77 251.55 423.83 251.99 C 419.85 253.02 415.38 253.49 412.04 256.02 C 407.54 263.75 404.75 272.36 402.06 280.85 C 403.98 281.81 405.98 282.62 408.05 283.19 C 408.98 283.67 409.91 284.15 410.85 284.64 C 410.34 287.36 409.88 290.09 409.39 292.82 C 410.94 293.14 412.49 293.46 414.04 293.82 C 413.70 296.72 413.57 299.66 413.87 302.57 C 413.77 305.00 413.14 307.41 413.32 309.86 C 410.33 329.14 410.48 348.73 409.61 368.19 C 399.54 368.21 389.48 367.59 379.41 367.76 C 380.41 359.24 381.82 350.76 382.42 342.20 C 387.93 342.12 393.44 342.14 398.95 342.18 C 399.04 339.04 399.06 335.91 399.07 332.78 C 399.11 328.46 399.09 324.13 399.06 319.81 C 395.57 319.79 392.07 319.76 388.58 319.69 C 389.59 318.13 389.82 314.81 387.85 313.97 C 387.30 312.55 386.79 311.11 386.31 309.68 L 387.35 309.77 C 387.21 302.53 388.11 295.27 387.17 288.06 C 386.63 281.91 384.62 276.04 383.62 269.97 C 383.00 266.24 382.32 262.22 379.76 259.27 C 377.56 257.06 374.15 257.22 371.34 256.45 L 370.68 257.51 C 369.58 255.03 370.49 252.37 370.08 249.80 C 370.10 249.75 370.14 249.66 370.16 249.61 C 372.34 247.46 372.94 244.26 375.19 242.16 C 377.30 240.06 376.79 236.26 374.70 234.32 C 372.15 231.63 368.21 233.68 365.01 233.08 C 361.48 232.62 358.45 235.42 357.92 238.80 C 356.83 244.28 357.35 250.85 362.54 254.12 C 362.07 255.14 361.60 256.16 361.13 257.17 C 358.34 258.00 354.87 258.55 353.65 261.62 C 351.67 266.12 349.29 270.41 346.50 274.45 C 344.58 277.59 341.10 279.16 338.47 281.59 C 335.64 284.16 332.56 286.42 329.42 288.58 C 328.61 288.41 327.81 288.26 327.00 288.13 C 327.96 285.55 327.44 282.69 327.56 280.00 C 327.62 265.35 327.20 250.68 328.09 236.06 C 327.11 229.10 327.80 222.08 327.42 215.10 C 326.62 212.53 325.01 209.38 322.05 208.96 L 322.09 208.07 C 313.42 207.19 304.64 207.68 295.93 207.65 C 279.83 207.71 263.72 207.44 247.62 207.81 C 242.41 206.50 236.22 210.28 236.35 215.96 Z" />
<path fill="#fafafa" opacity="1.00" d=" M 344.62 284.70 C 348.87 281.93 351.27 277.27 354.91 273.85 C 355.55 278.22 355.93 282.64 355.68 287.06 C 355.55 290.97 354.73 295.00 356.07 298.81 C 354.16 306.93 352.01 315.00 349.91 323.07 C 348.97 326.65 349.79 330.34 349.93 333.96 C 350.58 345.24 351.24 356.53 351.62 367.83 C 344.85 367.27 338.00 367.24 331.23 367.85 C 329.06 360.81 327.81 353.54 326.64 346.28 C 328.23 331.72 326.67 317.04 327.62 302.45 C 328.59 303.02 329.58 303.58 330.59 304.12 C 332.78 306.70 334.61 310.62 338.66 309.94 C 339.53 308.19 340.43 306.45 341.35 304.73 C 339.24 302.84 336.68 301.63 334.15 300.45 C 332.69 297.90 330.64 295.78 328.59 293.72 C 329.72 293.18 330.84 292.65 331.98 292.13 C 336.43 290.08 340.59 287.48 344.62 284.70 Z" />
</g>
<g id="#f9a256ff">
<path fill="#f9a256" opacity="1.00" d=" M 236.35 215.96 C 236.22 210.28 242.41 206.50 247.62 207.81 L 248.79 209.36 C 245.16 210.63 242.21 214.02 242.53 218.04 C 242.53 271.02 242.55 324.01 242.52 376.99 C 242.27 380.85 244.00 384.78 247.55 386.55 L 248.58 387.21 L 247.64 388.27 C 244.34 387.64 240.18 388.11 238.21 384.75 C 235.14 379.83 236.18 373.66 236.20 368.14 C 236.51 317.42 236.16 266.69 236.35 215.96 Z" />
</g>
<g id="#e2b885ff">
<path fill="#e2b885" opacity="1.00" d=" M 247.62 207.81 C 263.72 207.44 279.83 207.71 295.93 207.65 L 295.93 209.57 C 280.22 209.36 264.49 209.82 248.79 209.36 L 247.62 207.81 Z" />
</g>
<g id="#eacb8bff">
<path fill="#eacb8b" opacity="1.00" d=" M 295.93 207.65 C 304.64 207.68 313.42 207.19 322.09 208.07 L 322.05 208.96 L 321.97 210.36 C 313.38 208.80 304.60 209.99 295.93 209.57 L 295.93 207.65 Z" />
</g>
<g id="#fff6feff">
<path fill="#fff6fe" opacity="1.00" d=" M 248.79 209.36 C 264.49 209.82 280.22 209.36 295.93 209.57 C 304.60 209.99 313.38 208.80 321.97 210.36 C 323.16 212.77 324.96 215.09 324.63 217.95 C 324.56 241.75 324.68 265.55 324.55 289.35 C 317.61 282.98 315.31 273.45 310.17 265.84 C 308.19 264.22 305.73 263.37 303.46 262.26 C 302.20 261.65 300.92 261.08 299.66 260.49 C 299.98 261.92 300.29 263.35 300.61 264.78 C 300.09 265.88 299.57 266.98 299.05 268.09 C 298.81 267.70 298.34 266.94 298.11 266.55 C 297.49 265.50 296.78 264.50 295.99 263.57 C 295.79 264.51 295.61 265.46 295.43 266.42 C 295.10 268.07 294.72 269.72 294.42 271.39 C 292.70 267.44 290.60 263.48 287.38 260.56 C 285.23 260.01 283.01 261.36 281.03 262.11 C 278.33 263.07 277.37 265.97 276.20 268.31 C 272.30 277.01 268.26 285.66 264.35 294.36 C 263.15 297.12 261.26 299.76 261.15 302.86 C 261.69 304.43 263.54 304.87 264.98 305.24 C 267.96 303.32 268.99 299.64 270.62 296.67 C 273.45 290.21 276.41 283.61 281.47 278.54 C 281.67 278.56 282.07 278.58 282.27 278.59 C 282.93 282.68 283.01 286.86 282.83 291.00 C 282.50 297.64 279.41 303.68 277.90 310.05 C 277.04 312.75 280.20 314.17 281.60 315.98 C 280.01 324.55 280.84 333.73 276.78 341.69 C 272.54 352.12 267.63 362.36 263.35 372.70 C 266.14 377.89 272.03 383.46 278.36 380.55 C 275.84 377.41 272.88 374.63 270.56 371.32 C 277.10 361.73 282.86 351.61 288.21 341.32 C 290.89 333.65 293.48 325.93 296.52 318.37 C 301.18 322.11 304.60 327.09 308.25 331.76 C 310.60 334.81 312.93 337.95 314.20 341.64 C 318.20 352.66 321.95 363.77 325.51 374.94 C 325.87 378.40 325.48 382.30 322.69 384.73 C 320.73 386.89 317.64 386.58 315.01 386.66 C 292.52 386.51 270.03 386.81 247.55 386.55 C 244.00 384.78 242.27 380.85 242.52 376.99 C 242.55 324.01 242.53 271.02 242.53 218.04 C 242.21 214.02 245.16 210.63 248.79 209.36 M 297.17 235.19 C 292.99 240.06 291.11 246.76 292.54 253.06 C 293.16 256.23 293.67 259.43 294.53 262.55 C 298.11 264.17 296.96 258.37 299.09 256.93 C 303.17 252.99 302.58 246.85 302.24 241.69 C 302.50 240.18 302.72 238.67 302.92 237.15 C 301.00 236.51 299.08 235.85 297.17 235.19 M 260.71 308.38 C 260.53 309.50 260.31 310.59 260.08 311.71 C 259.47 310.63 258.93 309.53 258.47 308.40 C 258.11 308.56 257.37 308.90 257.00 309.07 C 255.76 308.77 254.52 308.47 253.28 308.18 C 251.08 313.29 249.08 318.52 247.41 323.82 C 249.86 329.10 254.02 333.53 258.15 337.60 C 259.32 336.24 260.26 334.69 260.78 332.97 C 262.55 327.65 264.47 322.38 266.21 317.05 C 264.88 315.95 263.48 314.90 262.36 313.58 C 262.64 311.43 263.73 309.34 262.85 307.17 C 262.13 307.57 261.42 307.97 260.71 308.38 Z" />
</g>
<g id="#f0dfb8ff">
<path fill="#f0dfb8" opacity="1.00" d=" M 322.05 208.96 C 325.01 209.38 326.62 212.53 327.42 215.10 C 327.80 222.08 327.11 229.10 328.09 236.06 C 327.20 250.68 327.62 265.35 327.56 280.00 C 327.44 282.69 327.96 285.55 327.00 288.13 C 326.50 288.88 325.99 289.63 325.48 290.38 C 325.25 290.12 324.78 289.61 324.55 289.35 C 324.68 265.55 324.56 241.75 324.63 217.95 C 324.96 215.09 323.16 212.77 321.97 210.36 L 322.05 208.96 Z" />
</g>
<g id="#243245ff">
<path fill="#243245" opacity="1.00" d=" M 420.22 231.24 C 422.82 228.90 426.66 228.50 430.00 228.98 C 431.42 229.34 433.36 229.50 433.80 231.22 C 435.17 235.27 433.38 239.52 431.51 243.10 C 431.07 241.11 431.28 239.09 431.58 237.11 C 431.09 237.16 430.11 237.26 429.62 237.31 C 428.93 238.52 428.26 239.75 427.59 240.97 C 427.71 239.38 427.87 237.77 427.74 236.18 C 425.39 235.38 422.86 235.44 420.44 235.05 C 419.08 234.25 419.12 232.23 420.22 231.24 Z" />
</g>
<g id="#e6744fff">
<path fill="#e6744f" opacity="1.00" d=" M 494.62 232.58 C 496.25 230.12 498.97 228.26 502.05 228.59 C 505.27 229.52 506.82 232.92 507.22 236.00 C 506.64 241.65 503.05 246.68 503.50 252.50 C 504.42 252.52 506.25 252.57 507.16 252.60 C 505.59 256.79 500.04 254.27 500.69 250.34 C 500.71 249.20 500.78 248.06 500.84 246.93 C 496.62 246.64 495.29 242.01 493.27 239.04 C 491.42 240.12 489.68 241.38 488.05 242.77 C 487.95 242.04 487.75 240.58 487.65 239.85 C 487.99 236.07 491.09 233.42 494.62 232.58 M 496.62 233.21 C 497.24 234.41 499.40 235.54 500.82 235.55 C 501.46 233.46 498.15 232.05 496.62 233.21 Z" />
</g>
<g id="#272d3cff">
<path fill="#272d3c" opacity="1.00" d=" M 357.92 238.80 C 358.45 235.42 361.48 232.62 365.01 233.08 C 368.21 233.68 372.15 231.63 374.70 234.32 C 376.79 236.26 377.30 240.06 375.19 242.16 C 372.94 244.26 372.34 247.46 370.16 249.61 C 369.92 247.35 369.77 245.09 369.68 242.83 C 368.74 243.45 367.83 244.09 366.93 244.75 C 363.84 242.89 361.04 240.59 357.92 238.80 Z" />
</g>
<g id="#fdad8fff">
<path fill="#fdad8f" opacity="1.00" d=" M 496.62 233.21 C 498.15 232.05 501.46 233.46 500.82 235.55 C 499.40 235.54 497.24 234.41 496.62 233.21 Z" />
</g>
<g id="#3d4144ff">
<path fill="#3d4144" opacity="1.00" d=" M 197.40 237.09 C 200.39 235.01 204.71 234.60 208.03 236.05 C 211.58 238.00 211.87 242.50 211.83 246.09 C 210.50 245.01 209.17 243.94 207.85 242.87 C 205.64 245.88 203.20 248.73 200.37 251.18 C 201.26 253.56 201.74 256.06 201.93 258.58 C 201.36 258.77 200.20 259.13 199.62 259.32 C 197.14 259.96 195.22 261.69 193.39 263.39 C 194.02 259.82 196.64 256.76 196.57 253.08 C 195.06 248.03 193.28 241.37 197.40 237.09 Z" />
<path fill="#3d4144" opacity="1.00" d=" M 303.42 282.36 C 305.95 275.76 303.50 268.98 303.46 262.26 C 305.73 263.37 308.19 264.22 310.17 265.84 C 315.31 273.45 317.61 282.98 324.55 289.35 C 324.78 289.61 325.25 290.12 325.48 290.38 C 326.50 291.50 327.53 292.62 328.59 293.72 C 330.64 295.78 332.69 297.90 334.15 300.45 C 332.94 301.66 331.75 302.88 330.59 304.12 C 329.58 303.58 328.59 303.02 327.62 302.45 C 326.82 301.73 326.05 300.97 325.29 300.22 C 322.26 297.09 319.17 294.02 316.09 290.94 C 312.93 287.87 311.49 283.59 309.56 279.73 C 308.95 283.48 308.07 287.25 308.29 291.07 C 308.92 299.58 311.73 307.69 313.41 316.01 C 312.69 315.93 311.24 315.78 310.52 315.71 C 309.77 311.58 307.71 307.92 305.57 304.38 C 305.03 305.04 304.50 305.71 303.97 306.38 C 301.57 306.34 299.11 306.33 296.84 305.44 C 299.35 305.67 301.36 304.24 303.20 302.74 C 303.99 302.86 305.58 303.10 306.38 303.22 C 305.19 296.30 303.88 289.38 303.42 282.36 Z" />
<path fill="#3d4144" opacity="1.00" d=" M 294.79 273.58 C 296.32 281.81 294.12 290.21 292.53 298.28 C 292.12 289.96 294.18 281.83 294.79 273.58 Z" />
</g>
<g id="#e4d1cdff">
<path fill="#e4d1cd" opacity="1.00" d=" M 297.17 235.19 C 299.08 235.85 301.00 236.51 302.92 237.15 C 302.72 238.67 302.50 240.18 302.24 241.69 C 299.64 241.51 297.05 241.39 294.45 241.29 C 293.56 245.17 292.69 249.07 292.54 253.06 C 291.11 246.76 292.99 240.06 297.17 235.19 Z" />
</g>
<g id="#eca887ff">
<path fill="#eca887" opacity="1.00" d=" M 420.44 235.05 C 422.86 235.44 425.39 235.38 427.74 236.18 C 427.87 237.77 427.71 239.38 427.59 240.97 C 428.26 239.75 428.93 238.52 429.62 237.31 C 430.11 237.26 431.09 237.16 431.58 237.11 C 431.28 239.09 431.07 241.11 431.51 243.10 C 431.20 243.72 430.90 244.34 430.60 244.97 C 431.16 247.36 431.44 250.05 433.51 251.69 C 431.02 253.96 428.36 256.03 425.64 258.01 C 424.79 256.09 424.09 254.09 423.83 251.99 C 423.77 251.55 423.65 250.66 423.59 250.22 C 419.26 246.50 419.10 240.19 420.44 235.05 Z" />
<path fill="#eca887" opacity="1.00" d=" M 357.92 238.80 C 361.04 240.59 363.84 242.89 366.93 244.75 C 367.83 244.09 368.74 243.45 369.68 242.83 C 369.77 245.09 369.92 247.35 370.16 249.61 C 370.14 249.66 370.10 249.75 370.08 249.80 C 368.91 251.71 369.08 253.96 369.10 256.11 C 367.30 258.20 365.38 260.19 363.37 262.08 C 362.62 259.76 362.73 257.33 362.94 254.94 C 364.21 255.35 367.18 255.02 366.62 253.13 C 365.28 252.25 363.76 253.52 362.84 254.42 L 362.54 254.12 C 357.35 250.85 356.83 244.28 357.92 238.80 Z" />
<path fill="#eca887" opacity="1.00" d=" M 476.62 322.04 C 479.84 323.66 483.37 324.52 486.94 324.99 C 485.72 328.63 483.97 332.06 482.63 335.65 C 480.86 340.25 481.42 345.34 479.75 349.96 C 477.78 356.15 474.69 361.91 472.43 367.98 C 471.56 370.88 471.20 374.02 469.61 376.66 C 468.32 377.56 466.66 377.07 465.21 377.19 C 466.71 375.15 467.88 372.88 468.22 370.34 C 470.22 361.23 471.98 352.06 473.50 342.86 C 475.12 336.01 475.94 329.03 476.62 322.04 Z" />
</g>
<g id="#3d3b41ff">
<path fill="#3d3b41" opacity="1.00" d=" M 122.08 240.01 C 126.63 233.38 139.54 236.66 138.71 245.29 L 137.76 245.65 C 135.31 246.61 132.80 247.36 130.25 247.99 C 129.30 247.31 128.35 246.63 127.40 245.96 C 127.32 250.33 127.35 254.71 127.04 259.08 C 126.24 265.04 123.48 270.51 119.63 275.08 C 119.62 276.41 119.61 277.75 119.60 279.09 C 119.38 278.10 119.17 277.11 118.96 276.13 C 117.47 276.57 115.97 277.00 114.50 277.51 C 112.57 275.03 111.85 271.49 113.75 268.78 C 116.33 265.21 119.34 261.65 119.86 257.10 C 121.26 251.49 118.79 245.12 122.08 240.01 Z" />
</g>
<g id="#eea886ff">
<path fill="#eea886" opacity="1.00" d=" M 488.05 242.77 C 489.68 241.38 491.42 240.12 493.27 239.04 C 495.29 242.01 496.62 246.64 500.84 246.93 C 500.78 248.06 500.71 249.20 500.69 250.34 C 500.42 249.71 499.87 248.45 499.59 247.83 C 497.02 249.67 497.23 252.93 496.80 255.73 C 495.33 258.12 493.12 259.90 490.82 261.45 C 490.69 259.99 490.60 258.52 490.55 257.06 C 490.90 256.50 491.59 255.37 491.93 254.81 C 493.55 254.56 495.11 253.81 495.84 252.26 C 494.40 252.14 493.00 252.55 491.81 253.32 C 490.45 253.33 489.59 252.02 488.95 251.01 C 487.17 247.60 486.74 243.57 487.65 239.85 C 487.75 240.58 487.95 242.04 488.05 242.77 Z" />
</g>
<g id="#eca888ff">
<path fill="#eca888" opacity="1.00" d=" M 294.45 241.29 C 297.05 241.39 299.64 241.51 302.24 241.69 C 302.58 246.85 303.17 252.99 299.09 256.93 C 296.96 258.37 298.11 264.17 294.53 262.55 C 293.67 259.43 293.16 256.23 292.54 253.06 C 292.69 249.07 293.56 245.17 294.45 241.29 M 296.27 257.25 C 296.79 257.72 296.79 257.72 296.27 257.25 Z" />
<path fill="#eca888" opacity="1.00" d=" M 495.28 325.71 C 498.12 325.60 500.97 325.60 503.82 325.71 C 503.52 330.79 503.46 335.88 503.46 340.97 C 503.46 349.93 501.23 358.74 501.17 367.69 C 500.89 367.84 500.33 368.13 500.04 368.27 C 500.49 369.89 500.55 371.52 500.22 373.16 C 500.16 376.49 497.08 377.78 494.16 377.35 C 495.12 375.39 496.20 373.50 497.12 371.52 C 498.46 366.43 497.18 361.16 496.89 356.02 C 495.80 345.94 495.98 335.81 495.28 325.71 Z" />
</g>
<g id="#eba786ff">
<path fill="#eba786" opacity="1.00" d=" M 200.37 251.18 C 203.20 248.73 205.64 245.88 207.85 242.87 C 209.17 243.94 210.50 245.01 211.83 246.09 C 212.02 250.33 210.84 254.33 208.43 257.82 C 208.71 258.22 209.26 259.03 209.53 259.44 C 210.22 261.30 210.63 263.24 211.04 265.18 C 206.47 265.09 202.70 262.47 199.62 259.32 C 200.20 259.13 201.36 258.77 201.93 258.58 C 201.74 256.06 201.26 253.56 200.37 251.18 Z" />
<path fill="#eba786" opacity="1.00" d=" M 127.40 245.96 C 128.35 246.63 129.30 247.31 130.25 247.99 C 132.80 247.36 135.31 246.61 137.76 245.65 C 137.79 248.10 137.82 250.55 137.85 253.00 C 136.14 255.16 134.58 258.30 131.30 257.44 C 130.68 258.57 130.06 259.70 129.45 260.83 C 128.65 260.23 127.85 259.65 127.04 259.08 C 127.35 254.71 127.32 250.33 127.40 245.96 Z" />
</g>
<g id="#ebdad3ff">
<path fill="#ebdad3" opacity="1.00" d=" M 369.10 256.11 C 369.08 253.96 368.91 251.71 370.08 249.80 C 370.49 252.37 369.58 255.03 370.68 257.51 C 368.91 260.88 365.53 263.86 365.93 267.98 C 366.39 277.37 367.39 286.73 368.64 296.04 C 365.45 295.97 362.27 295.88 359.09 295.71 C 358.49 287.49 357.56 279.25 358.19 271.01 C 358.63 266.32 358.77 261.38 361.13 257.17 C 361.60 256.16 362.07 255.14 362.54 254.12 L 362.84 254.42 L 362.94 254.94 C 362.73 257.33 362.62 259.76 363.37 262.08 C 365.38 260.19 367.30 258.20 369.10 256.11 Z" />
</g>
<g id="#f54243ff">
<path fill="#f54243" opacity="1.00" d=" M 412.04 256.02 C 415.38 253.49 419.85 253.02 423.83 251.99 C 424.09 254.09 424.79 256.09 425.64 258.01 C 428.36 256.03 431.02 253.96 433.51 251.69 C 437.64 252.73 441.84 254.01 445.26 256.66 C 446.95 263.00 448.70 269.32 450.56 275.61 C 452.66 283.01 457.51 289.14 461.49 295.60 C 459.93 296.70 458.29 297.69 456.56 298.51 C 452.99 293.07 448.80 288.02 445.64 282.32 C 443.94 278.29 443.45 273.78 440.98 270.07 C 440.86 272.51 440.97 275.01 440.34 277.40 C 437.90 285.28 440.62 293.71 438.85 301.67 C 437.06 303.94 433.67 304.28 430.99 305.02 C 425.15 306.44 419.35 304.41 413.87 302.57 C 413.57 299.66 413.70 296.72 414.04 293.82 C 417.72 294.72 421.44 295.49 425.23 295.66 C 425.61 293.50 426.02 291.34 426.53 289.21 C 427.68 287.36 428.82 285.43 427.81 283.23 C 428.44 279.25 429.36 275.31 429.73 271.28 C 424.60 270.36 419.45 269.50 414.38 268.29 C 413.68 270.02 412.99 271.75 412.26 273.47 C 411.97 273.81 411.38 274.49 411.09 274.83 C 409.64 275.83 409.63 278.48 411.82 278.37 C 415.49 280.16 419.20 281.99 423.23 282.85 C 422.86 284.32 422.51 285.81 422.10 287.27 C 421.73 287.53 420.99 288.05 420.62 288.31 C 418.34 287.65 416.17 286.68 414.03 285.67 C 412.14 284.62 410.15 283.74 408.05 283.19 C 405.98 282.62 403.98 281.81 402.06 280.85 C 404.75 272.36 407.54 263.75 412.04 256.02 M 433.43 264.29 C 433.34 265.72 435.87 265.52 436.59 264.73 C 436.70 263.27 434.13 263.49 433.43 264.29 Z" />
</g>
<g id="#cd9173ff">
<path fill="#cd9173" opacity="1.00" d=" M 491.81 253.32 C 493.00 252.55 494.40 252.14 495.84 252.26 C 495.11 253.81 493.55 254.56 491.93 254.81 C 491.90 254.44 491.84 253.69 491.81 253.32 Z" />
</g>
<g id="#cd8f71ff">
<path fill="#cd8f71" opacity="1.00" d=" M 362.84 254.42 C 363.76 253.52 365.28 252.25 366.62 253.13 C 367.18 255.02 364.21 255.35 362.94 254.94 L 362.84 254.42 Z" />
</g>
<g id="#ecdad4ff">
<path fill="#ecdad4" opacity="1.00" d=" M 489.85 256.37 C 490.02 256.54 490.37 256.89 490.55 257.06 C 490.60 258.52 490.69 259.99 490.82 261.45 C 493.12 259.90 495.33 258.12 496.80 255.73 L 497.40 257.17 C 496.80 259.98 495.64 262.79 493.19 264.48 C 491.82 268.23 491.71 272.25 491.50 276.19 C 489.60 276.28 487.70 276.38 485.80 276.48 C 485.79 271.26 487.15 266.22 488.65 261.27 C 487.98 261.58 486.63 262.19 485.96 262.49 C 487.25 260.63 488.48 258.72 489.62 256.76 L 489.85 256.37 Z" />
</g>
<g id="#ae745aff">
<path fill="#ae745a" opacity="1.00" d=" M 296.27 257.25 C 296.79 257.72 296.79 257.72 296.27 257.25 Z" />
</g>
<g id="#295072ff">
<path fill="#295072" opacity="1.00" d=" M 353.65 261.62 C 354.87 258.55 358.34 258.00 361.13 257.17 C 358.77 261.38 358.63 266.32 358.19 271.01 C 357.56 279.25 358.49 287.49 359.09 295.71 C 359.07 296.38 359.04 297.73 359.02 298.40 C 358.03 298.52 357.05 298.66 356.07 298.81 C 354.73 295.00 355.55 290.97 355.68 287.06 C 355.93 282.64 355.55 278.22 354.91 273.85 C 351.27 277.27 348.87 281.93 344.62 284.70 C 340.59 287.48 336.43 290.08 331.98 292.13 C 331.14 290.93 330.27 289.75 329.42 288.58 C 332.56 286.42 335.64 284.16 338.47 281.59 C 341.10 279.16 344.58 277.59 346.50 274.45 C 349.29 270.41 351.67 266.12 353.65 261.62 Z" />
</g>
<g id="#295173ff">
<path fill="#295173" opacity="1.00" d=" M 370.68 257.51 L 371.34 256.45 C 374.15 257.22 377.56 257.06 379.76 259.27 C 382.32 262.22 383.00 266.24 383.62 269.97 C 384.62 276.04 386.63 281.91 387.17 288.06 C 388.11 295.27 387.21 302.53 387.35 309.77 L 386.31 309.68 C 384.50 309.52 382.70 309.28 380.91 309.02 C 381.03 308.03 381.15 307.04 381.24 306.04 C 381.76 299.73 381.98 293.32 380.87 287.07 C 379.96 282.85 378.69 278.73 377.42 274.62 C 373.89 281.68 377.67 289.40 380.36 296.06 L 380.48 297.12 C 377.85 298.52 375.09 300.26 372.00 300.09 C 369.79 300.12 369.41 297.59 368.64 296.04 C 367.39 286.73 366.39 277.37 365.93 267.98 C 365.53 263.86 368.91 260.88 370.68 257.51 Z" />
</g>
<g id="#494f7eff">
<path fill="#494f7e" opacity="1.00" d=" M 477.95 263.80 C 480.31 259.48 484.88 257.27 489.62 256.76 C 488.48 258.72 487.25 260.63 485.96 262.49 C 486.63 262.19 487.98 261.58 488.65 261.27 C 487.15 266.22 485.79 271.26 485.80 276.48 C 485.14 277.09 484.48 277.70 483.83 278.31 C 482.71 274.33 481.63 270.33 480.45 266.37 C 480.20 265.04 479.20 264.16 477.95 263.80 Z" />
</g>
<g id="#494f81ff">
<path fill="#494f81" opacity="1.00" d=" M 497.40 257.17 C 500.79 257.93 505.51 258.22 506.67 262.18 C 508.71 268.26 509.59 274.70 509.82 281.10 C 506.98 281.28 504.14 281.18 501.32 280.96 C 501.49 285.63 503.29 289.99 504.21 294.52 C 501.33 293.94 498.43 294.38 495.62 295.03 C 495.40 294.34 495.19 293.64 494.99 292.95 C 494.02 289.62 493.34 286.20 492.89 282.76 C 493.17 282.59 493.71 282.25 493.99 282.09 C 490.92 282.51 487.89 283.17 484.92 284.01 C 484.76 283.11 484.61 282.22 484.45 281.33 C 486.50 280.87 488.56 280.42 490.62 280.01 C 490.91 278.73 491.24 277.47 491.50 276.19 C 491.71 272.25 491.82 268.23 493.19 264.48 C 495.64 262.79 496.80 259.98 497.40 257.17 M 503.06 275.15 C 501.62 278.22 506.35 275.19 503.06 275.15 Z" />
</g>
<g id="#5b94e2ff">
<path fill="#5b94e2" opacity="1.00" d=" M 127.04 259.08 C 127.85 259.65 128.65 260.23 129.45 260.83 C 132.59 264.02 135.34 267.62 137.77 271.38 C 140.41 275.25 135.38 278.35 135.07 282.17 C 134.01 281.00 132.88 279.92 131.74 278.85 C 131.79 281.96 133.22 284.69 135.30 286.93 C 137.41 290.74 139.34 294.66 141.54 298.43 C 141.55 298.85 141.55 299.69 141.55 300.11 C 140.50 300.69 139.44 301.26 138.37 301.81 C 136.98 300.24 135.64 298.64 134.32 297.01 C 134.07 299.18 133.81 301.35 133.63 303.54 C 127.24 304.47 120.58 303.43 115.28 299.59 C 115.59 295.27 118.04 291.59 119.79 287.76 C 121.17 285.02 120.50 281.87 120.29 278.95 C 114.62 285.94 114.20 295.27 112.31 303.69 C 110.64 303.61 108.97 303.53 107.31 303.45 C 107.31 302.94 107.31 301.92 107.31 301.40 C 108.45 294.26 109.88 287.12 112.56 280.37 C 113.13 279.41 113.23 277.79 114.50 277.51 C 115.97 277.00 117.47 276.57 118.96 276.13 C 119.17 277.11 119.38 278.10 119.60 279.09 C 119.61 277.75 119.62 276.41 119.63 275.08 C 123.48 270.51 126.24 265.04 127.04 259.08 Z" />
</g>
<g id="#f44343ff">
<path fill="#f44343" opacity="1.00" d=" M 193.39 263.39 C 195.22 261.69 197.14 259.96 199.62 259.32 C 202.70 262.47 206.47 265.09 211.04 265.18 C 210.63 263.24 210.22 261.30 209.53 259.44 C 214.31 261.38 215.95 266.50 217.47 270.95 C 217.30 271.66 216.98 273.08 216.81 273.79 C 216.35 275.27 215.87 276.75 215.49 278.25 C 215.43 275.70 215.18 273.14 214.69 270.64 C 214.10 270.62 212.92 270.58 212.33 270.57 C 208.39 270.41 204.45 270.28 200.50 270.30 C 200.33 274.15 200.94 278.32 198.81 281.77 C 198.14 279.93 197.43 278.12 196.72 276.32 C 197.83 273.86 198.53 271.24 199.05 268.59 C 197.23 268.08 195.41 267.57 193.59 267.07 C 193.54 265.84 193.47 264.61 193.39 263.39 Z" />
</g>
<g id="#b6d6fbff">
<path fill="#b6d6fb" opacity="1.00" d=" M 281.03 262.11 C 283.01 261.36 285.23 260.01 287.38 260.56 C 290.60 263.48 292.70 267.44 294.42 271.39 C 294.51 271.93 294.70 273.03 294.79 273.58 C 294.18 281.83 292.12 289.96 292.53 298.28 C 292.53 299.22 292.55 300.17 292.60 301.12 C 292.80 303.81 293.20 306.49 293.75 309.14 C 294.35 312.30 295.34 315.37 296.52 318.37 C 293.48 325.93 290.89 333.65 288.21 341.32 C 282.86 351.61 277.10 361.73 270.56 371.32 C 272.88 374.63 275.84 377.41 278.36 380.55 C 272.03 383.46 266.14 377.89 263.35 372.70 C 267.63 362.36 272.54 352.12 276.78 341.69 C 280.84 333.73 280.01 324.55 281.60 315.98 C 280.20 314.17 277.04 312.75 277.90 310.05 C 279.41 303.68 282.50 297.64 282.83 291.00 C 283.01 286.86 282.93 282.68 282.27 278.59 C 282.07 278.58 281.67 278.56 281.47 278.54 C 276.41 283.61 273.45 290.21 270.62 296.67 C 268.99 299.64 267.96 303.32 264.98 305.24 C 263.54 304.87 261.69 304.43 261.15 302.86 C 261.26 299.76 263.15 297.12 264.35 294.36 C 268.26 285.66 272.30 277.01 276.20 268.31 C 277.37 265.97 278.33 263.07 281.03 262.11 Z" />
</g>
<g id="#545559ff">
<path fill="#545559" opacity="1.00" d=" M 299.66 260.49 C 300.92 261.08 302.20 261.65 303.46 262.26 C 303.50 268.98 305.95 275.76 303.42 282.36 C 302.56 276.49 301.90 270.58 300.61 264.78 C 300.29 263.35 299.98 261.92 299.66 260.49 Z" />
</g>
<g id="#24273fff">
<path fill="#24273f" opacity="1.00" d=" M 458.49 262.08 C 464.98 262.55 471.43 263.67 477.95 263.80 C 479.20 264.16 480.20 265.04 480.45 266.37 C 481.63 270.33 482.71 274.33 483.83 278.31 C 483.99 279.07 484.30 280.58 484.45 281.33 C 484.61 282.22 484.76 283.11 484.92 284.01 C 487.89 283.17 490.92 282.51 493.99 282.09 C 493.71 282.25 493.17 282.59 492.89 282.76 C 489.59 283.91 486.08 285.81 482.51 284.65 C 477.64 283.47 472.69 282.71 467.76 281.87 C 466.61 281.66 465.48 281.45 464.35 281.25 C 462.43 274.84 460.51 268.44 458.49 262.08 Z" />
</g>
<g id="#474055ff">
<path fill="#474055" opacity="1.00" d=" M 295.99 263.57 C 296.78 264.50 297.49 265.50 298.11 266.55 C 299.93 276.20 302.14 286.05 300.51 295.90 C 299.91 297.97 297.68 298.91 296.17 300.24 C 295.78 298.09 295.24 295.89 295.76 293.72 C 297.69 284.77 298.14 275.26 295.43 266.42 C 295.61 265.46 295.79 264.51 295.99 263.57 Z" />
</g>
<g id="#ff9192ff">
<path fill="#ff9192" opacity="1.00" d=" M 433.43 264.29 C 434.13 263.49 436.70 263.27 436.59 264.73 C 435.87 265.52 433.34 265.72 433.43 264.29 Z" />
</g>
<g id="#dacbc7ff">
<path fill="#dacbc7" opacity="1.00" d=" M 300.61 264.78 C 301.90 270.58 302.56 276.49 303.42 282.36 C 303.88 289.38 305.19 296.30 306.38 303.22 C 305.58 303.10 303.99 302.86 303.20 302.74 C 299.67 302.16 296.14 301.61 292.60 301.12 C 292.55 300.17 292.53 299.22 292.53 298.28 C 294.12 290.21 296.32 281.81 294.79 273.58 C 294.70 273.03 294.51 271.93 294.42 271.39 C 294.72 269.72 295.10 268.07 295.43 266.42 C 298.14 275.26 297.69 284.77 295.76 293.72 C 295.24 295.89 295.78 298.09 296.17 300.24 C 297.68 298.91 299.91 297.97 300.51 295.90 C 302.14 286.05 299.93 276.20 298.11 266.55 C 298.34 266.94 298.81 267.70 299.05 268.09 C 299.57 266.98 300.09 265.88 300.61 264.78 Z" />
</g>
<g id="#eaa98aff">
<path fill="#eaa98a" opacity="1.00" d=" M 193.59 267.07 C 195.41 267.57 197.23 268.08 199.05 268.59 C 198.53 271.24 197.83 273.86 196.72 276.32 C 196.00 278.06 195.09 279.82 195.22 281.77 C 196.47 282.63 197.94 283.09 199.36 283.61 C 202.87 285.34 206.47 284.09 209.63 282.24 L 209.23 284.13 L 209.00 285.03 C 210.66 285.06 212.33 285.10 214.00 285.13 C 213.76 286.32 213.49 287.50 213.23 288.69 C 208.55 288.23 203.88 287.66 199.20 287.20 C 199.27 288.29 199.39 290.46 199.45 291.55 C 199.04 290.29 198.64 289.03 198.17 287.80 C 195.92 285.95 190.96 287.78 190.33 283.81 C 190.20 278.09 192.42 272.61 193.59 267.07 Z" />
</g>
<g id="#665754ff">
<path fill="#665754" opacity="1.00" d=" M 414.38 268.29 C 419.45 269.50 424.60 270.36 429.73 271.28 C 429.36 275.31 428.44 279.25 427.81 283.23 C 427.66 282.91 427.36 282.26 427.20 281.94 C 427.30 278.79 428.05 275.72 428.62 272.64 C 423.81 272.36 419.04 271.53 414.50 269.91 C 414.23 270.48 413.69 271.61 413.43 272.17 C 413.14 272.50 412.56 273.14 412.26 273.47 C 412.99 271.75 413.68 270.02 414.38 268.29 Z" />
<path fill="#665754" opacity="1.00" d=" M 408.05 283.19 C 410.15 283.74 412.14 284.62 414.03 285.67 C 413.40 285.47 412.13 285.08 411.50 284.89 C 411.21 287.20 410.86 289.50 410.59 291.82 C 415.19 292.61 419.77 293.50 424.35 294.43 C 424.77 292.51 425.18 290.60 425.59 288.69 L 426.53 289.21 C 426.02 291.34 425.61 293.50 425.23 295.66 C 421.44 295.49 417.72 294.72 414.04 293.82 C 412.49 293.46 410.94 293.14 409.39 292.82 C 409.88 290.09 410.34 287.36 410.85 284.64 C 409.91 284.15 408.98 283.67 408.05 283.19 Z" />
<path fill="#665754" opacity="1.00" d=" M 91.94 321.16 C 98.53 322.97 105.25 324.31 111.99 325.45 C 111.55 328.54 110.82 331.64 109.31 334.41 C 103.31 331.83 96.42 331.33 90.05 329.61 C 90.69 326.79 91.34 323.98 91.94 321.16 Z" />
</g>
<g id="#314363ff">
<path fill="#314363" opacity="1.00" d=" M 200.50 270.30 C 204.45 270.28 208.39 270.41 212.33 270.57 C 210.82 270.84 209.31 271.14 207.82 271.45 C 209.60 271.87 211.46 272.13 213.13 272.94 C 213.55 276.17 213.54 279.53 212.67 282.69 C 211.56 283.26 210.37 283.64 209.23 284.13 L 209.63 282.24 C 206.47 284.09 202.87 285.34 199.36 283.61 C 199.22 283.15 198.95 282.23 198.81 281.77 C 200.94 278.32 200.33 274.15 200.50 270.30 Z" />
</g>
<g id="#e1cdc9ff">
<path fill="#e1cdc9" opacity="1.00" d=" M 414.50 269.91 C 419.04 271.53 423.81 272.36 428.62 272.64 C 428.05 275.72 427.30 278.79 427.20 281.94 C 425.88 282.27 424.56 282.59 423.23 282.85 C 419.20 281.99 415.49 280.16 411.82 278.37 C 412.32 277.02 412.07 275.84 411.09 274.83 C 411.38 274.49 411.97 273.81 412.26 273.47 C 412.56 273.14 413.14 272.50 413.43 272.17 C 413.69 271.61 414.23 270.48 414.50 269.91 Z" />
</g>
<g id="#593b4fff">
<path fill="#593b4f" opacity="1.00" d=" M 207.82 271.45 C 209.31 271.14 210.82 270.84 212.33 270.57 C 212.92 270.58 214.10 270.62 214.69 270.64 C 214.39 275.46 214.56 280.32 214.00 285.13 C 212.33 285.10 210.66 285.06 209.00 285.03 L 209.23 284.13 C 210.37 283.64 211.56 283.26 212.67 282.69 C 213.54 279.53 213.55 276.17 213.13 272.94 C 211.46 272.13 209.60 271.87 207.82 271.45 Z" />
</g>
<g id="#f64243ff">
<path fill="#f64243" opacity="1.00" d=" M 214.69 270.64 C 215.18 273.14 215.43 275.70 215.49 278.25 C 215.13 283.41 215.24 288.61 216.21 293.69 C 216.40 298.60 218.21 303.19 219.20 307.94 C 219.80 315.29 220.29 322.75 219.00 330.07 C 213.41 329.55 207.74 329.80 202.21 328.86 C 196.58 324.78 200.38 316.57 196.50 311.37 C 194.08 303.59 196.73 295.52 198.17 287.80 C 198.64 289.03 199.04 290.29 199.45 291.55 C 203.68 292.57 208.03 292.69 212.36 292.66 C 212.64 291.33 212.93 290.01 213.23 288.69 C 213.49 287.50 213.76 286.32 214.00 285.13 C 214.56 280.32 214.39 275.46 214.69 270.64 Z" />
</g>
<g id="#eda688ff">
<path fill="#eda688" opacity="1.00" d=" M 215.49 278.25 C 215.87 276.75 216.35 275.27 216.81 273.79 C 217.60 284.65 221.92 294.72 224.97 305.06 C 225.92 307.75 225.32 310.61 224.92 313.35 C 223.00 311.52 223.29 308.57 222.57 306.20 C 222.17 306.71 221.38 307.72 220.98 308.23 C 220.72 304.25 221.41 299.30 217.59 296.74 C 217.11 295.73 216.64 294.72 216.21 293.69 C 215.24 288.61 215.13 283.41 215.49 278.25 Z" />
</g>
<g id="#f6fcfeff">
<path fill="#f6fcfe" opacity="1.00" d=" M 380.36 296.06 C 377.67 289.40 373.89 281.68 377.42 274.62 C 378.69 278.73 379.96 282.85 380.87 287.07 C 381.98 293.32 381.76 299.73 381.24 306.04 C 381.25 303.05 380.83 300.08 380.48 297.12 L 380.36 296.06 Z" />
</g>
<g id="#ffd4d2ff">
<path fill="#ffd4d2" opacity="1.00" d=" M 411.09 274.83 C 412.07 275.84 412.32 277.02 411.82 278.37 C 409.63 278.48 409.64 275.83 411.09 274.83 Z" />
</g>
<g id="#c1c6ecff">
<path fill="#c1c6ec" opacity="1.00" d=" M 503.06 275.15 C 506.35 275.19 501.62 278.22 503.06 275.15 Z" />
</g>
<g id="#e4ab95ff">
<path fill="#e4ab95" opacity="1.00" d=" M 485.80 276.48 C 487.70 276.38 489.60 276.28 491.50 276.19 C 491.24 277.47 490.91 278.73 490.62 280.01 C 488.56 280.42 486.50 280.87 484.45 281.33 C 484.30 280.58 483.99 279.07 483.83 278.31 C 484.48 277.70 485.14 277.09 485.80 276.48 Z" />
</g>
<g id="#fddbceff">
<path fill="#fddbce" opacity="1.00" d=" M 195.22 281.77 C 195.09 279.82 196.00 278.06 196.72 276.32 C 197.43 278.12 198.14 279.93 198.81 281.77 C 198.95 282.23 199.22 283.15 199.36 283.61 C 197.94 283.09 196.47 282.63 195.22 281.77 Z" />
</g>
<g id="#c95f65ff">
<path fill="#c95f65" opacity="1.00" d=" M 438.85 301.67 C 440.62 293.71 437.90 285.28 440.34 277.40 C 440.69 282.61 439.48 287.78 439.77 293.00 C 439.95 296.49 440.52 299.99 440.07 303.49 C 431.80 307.19 422.39 307.00 413.92 304.08 C 413.71 306.00 413.67 307.95 413.32 309.86 C 413.14 307.41 413.77 305.00 413.87 302.57 C 419.35 304.41 425.15 306.44 430.99 305.02 C 433.67 304.28 437.06 303.94 438.85 301.67 Z" />
</g>
<g id="#4776b5ff">
<path fill="#4776b5" opacity="1.00" d=" M 131.74 278.85 C 132.88 279.92 134.01 281.00 135.07 282.17 C 135.66 283.67 135.74 285.26 135.30 286.93 C 133.22 284.69 131.79 281.96 131.74 278.85 Z" />
</g>
<g id="#f1faffff">
<path fill="#f1faff" opacity="1.00" d=" M 112.31 303.69 C 114.20 295.27 114.62 285.94 120.29 278.95 C 120.50 281.87 121.17 285.02 119.79 287.76 C 118.04 291.59 115.59 295.27 115.28 299.59 C 115.27 300.23 115.25 301.52 115.24 302.17 C 114.78 304.38 114.19 306.56 113.59 308.74 C 113.34 308.45 112.84 307.88 112.58 307.60 C 112.44 306.30 112.33 304.99 112.31 303.69 Z" />
</g>
<g id="#fef8fdff">
<path fill="#fef8fd" opacity="1.00" d=" M 308.29 291.07 C 308.07 287.25 308.95 283.48 309.56 279.73 C 311.49 283.59 312.93 287.87 316.09 290.94 C 319.17 294.02 322.26 297.09 325.29 300.22 C 323.54 312.60 325.57 325.17 324.15 337.58 C 321.33 330.03 316.87 323.25 313.41 316.01 C 311.73 307.69 308.92 299.58 308.29 291.07 Z" />
</g>
<g id="#efa687ff">
<path fill="#efa687" opacity="1.00" d=" M 423.23 282.85 C 424.56 282.59 425.88 282.27 427.20 281.94 C 427.36 282.26 427.66 282.91 427.81 283.23 C 428.82 285.43 427.68 287.36 426.53 289.21 L 425.59 288.69 C 424.45 288.16 423.29 287.68 422.10 287.27 C 422.51 285.81 422.86 284.32 423.23 282.85 Z" />
</g>
<g id="#3f446dff">
<path fill="#3f446d" opacity="1.00" d=" M 467.76 281.87 C 472.69 282.71 477.64 283.47 482.51 284.65 C 482.31 285.18 481.91 286.23 481.72 286.76 C 482.64 286.74 484.50 286.69 485.43 286.67 C 485.50 288.69 485.49 290.72 485.85 292.72 C 488.84 293.50 491.95 293.24 494.99 292.95 C 495.19 293.64 495.40 294.34 495.62 295.03 C 498.43 294.38 501.33 293.94 504.21 294.52 C 506.85 304.42 507.07 314.77 505.76 324.89 C 499.53 325.88 493.18 325.68 486.94 324.99 C 483.37 324.52 479.84 323.66 476.62 322.04 L 475.84 321.67 C 477.52 313.50 478.60 305.20 480.46 297.06 C 481.24 293.79 481.21 290.42 481.31 287.08 C 477.53 286.56 473.64 286.33 470.04 285.00 C 468.62 284.64 468.49 282.87 467.76 281.87 Z" />
</g>
<g id="#ecd9d3ff">
<path fill="#ecd9d3" opacity="1.00" d=" M 482.51 284.65 C 486.08 285.81 489.59 283.91 492.89 282.76 C 493.34 286.20 494.02 289.62 494.99 292.95 C 491.95 293.24 488.84 293.50 485.85 292.72 C 485.49 290.72 485.50 288.69 485.43 286.67 C 484.50 286.69 482.64 286.74 481.72 286.76 C 481.91 286.23 482.31 285.18 482.51 284.65 Z" />
</g>
<g id="#e1cec7ff">
<path fill="#e1cec7" opacity="1.00" d=" M 411.50 284.89 C 412.13 285.08 413.40 285.47 414.03 285.67 C 416.17 286.68 418.34 287.65 420.62 288.31 C 420.99 288.05 421.73 287.53 422.10 287.27 C 423.29 287.68 424.45 288.16 425.59 288.69 C 425.18 290.60 424.77 292.51 424.35 294.43 C 419.77 293.50 415.19 292.61 410.59 291.82 C 410.86 289.50 411.21 287.20 411.50 284.89 Z" />
</g>
<g id="#314362ff">
<path fill="#314362" opacity="1.00" d=" M 199.20 287.20 C 203.88 287.66 208.55 288.23 213.23 288.69 C 212.93 290.01 212.64 291.33 212.36 292.66 C 208.03 292.69 203.68 292.57 199.45 291.55 C 199.39 290.46 199.27 288.29 199.20 287.20 Z" />
</g>
<g id="#e2ab85ff">
<path fill="#e2ab85" opacity="1.00" d=" M 325.48 290.38 C 325.99 289.63 326.50 288.88 327.00 288.13 C 327.81 288.26 328.61 288.41 329.42 288.58 C 330.27 289.75 331.14 290.93 331.98 292.13 C 330.84 292.65 329.72 293.18 328.59 293.72 C 327.53 292.62 326.50 291.50 325.48 290.38 Z" />
</g>
<g id="#d55f60ff">
<path fill="#d55f60" opacity="1.00" d=" M 216.21 293.69 C 216.64 294.72 217.11 295.73 217.59 296.74 C 221.13 307.96 221.99 319.92 220.58 331.57 L 220.52 331.57 C 217.72 331.48 214.93 331.41 212.14 331.17 C 210.59 331.02 209.05 330.78 207.51 330.57 C 204.69 330.15 201.86 329.76 199.03 329.43 L 198.68 329.39 C 198.40 323.32 196.47 317.45 196.50 311.37 C 200.38 316.57 196.58 324.78 202.21 328.86 C 207.74 329.80 213.41 329.55 219.00 330.07 C 220.29 322.75 219.80 315.29 219.20 307.94 C 218.21 303.19 216.40 298.60 216.21 293.69 Z" />
</g>
<g id="#ebac90ff">
<path fill="#ebac90" opacity="1.00" d=" M 461.49 295.60 C 463.30 295.97 465.13 296.24 466.97 296.43 C 465.83 296.95 464.69 297.49 463.56 298.03 C 465.26 300.08 466.89 302.18 468.46 304.34 C 467.92 305.40 467.40 306.46 466.89 307.53 C 462.67 306.82 460.09 303.08 458.29 299.54 C 457.78 299.32 456.74 298.89 456.22 298.68 L 456.56 298.51 C 458.29 297.69 459.93 296.70 461.49 295.60 Z" />
</g>
<g id="#1e3b56ff">
<path fill="#1e3b56" opacity="1.00" d=" M 359.09 295.71 C 362.27 295.88 365.45 295.97 368.64 296.04 C 369.41 297.59 369.79 300.12 372.00 300.09 C 375.09 300.26 377.85 298.52 380.48 297.12 C 380.83 300.08 381.25 303.05 381.24 306.04 C 381.15 307.04 381.03 308.03 380.91 309.02 C 380.57 311.37 380.28 313.73 380.07 316.10 C 382.07 316.15 384.07 316.17 386.07 316.23 L 385.74 316.62 C 383.94 316.78 382.15 316.79 380.36 316.85 C 380.50 317.58 380.79 319.05 380.93 319.78 C 376.74 319.74 372.55 319.74 368.37 319.55 C 367.94 317.39 367.44 315.24 366.86 313.11 C 364.23 319.09 361.05 324.85 358.83 331.00 C 358.65 335.66 360.99 340.16 360.30 344.89 C 359.50 352.47 359.14 360.10 357.92 367.63 C 355.90 367.72 353.88 367.84 351.86 367.98 L 351.62 367.83 C 351.24 356.53 350.58 345.24 349.93 333.96 C 349.79 330.34 348.97 326.65 349.91 323.07 C 352.01 315.00 354.16 306.93 356.07 298.81 C 357.05 298.66 358.03 298.52 359.02 298.40 C 359.04 297.73 359.07 296.38 359.09 295.71 Z" />
</g>
<g id="#e7aa89ff">
<path fill="#e7aa89" opacity="1.00" d=" M 141.54 298.43 C 142.68 299.59 143.94 300.61 145.37 301.38 C 145.79 302.64 146.19 303.90 146.60 305.17 C 144.99 306.18 143.39 307.20 141.79 308.23 C 141.00 307.03 140.18 305.85 139.42 304.64 C 138.99 303.73 138.59 302.81 138.24 301.87 L 138.37 301.81 C 139.44 301.26 140.50 300.69 141.55 300.11 C 141.55 299.69 141.55 298.85 141.54 298.43 Z" />
</g>
<g id="#3a3d62ff">
<path fill="#3a3d62" opacity="1.00" d=" M 115.28 299.59 C 120.58 303.43 127.24 304.47 133.63 303.54 C 137.15 311.65 140.86 319.71 143.88 328.02 C 145.82 341.34 151.39 353.83 153.95 367.02 C 153.05 367.30 152.16 367.58 151.27 367.85 C 149.89 367.80 147.65 368.97 147.21 366.93 C 144.21 359.84 141.56 352.60 138.42 345.56 C 136.00 340.43 135.75 334.41 132.35 329.74 C 129.88 326.25 127.38 322.78 124.77 319.39 C 124.96 318.67 125.13 317.96 125.31 317.25 C 122.06 314.35 119.46 310.79 117.62 306.84 C 116.92 305.23 116.15 303.66 115.24 302.17 C 115.25 301.52 115.27 300.23 115.28 299.59 Z" />
</g>
<g id="#595152ff">
<path fill="#595152" opacity="1.00" d=" M 145.37 301.38 C 146.55 300.82 147.75 300.28 148.94 299.75 C 149.48 301.32 151.57 303.02 150.72 304.69 C 148.35 306.42 145.74 307.79 143.17 309.19 C 140.65 310.94 138.90 306.66 139.42 304.64 C 140.18 305.85 141.00 307.03 141.79 308.23 C 143.39 307.20 144.99 306.18 146.60 305.17 C 146.19 303.90 145.79 302.64 145.37 301.38 Z" />
</g>
<g id="#e8a98dff">
<path fill="#e8a98d" opacity="1.00" d=" M 107.31 300.93 L 107.31 301.40 C 107.31 301.92 107.31 302.94 107.31 303.45 C 108.97 303.53 110.64 303.61 112.31 303.69 C 112.33 304.99 112.44 306.30 112.58 307.60 C 112.64 308.17 112.74 309.32 112.79 309.90 C 110.75 309.97 108.69 310.00 106.67 309.67 C 106.47 309.11 106.07 308.00 105.86 307.44 C 105.78 307.19 105.60 306.68 105.51 306.43 C 106.09 305.69 106.65 304.94 107.20 304.19 C 107.23 303.38 107.28 301.74 107.31 300.93 Z" />
</g>
<g id="#676f78ff">
<path fill="#676f78" opacity="1.00" d=" M 292.60 301.12 C 296.14 301.61 299.67 302.16 303.20 302.74 C 301.36 304.24 299.35 305.67 296.84 305.44 C 295.76 304.96 294.70 304.46 293.65 303.94 C 293.67 305.67 293.68 307.40 293.75 309.14 C 293.20 306.49 292.80 303.81 292.60 301.12 Z" />
</g>
<g id="#eddcb7ff">
<path fill="#eddcb7" opacity="1.00" d=" M 325.29 300.22 C 326.05 300.97 326.82 301.73 327.62 302.45 C 326.67 317.04 328.23 331.72 326.64 346.28 C 325.87 343.36 324.95 340.48 324.15 337.58 C 325.57 325.17 323.54 312.60 325.29 300.22 Z" />
</g>
<g id="#df9f81ff">
<path fill="#df9f81" opacity="1.00" d=" M 330.59 304.12 C 331.75 302.88 332.94 301.66 334.15 300.45 C 336.68 301.63 339.24 302.84 341.35 304.73 C 340.43 306.45 339.53 308.19 338.66 309.94 C 334.61 310.62 332.78 306.70 330.59 304.12 Z" />
</g>
<g id="#35385cff">
<path fill="#35385c" opacity="1.00" d=" M 115.24 302.17 C 116.15 303.66 116.92 305.23 117.62 306.84 C 119.46 310.79 122.06 314.35 125.31 317.25 C 125.13 317.96 124.96 318.67 124.77 319.39 C 122.40 326.60 121.37 334.51 116.78 340.77 C 112.44 347.21 108.86 354.12 104.80 360.74 C 104.43 360.79 103.67 360.89 103.30 360.94 C 101.65 360.52 100.45 359.28 99.18 358.26 C 102.22 350.18 104.89 341.86 109.31 334.41 C 110.82 331.64 111.55 328.54 111.99 325.45 C 112.53 321.54 112.73 317.59 112.80 313.64 C 112.80 312.71 112.80 310.83 112.79 309.90 C 112.74 309.32 112.64 308.17 112.58 307.60 C 112.84 307.88 113.34 308.45 113.59 308.74 C 114.19 306.56 114.78 304.38 115.24 302.17 Z" />
</g>
<g id="#343a3dff">
<path fill="#343a3d" opacity="1.00" d=" M 293.65 303.94 C 294.70 304.46 295.76 304.96 296.84 305.44 C 299.11 306.33 301.57 306.34 303.97 306.38 C 304.50 305.71 305.03 305.04 305.57 304.38 C 307.71 307.92 309.77 311.58 310.52 315.71 C 311.24 315.78 312.69 315.93 313.41 316.01 C 316.87 323.25 321.33 330.03 324.15 337.58 C 324.95 340.48 325.87 343.36 326.64 346.28 C 327.81 353.54 329.06 360.81 331.23 367.85 C 332.26 371.57 333.34 375.28 334.02 379.08 L 332.26 379.19 C 330.64 379.18 329.00 379.20 327.39 379.23 C 326.71 377.82 326.05 376.40 325.51 374.94 C 321.95 363.77 318.20 352.66 314.20 341.64 C 312.93 337.95 310.60 334.81 308.25 331.76 C 304.60 327.09 301.18 322.11 296.52 318.37 C 295.34 315.37 294.35 312.30 293.75 309.14 C 293.68 307.40 293.67 305.67 293.65 303.94 Z" />
</g>
<g id="#272c46ff">
<path fill="#272c46" opacity="1.00" d=" M 413.92 304.08 C 422.39 307.00 431.80 307.19 440.07 303.49 C 440.69 314.31 439.77 325.14 439.60 335.97 C 439.48 347.14 439.22 358.30 439.15 369.47 C 438.97 369.98 438.61 371.01 438.43 371.53 C 436.27 371.46 434.12 371.37 431.96 371.28 C 431.73 368.12 431.39 364.97 431.13 361.82 C 430.70 351.57 431.40 341.27 430.06 331.07 C 429.29 324.60 428.68 318.09 427.20 311.73 C 424.20 319.92 422.39 328.49 420.29 336.94 C 418.67 347.39 417.93 357.96 417.01 368.49 C 416.65 369.99 416.06 371.43 415.50 372.87 C 414.62 372.72 412.84 372.43 411.96 372.28 C 411.11 371.12 410.37 369.90 409.60 368.70 L 409.61 368.19 C 410.48 348.73 410.33 329.14 413.32 309.86 C 413.67 307.95 413.71 306.00 413.92 304.08 Z" />
</g>
<g id="#887772ff">
<path fill="#887772" opacity="1.00" d=" M 102.94 311.57 C 103.70 309.86 103.42 307.23 105.51 306.43 C 105.60 306.68 105.78 307.19 105.86 307.44 C 105.35 308.97 104.88 310.50 104.40 312.04 C 107.19 312.64 109.99 313.18 112.80 313.64 C 112.73 317.59 112.53 321.54 111.99 325.45 C 105.25 324.31 98.53 322.97 91.94 321.16 C 92.74 317.44 93.63 313.73 94.33 309.99 C 97.22 310.38 100.09 310.96 102.94 311.57 Z" />
</g>
<g id="#bedbfbff">
<path fill="#bedbfb" opacity="1.00" d=" M 260.71 308.38 C 261.42 307.97 262.13 307.57 262.85 307.17 C 263.73 309.34 262.64 311.43 262.36 313.58 C 263.48 314.90 264.88 315.95 266.21 317.05 C 264.47 322.38 262.55 327.65 260.78 332.97 C 260.26 334.69 259.32 336.24 258.15 337.60 C 254.02 333.53 249.86 329.10 247.41 323.82 C 249.08 318.52 251.08 313.29 253.28 308.18 C 254.52 308.47 255.76 308.77 257.00 309.07 C 257.37 308.90 258.11 308.56 258.47 308.40 C 258.93 309.53 259.47 310.63 260.08 311.71 C 260.31 310.59 260.53 309.50 260.71 308.38 Z" />
</g>
<g id="#fff9f6ff">
<path fill="#fff9f6" opacity="1.00" d=" M 104.40 312.04 C 104.88 310.50 105.35 308.97 105.86 307.44 C 106.07 308.00 106.47 309.11 106.67 309.67 C 108.69 310.00 110.75 309.97 112.79 309.90 C 112.80 310.83 112.80 312.71 112.80 313.64 C 109.99 313.18 107.19 312.64 104.40 312.04 Z" />
</g>
<g id="#eeaa8bff">
<path fill="#eeaa8b" opacity="1.00" d=" M 380.91 309.02 C 382.70 309.28 384.50 309.52 386.31 309.68 C 386.79 311.11 387.30 312.55 387.85 313.97 C 387.74 314.11 387.53 314.38 387.42 314.52 C 387.08 314.94 386.41 315.80 386.07 316.23 C 384.07 316.17 382.07 316.15 380.07 316.10 C 380.28 313.73 380.57 311.37 380.91 309.02 Z" />
</g>
<g id="#fdfdfdff">
<path fill="#fdfdfd" opacity="1.00" d=" M 427.20 311.73 C 428.68 318.09 429.29 324.60 430.06 331.07 C 431.40 341.27 430.70 351.57 431.13 361.82 C 431.15 364.14 431.12 366.48 431.26 368.81 C 426.51 368.57 421.76 368.50 417.01 368.49 C 417.93 357.96 418.67 347.39 420.29 336.94 C 422.39 328.49 424.20 319.92 427.20 311.73 Z" />
</g>
<g id="#fcfcfcff">
<path fill="#fcfcfc" opacity="1.00" d=" M 366.86 313.11 C 367.44 315.24 367.94 317.39 368.37 319.55 C 367.36 323.92 367.82 328.41 367.78 332.84 C 367.80 335.94 367.79 339.03 367.82 342.13 C 369.69 342.15 371.57 342.17 373.46 342.20 C 374.07 350.85 373.20 359.50 372.83 368.14 C 367.91 367.26 362.89 367.68 357.92 367.63 C 359.14 360.10 359.50 352.47 360.30 344.89 C 360.99 340.16 358.65 335.66 358.83 331.00 C 361.05 324.85 364.23 319.09 366.86 313.11 Z" />
</g>
<g id="#332f32ff">
<path fill="#332f32" opacity="1.00" d=" M 387.42 314.52 C 387.53 314.38 387.74 314.11 387.85 313.97 C 389.82 314.81 389.59 318.13 388.58 319.69 L 388.21 319.69 C 387.93 317.96 387.71 316.23 387.42 314.52 Z" />
</g>
<g id="#fff6f5ff">
<path fill="#fff6f5" opacity="1.00" d=" M 387.42 314.52 C 387.71 316.23 387.93 317.96 388.21 319.69 C 385.78 319.75 383.35 319.80 380.93 319.78 C 380.79 319.05 380.50 317.58 380.36 316.85 C 382.15 316.79 383.94 316.78 385.74 316.62 L 386.07 316.23 C 386.41 315.80 387.08 314.94 387.42 314.52 Z" />
</g>
<g id="#fefefeff">
<path fill="#fefefe" opacity="1.00" d=" M 124.77 319.39 C 127.38 322.78 129.88 326.25 132.35 329.74 C 135.75 334.41 136.00 340.43 138.42 345.56 C 141.56 352.60 144.21 359.84 147.21 366.93 C 147.65 368.97 149.89 367.80 151.27 367.85 C 150.95 368.43 150.33 369.59 150.02 370.17 C 135.65 371.28 121.20 371.43 106.85 372.83 C 104.15 369.76 103.25 365.73 102.69 361.80 L 103.30 360.94 C 103.67 360.89 104.43 360.79 104.80 360.74 C 108.86 354.12 112.44 347.21 116.78 340.77 C 121.37 334.51 122.40 326.60 124.77 319.39 Z" />
<path fill="#fefefe" opacity="1.00" d=" M 207.51 330.57 C 209.05 330.78 210.59 331.02 212.14 331.17 C 213.30 336.44 211.96 341.75 212.22 347.05 C 213.06 354.11 215.22 360.93 216.59 367.89 C 208.13 368.53 199.64 368.19 191.18 368.83 C 190.96 366.45 190.28 363.82 191.57 361.62 C 195.43 354.59 200.35 348.22 204.54 341.40 C 206.58 338.16 207.06 334.29 207.51 330.57 Z" />
</g>
<g id="#863e2bff">
<path fill="#863e2b" opacity="1.00" d=" M 368.37 319.55 C 372.55 319.74 376.74 319.74 380.93 319.78 C 383.35 319.80 385.78 319.75 388.21 319.69 L 388.58 319.69 C 392.07 319.76 395.57 319.79 399.06 319.81 C 399.09 324.13 399.11 328.46 399.07 332.78 C 388.64 332.74 378.21 332.86 367.78 332.84 C 367.82 328.41 367.36 323.92 368.37 319.55 Z" />
</g>
<g id="#3b3b3fff">
<path fill="#3b3b3f" opacity="1.00" d=" M 199.03 329.43 C 201.86 329.76 204.69 330.15 207.51 330.57 C 207.06 334.29 206.58 338.16 204.54 341.40 C 200.35 348.22 195.43 354.59 191.57 361.62 C 190.28 363.82 190.96 366.45 191.18 368.83 C 191.28 369.35 191.48 370.39 191.58 370.92 C 191.41 371.35 191.07 372.23 190.90 372.67 C 190.35 372.62 189.25 372.52 188.70 372.47 C 187.78 369.10 186.52 365.67 186.95 362.12 C 191.53 353.74 192.83 343.92 197.73 335.67 C 199.00 333.83 198.87 331.54 199.03 329.43 Z" />
<path fill="#3b3b3f" opacity="1.00" d=" M 212.14 331.17 C 214.93 331.41 217.72 331.48 220.52 331.57 C 221.31 336.71 219.98 341.82 220.07 346.97 C 220.07 354.10 219.72 361.27 220.52 368.37 C 221.73 371.39 223.26 374.29 225.15 376.94 C 224.98 377.43 224.64 378.41 224.47 378.90 C 220.18 377.63 218.44 373.09 216.78 369.39 C 216.73 369.01 216.63 368.26 216.59 367.89 C 215.22 360.93 213.06 354.11 212.22 347.05 C 211.96 341.75 213.30 336.44 212.14 331.17 Z" />
</g>
<g id="#54281bff">
<path fill="#54281b" opacity="1.00" d=" M 367.78 332.84 C 378.21 332.86 388.64 332.74 399.07 332.78 C 399.06 335.91 399.04 339.04 398.95 342.18 C 393.44 342.14 387.93 342.12 382.42 342.20 C 379.43 342.23 376.44 342.22 373.46 342.20 C 371.57 342.17 369.69 342.15 367.82 342.13 C 367.79 339.03 367.80 335.94 367.78 332.84 Z" />
</g>
<g id="#1e3b54ff">
<path fill="#1e3b54" opacity="1.00" d=" M 373.46 342.20 C 376.44 342.22 379.43 342.23 382.42 342.20 C 381.82 350.76 380.41 359.24 379.41 367.76 C 379.32 368.50 379.15 369.98 379.07 370.72 C 376.96 370.66 374.86 370.60 372.76 370.54 C 372.78 369.94 372.82 368.74 372.83 368.14 C 373.20 359.50 374.07 350.85 373.46 342.20 Z" />
</g>
<g id="#35385aff">
<path fill="#35385a" opacity="1.00" d=" M 93.41 366.07 C 94.74 363.46 96.58 361.16 98.88 359.35 C 99.14 361.48 100.94 361.72 102.69 361.80 C 103.25 365.73 104.15 369.76 106.85 372.83 C 107.56 373.85 108.24 374.90 108.91 375.96 C 106.43 377.06 104.21 374.75 102.22 373.59 C 101.36 372.89 100.52 372.16 99.71 371.41 C 98.95 370.48 98.26 369.50 97.66 368.47 C 96.08 367.96 94.66 367.14 93.41 366.07 Z" />
</g>
<g id="#dd5c54ff">
<path fill="#dd5c54" opacity="1.00" d=" M 182.88 369.96 C 184.28 367.38 184.19 363.70 186.95 362.12 C 186.52 365.67 187.78 369.10 188.70 372.47 C 189.25 372.52 190.35 372.62 190.90 372.67 C 191.07 372.23 191.41 371.35 191.58 370.92 C 191.72 371.49 192.00 372.63 192.13 373.20 C 192.42 374.55 192.71 375.90 192.99 377.27 C 188.85 376.92 184.86 374.66 183.21 370.72 L 182.88 369.96 Z" />
</g>
<g id="#686058ff">
<path fill="#686058" opacity="1.00" d=" M 431.13 361.82 C 431.39 364.97 431.73 368.12 431.96 371.28 C 434.12 371.37 436.27 371.46 438.43 371.53 L 437.89 371.70 C 436.00 372.52 433.07 372.25 432.50 374.71 C 432.06 372.75 431.57 370.80 431.26 368.81 C 431.12 366.48 431.15 364.14 431.13 361.82 Z" />
</g>
<g id="#ebb076ff">
<path fill="#ebb076" opacity="1.00" d=" M 151.27 367.85 C 152.16 367.58 153.05 367.30 153.95 367.02 C 154.40 367.58 155.30 368.70 155.75 369.25 C 154.10 369.94 152.36 370.40 150.61 370.75 C 151.00 373.03 150.60 375.69 152.09 377.63 C 157.33 377.22 162.74 377.69 167.78 375.94 C 168.47 375.34 169.14 374.71 169.79 374.07 C 167.41 373.63 165.02 373.33 162.63 373.01 C 160.93 372.23 159.26 371.37 157.67 370.40 C 164.05 369.21 170.60 369.87 177.04 369.35 C 178.96 369.51 181.23 368.70 182.88 369.96 L 183.21 370.72 C 177.16 370.55 171.11 370.65 165.08 371.17 C 167.10 372.33 171.58 373.21 169.60 376.34 C 164.23 379.91 157.38 378.82 151.33 378.47 C 149.26 377.07 149.46 374.11 148.69 371.98 C 144.12 371.79 139.58 372.35 135.03 372.60 C 128.02 372.79 120.99 372.65 114.00 373.16 C 111.87 373.05 110.45 374.78 108.91 375.96 C 108.24 374.90 107.56 373.85 106.85 372.83 C 121.20 371.43 135.65 371.28 150.02 370.17 C 150.33 369.59 150.95 368.43 151.27 367.85 Z" />
</g>
<g id="#f3c38bff">
<path fill="#f3c38b" opacity="1.00" d=" M 191.18 368.83 C 199.64 368.19 208.13 368.53 216.59 367.89 C 216.63 368.26 216.73 369.01 216.78 369.39 C 216.67 369.75 216.47 370.46 216.36 370.82 C 208.89 368.27 200.75 369.89 193.01 369.94 C 192.70 371.02 192.41 372.10 192.13 373.20 C 192.00 372.63 191.72 371.49 191.58 370.92 C 191.48 370.39 191.28 369.35 191.18 368.83 Z" />
</g>
<g id="#feaa56ff">
<path fill="#feaa56" opacity="1.00" d=" M 220.52 368.37 C 225.74 368.21 230.97 368.18 236.20 368.14 C 236.18 373.66 235.14 379.83 238.21 384.75 C 240.18 388.11 244.34 387.64 247.64 388.27 C 249.17 388.55 250.68 388.90 252.20 389.24 C 251.99 390.82 251.74 392.38 251.49 393.96 C 248.69 393.75 244.13 391.48 243.45 395.81 C 221.29 395.89 199.10 395.87 176.98 394.63 C 153.96 394.20 130.98 392.82 108.00 391.52 C 90.67 390.06 73.25 389.12 56.15 385.80 C 53.23 385.26 50.41 384.28 47.78 382.92 C 48.33 381.83 48.70 380.44 50.07 380.12 C 55.34 377.89 61.18 377.58 66.76 376.60 C 78.58 375.49 90.37 374.29 102.22 373.59 C 104.21 374.75 106.43 377.06 108.91 375.96 C 110.45 374.78 111.87 373.05 114.00 373.16 C 120.99 372.65 128.02 372.79 135.03 372.60 C 139.58 372.35 144.12 371.79 148.69 371.98 C 149.46 374.11 149.26 377.07 151.33 378.47 C 157.38 378.82 164.23 379.91 169.60 376.34 C 171.58 373.21 167.10 372.33 165.08 371.17 C 171.11 370.65 177.16 370.55 183.21 370.72 C 184.86 374.66 188.85 376.92 192.99 377.27 C 192.71 375.90 192.42 374.55 192.13 373.20 C 192.41 372.10 192.70 371.02 193.01 369.94 C 200.75 369.89 208.89 368.27 216.36 370.82 C 215.88 374.20 216.66 377.57 217.25 380.88 C 217.66 380.27 218.07 379.66 218.49 379.06 C 219.10 379.96 219.70 380.87 220.31 381.79 C 223.05 381.93 225.79 381.98 228.53 381.87 C 227.53 380.14 226.37 378.51 225.15 376.94 C 223.26 374.29 221.73 371.39 220.52 368.37 Z" />
</g>
<g id="#fdbb57ff">
<path fill="#fdbb57" opacity="1.00" d=" M 331.23 367.85 C 338.00 367.24 344.85 367.27 351.62 367.83 L 351.86 367.98 L 352.59 368.44 C 354.02 368.59 355.45 368.71 356.90 368.79 C 355.16 371.05 353.48 373.36 351.77 375.63 C 349.14 375.76 346.54 376.14 344.03 376.90 C 344.14 378.31 344.26 379.72 344.38 381.14 C 343.74 381.53 342.47 382.29 341.83 382.68 C 338.35 382.41 335.15 381.09 332.26 379.19 L 334.02 379.08 C 333.34 375.28 332.26 371.57 331.23 367.85 Z" />
</g>
<g id="#1a2c3aff">
<path fill="#1a2c3a" opacity="1.00" d=" M 351.86 367.98 C 353.88 367.84 355.90 367.72 357.92 367.63 C 358.27 372.36 358.53 377.26 356.58 381.72 C 356.29 379.76 356.08 377.81 355.88 375.85 C 354.25 377.53 352.80 379.43 350.82 380.71 C 348.73 381.29 346.53 381.08 344.38 381.14 C 344.26 379.72 344.14 378.31 344.03 376.90 C 346.54 376.14 349.14 375.76 351.77 375.63 C 353.48 373.36 355.16 371.05 356.90 368.79 C 355.45 368.71 354.02 368.59 352.59 368.44 L 351.86 367.98 Z" />
</g>
<g id="#febd56ff">
<path fill="#febd56" opacity="1.00" d=" M 357.92 367.63 C 362.89 367.68 367.91 367.26 372.83 368.14 C 372.82 368.74 372.78 369.94 372.76 370.54 C 374.86 370.60 376.96 370.66 379.07 370.72 C 379.06 370.78 379.05 370.89 379.04 370.95 C 376.62 371.85 375.83 374.55 373.90 376.04 C 371.72 376.78 368.13 375.82 367.78 379.00 C 367.48 382.53 371.44 382.09 373.78 381.60 C 376.05 381.03 376.55 378.29 377.76 376.58 C 378.18 377.94 378.62 379.31 379.08 380.67 C 380.87 376.97 380.50 372.80 380.74 368.82 C 388.85 368.61 396.98 368.70 405.08 369.02 C 407.63 368.77 407.93 371.56 408.73 373.30 C 406.32 375.11 404.59 377.64 405.14 380.79 C 407.43 380.85 409.72 380.63 411.93 380.02 C 411.47 383.43 407.83 384.59 406.08 387.16 C 405.85 388.32 406.27 389.14 407.34 389.62 C 410.49 390.04 413.75 389.86 416.77 391.02 C 412.15 392.03 407.28 392.44 403.51 395.63 C 392.70 396.14 381.83 395.73 371.00 395.89 C 354.19 395.81 337.39 396.10 320.58 395.84 C 319.18 392.79 315.79 392.93 312.99 392.51 C 315.80 392.12 318.61 391.71 321.41 391.27 C 320.11 390.28 318.79 389.31 317.48 388.36 C 318.25 388.02 319.02 387.68 319.80 387.36 C 296.06 387.24 272.32 387.48 248.58 387.21 L 247.55 386.55 C 270.03 386.81 292.52 386.51 315.01 386.66 C 317.64 386.58 320.73 386.89 322.69 384.73 C 325.48 382.30 325.87 378.40 325.51 374.94 C 326.05 376.40 326.71 377.82 327.39 379.23 C 327.53 381.42 327.62 383.63 327.73 385.83 C 331.12 386.70 334.52 388.05 338.09 387.75 C 340.91 387.58 343.52 386.37 346.04 385.19 C 344.73 384.19 343.42 383.16 341.83 382.68 C 342.47 382.29 343.74 381.53 344.38 381.14 C 346.53 381.08 348.73 381.29 350.82 380.71 C 352.80 379.43 354.25 377.53 355.88 375.85 C 356.08 377.81 356.29 379.76 356.58 381.72 C 358.53 377.26 358.27 372.36 357.92 367.63 Z" />
</g>
<g id="#e5be77ff">
<path fill="#e5be77" opacity="1.00" d=" M 379.41 367.76 C 389.48 367.59 399.54 368.21 409.61 368.19 L 409.60 368.70 C 409.60 369.96 409.58 371.22 409.54 372.48 C 409.34 372.69 408.93 373.10 408.73 373.30 C 407.93 371.56 407.63 368.77 405.08 369.02 C 396.98 368.70 388.85 368.61 380.74 368.82 C 380.50 372.80 380.87 376.97 379.08 380.67 C 378.92 377.43 378.91 374.19 379.04 370.95 C 379.05 370.89 379.06 370.78 379.07 370.72 C 379.15 369.98 379.32 368.50 379.41 367.76 Z" />
</g>
<g id="#fec856ff">
<path fill="#fec856" opacity="1.00" d=" M 415.50 372.87 C 416.06 371.43 416.65 369.99 417.01 368.49 C 421.76 368.50 426.51 368.57 431.26 368.81 C 431.57 370.80 432.06 372.75 432.50 374.71 C 434.89 377.07 436.93 381.27 440.88 380.72 C 443.39 380.62 443.41 377.42 442.19 375.89 C 440.96 374.29 439.37 373.04 437.89 371.70 L 438.43 371.53 C 438.61 371.01 438.97 369.98 439.15 369.47 C 448.84 369.45 458.57 369.39 468.22 370.34 C 467.88 372.88 466.71 375.15 465.21 377.19 C 464.58 378.28 463.99 379.39 463.45 380.53 C 465.76 380.35 468.66 381.32 470.56 379.58 C 472.37 377.03 473.11 373.89 473.33 370.82 C 481.27 369.65 489.18 371.70 497.12 371.52 C 496.20 373.50 495.12 375.39 494.16 377.35 C 493.65 378.44 493.21 379.56 492.77 380.67 C 494.90 380.58 497.12 380.76 499.20 380.14 C 500.99 377.94 502.02 375.18 502.42 372.40 C 516.19 371.87 529.91 373.84 543.61 374.87 C 553.66 376.79 563.99 377.33 573.89 380.05 C 575.42 380.33 576.31 381.67 577.32 382.72 C 570.53 385.90 562.98 386.42 555.68 387.59 C 547.67 388.34 539.68 389.33 531.70 390.33 C 516.18 392.02 500.56 392.15 485.02 393.47 C 472.68 393.67 460.37 394.66 448.03 394.64 C 433.22 395.68 418.35 395.78 403.51 395.63 C 407.28 392.44 412.15 392.03 416.77 391.02 C 413.75 389.86 410.49 390.04 407.34 389.62 C 406.27 389.14 405.85 388.32 406.08 387.16 C 407.83 384.59 411.47 383.43 411.93 380.02 C 412.62 377.61 414.93 376.15 415.78 373.84 C 414.64 373.02 413.21 372.84 411.96 372.28 C 412.84 372.43 414.62 372.72 415.50 372.87 Z" />
</g>
<g id="#3f3f63ff">
<path fill="#3f3f63" opacity="1.00" d=" M 155.75 369.25 C 156.39 369.63 157.03 370.01 157.67 370.40 C 159.26 371.37 160.93 372.23 162.63 373.01 C 164.37 373.94 166.05 374.97 167.78 375.94 C 162.74 377.69 157.33 377.22 152.09 377.63 C 150.60 375.69 151.00 373.03 150.61 370.75 C 152.36 370.40 154.10 369.94 155.75 369.25 Z" />
</g>
<g id="#363937ff">
<path fill="#363937" opacity="1.00" d=" M 409.60 368.70 C 410.37 369.90 411.11 371.12 411.96 372.28 C 413.21 372.84 414.64 373.02 415.78 373.84 C 414.93 376.15 412.62 377.61 411.93 380.02 C 409.72 380.63 407.43 380.85 405.14 380.79 C 404.59 377.64 406.32 375.11 408.73 373.30 C 408.93 373.10 409.34 372.69 409.54 372.48 C 409.58 371.22 409.60 369.96 409.60 368.70 Z" />
</g>
<g id="#40374aff">
<path fill="#40374a" opacity="1.00" d=" M 469.61 376.66 C 471.20 374.02 471.56 370.88 472.43 367.98 C 472.66 368.69 473.11 370.11 473.33 370.82 C 473.11 373.89 472.37 377.03 470.56 379.58 C 468.66 381.32 465.76 380.35 463.45 380.53 C 463.99 379.39 464.58 378.28 465.21 377.19 C 466.66 377.07 468.32 377.56 469.61 376.66 Z" />
</g>
<g id="#3d3a49ff">
<path fill="#3d3a49" opacity="1.00" d=" M 500.22 373.16 C 500.57 371.40 500.85 369.59 501.94 368.10 C 502.17 369.52 502.34 370.95 502.42 372.40 C 502.02 375.18 500.99 377.94 499.20 380.14 C 497.12 380.76 494.90 380.58 492.77 380.67 C 493.21 379.56 493.65 378.44 494.16 377.35 C 497.08 377.78 500.16 376.49 500.22 373.16 Z" />
</g>
<g id="#e0564eff">
<path fill="#e0564e" opacity="1.00" d=" M 216.36 370.82 C 216.47 370.46 216.67 369.75 216.78 369.39 C 218.44 373.09 220.18 377.63 224.47 378.90 C 224.64 378.41 224.98 377.43 225.15 376.94 C 226.37 378.51 227.53 380.14 228.53 381.87 C 225.79 381.98 223.05 381.93 220.31 381.79 C 219.70 380.87 219.10 379.96 218.49 379.06 C 218.07 379.66 217.66 380.27 217.25 380.88 C 216.66 377.57 215.88 374.20 216.36 370.82 Z" />
</g>
<g id="#f9ddc1ff">
<path fill="#f9ddc1" opacity="1.00" d=" M 99.71 371.41 C 100.52 372.16 101.36 372.89 102.22 373.59 C 90.37 374.29 78.58 375.49 66.76 376.60 L 67.69 375.77 C 73.28 374.87 78.96 374.53 84.58 373.79 C 89.65 373.25 94.95 373.52 99.71 371.41 Z" />
</g>
<g id="#1b2b37ff">
<path fill="#1b2b37" opacity="1.00" d=" M 373.90 376.04 C 375.83 374.55 376.62 371.85 379.04 370.95 C 378.91 374.19 378.92 377.43 379.08 380.67 C 378.62 379.31 378.18 377.94 377.76 376.58 C 376.55 378.29 376.05 381.03 373.78 381.60 C 371.44 382.09 367.48 382.53 367.78 379.00 C 368.13 375.82 371.72 376.78 373.90 376.04 Z" />
</g>
<g id="#373c39ff">
<path fill="#373c39" opacity="1.00" d=" M 432.50 374.71 C 433.07 372.25 436.00 372.52 437.89 371.70 C 439.37 373.04 440.96 374.29 442.19 375.89 C 443.41 377.42 443.39 380.62 440.88 380.72 C 436.93 381.27 434.89 377.07 432.50 374.71 Z" />
</g>
<g id="#795545ff">
<path fill="#795545" opacity="1.00" d=" M 162.63 373.01 C 165.02 373.33 167.41 373.63 169.79 374.07 C 169.14 374.71 168.47 375.34 167.78 375.94 C 166.05 374.97 164.37 373.94 162.63 373.01 Z" />
</g>
<g id="#faebb5ff">
<path fill="#faebb5" opacity="1.00" d=" M 543.61 374.87 C 554.19 374.77 564.89 376.13 575.08 379.06 C 577.15 379.36 577.99 381.24 578.60 383.00 C 574.15 386.80 568.19 386.63 562.88 388.34 C 552.44 388.44 542.18 391.82 531.70 390.33 C 539.68 389.33 547.67 388.34 555.68 387.59 C 562.98 386.42 570.53 385.90 577.32 382.72 C 576.31 381.67 575.42 380.33 573.89 380.05 C 563.99 377.33 553.66 376.79 543.61 374.87 Z" />
</g>
<g id="#383a3aff">
<path fill="#383a3a" opacity="1.00" d=" M 327.39 379.23 C 329.00 379.20 330.64 379.18 332.26 379.19 C 335.15 381.09 338.35 382.41 341.83 382.68 C 343.42 383.16 344.73 384.19 346.04 385.19 C 343.52 386.37 340.91 387.58 338.09 387.75 C 334.52 388.05 331.12 386.70 327.73 385.83 C 327.62 383.63 327.53 381.42 327.39 379.23 Z" />
</g>
<g id="#feb556ff">
<path fill="#feb556" opacity="1.00" d=" M 248.58 387.21 C 272.32 387.48 296.06 387.24 319.80 387.36 C 319.02 387.68 318.25 388.02 317.48 388.36 C 318.79 389.31 320.11 390.28 321.41 391.27 C 318.61 391.71 315.80 392.12 312.99 392.51 C 315.79 392.93 319.18 392.79 320.58 395.84 C 294.88 395.99 269.16 395.98 243.45 395.81 C 244.13 391.48 248.69 393.75 251.49 393.96 C 251.74 392.38 251.99 390.82 252.20 389.24 C 250.68 388.90 249.17 388.55 247.64 388.27 L 248.58 387.21 Z" />
</g>
</svg>
