<?xml version="1.0" encoding="UTF-8" ?>
<!DOCTYPE svg PUBLIC "-//W3C//DTD SVG 1.1//EN" "http://www.w3.org/Graphics/SVG/1.1/DTD/svg11.dtd">
<svg width="440pt" height="360pt" viewBox="0 0 440 360" version="1.1" xmlns="http://www.w3.org/2000/svg">
<g id="#ffffffff">
<path fill="#ffffff" opacity="1.00" d=" M 0.00 0.00 L 440.00 0.00 L 440.00 360.00 L 0.00 360.00 L 0.00 0.00 M 215.45 12.42 C 213.41 14.21 211.92 16.49 210.70 18.89 C 206.80 24.84 203.60 31.21 200.32 37.51 C 194.08 51.50 189.40 66.38 188.19 81.70 C 186.98 82.31 185.75 82.91 184.61 83.64 C 172.25 92.48 159.89 101.40 148.57 111.55 C 139.14 119.04 130.81 127.73 121.94 135.83 C 122.49 136.07 123.61 136.53 124.16 136.76 C 116.78 136.07 108.95 138.25 103.73 143.70 C 97.68 149.36 95.40 158.15 96.70 166.20 C 96.51 165.86 96.13 165.17 95.94 164.82 C 92.60 168.78 89.49 172.93 86.09 176.85 C 84.66 177.62 83.24 178.45 81.84 179.29 C 81.33 179.32 80.30 179.39 79.78 179.43 C 78.38 174.58 77.47 169.53 75.17 165.00 C 72.85 161.91 68.95 160.67 65.54 159.19 C 64.24 160.35 63.16 162.66 61.12 161.39 C 63.52 157.59 64.88 153.29 66.21 149.03 C 67.07 145.55 64.16 141.17 67.52 138.57 C 69.15 136.77 68.91 133.90 66.66 132.76 C 62.20 131.94 57.08 131.40 53.11 134.04 C 51.85 137.00 48.77 139.50 49.40 142.97 C 49.80 146.10 52.06 148.61 54.47 150.45 C 54.85 151.10 55.24 151.74 55.63 152.38 C 55.55 153.77 55.47 155.17 55.39 156.56 C 57.13 157.77 58.99 158.89 60.40 160.50 C 60.13 161.10 59.58 162.31 59.31 162.91 C 57.15 161.48 55.08 159.94 53.09 158.30 C 48.67 159.59 43.99 161.14 40.70 164.50 C 38.43 168.59 38.56 173.48 38.53 178.03 C 38.77 183.05 39.06 188.27 41.11 192.93 C 42.09 195.26 45.20 194.42 47.18 194.98 C 47.37 197.47 47.50 199.97 47.59 202.48 C 47.41 209.22 47.55 215.97 47.54 222.72 C 46.45 223.50 45.27 224.23 44.45 225.33 C 34.92 237.77 26.11 251.05 20.89 265.92 C 19.15 272.09 17.11 278.56 18.75 284.99 C 19.44 291.37 22.72 297.62 28.23 301.10 C 31.65 308.66 38.96 313.88 46.74 316.29 C 62.94 321.82 80.30 319.80 97.07 319.66 C 97.13 320.33 97.24 321.66 97.29 322.32 C 97.23 324.68 97.34 327.03 97.44 329.38 C 93.72 330.71 89.90 332.22 86.92 334.89 C 83.67 338.06 84.27 343.66 87.55 346.59 C 93.91 352.78 103.04 355.20 111.66 355.95 C 113.50 356.65 115.40 357.23 117.37 357.43 C 136.18 359.12 155.73 354.98 171.61 344.59 C 174.36 342.56 177.48 340.30 178.64 336.99 C 177.59 333.69 173.71 332.34 170.62 331.59 C 157.61 328.26 144.15 326.66 130.72 327.05 C 130.84 323.33 130.58 319.60 130.72 315.88 C 140.76 314.41 150.88 313.40 161.00 312.66 C 182.01 311.00 203.60 310.83 223.95 316.99 C 233.31 320.14 242.70 323.21 252.32 325.48 C 265.16 328.79 278.47 329.81 291.68 330.07 C 293.03 330.61 294.43 331.10 295.92 331.04 C 304.49 331.04 313.13 331.24 321.58 329.56 C 338.30 327.20 354.36 320.11 367.23 309.18 C 375.68 301.16 384.12 292.81 389.83 282.54 C 391.39 281.53 392.82 280.33 394.32 279.23 C 395.05 273.25 398.99 268.60 401.38 263.27 C 410.42 245.81 417.21 226.76 417.99 206.95 C 417.84 202.16 416.96 197.44 416.44 192.69 C 415.66 185.37 412.56 177.97 406.67 173.32 C 400.36 168.74 392.67 166.51 384.96 165.95 C 376.65 164.39 368.32 166.92 360.05 167.17 C 355.94 165.88 350.78 164.22 349.39 159.63 C 345.37 149.15 344.39 137.89 341.95 127.01 C 339.87 114.36 336.48 101.92 331.51 90.10 C 331.11 89.51 330.33 88.32 329.94 87.73 C 325.18 76.60 315.42 67.94 304.09 63.88 C 300.43 62.52 296.04 62.77 293.09 59.88 C 288.77 56.73 284.36 53.39 279.12 51.94 C 271.87 49.62 264.01 47.58 256.41 49.23 C 255.09 45.38 253.33 41.70 251.91 37.88 L 251.61 37.89 C 251.27 36.96 250.93 36.03 250.59 35.10 C 245.99 25.62 240.55 16.43 233.68 8.40 L 233.77 7.99 C 231.30 5.61 229.28 2.33 225.94 1.14 C 221.56 3.83 218.08 8.12 215.45 12.42 M 305.07 23.08 C 304.02 25.88 304.51 28.95 303.91 31.83 C 302.21 33.52 299.93 34.44 298.17 36.05 C 296.57 37.58 296.03 40.62 298.00 42.09 C 300.60 44.58 304.40 44.37 307.74 44.41 C 320.55 44.41 333.36 44.38 346.17 44.42 C 348.69 43.81 351.53 43.47 353.42 41.49 C 355.57 39.48 355.30 35.74 353.15 33.83 C 350.23 31.01 345.70 31.63 342.37 29.61 C 340.71 27.02 340.57 23.74 338.94 21.13 C 336.91 18.07 332.31 17.36 329.31 19.37 C 327.31 20.69 325.83 22.63 323.88 24.00 C 319.94 23.78 317.58 20.02 314.07 18.72 C 310.54 17.58 306.38 19.62 305.07 23.08 M 151.84 19.41 C 151.75 20.82 151.67 22.24 151.60 23.65 C 149.97 23.86 148.35 24.07 146.73 24.30 C 147.40 26.37 149.82 25.92 151.50 26.40 C 152.01 27.69 150.94 30.40 153.07 30.37 C 153.47 29.07 153.76 27.74 154.08 26.41 C 155.56 25.99 157.32 26.15 158.55 25.10 C 157.99 23.27 155.44 24.19 154.01 23.64 C 153.50 22.16 154.07 19.62 151.84 19.41 M 111.37 72.53 C 107.74 75.62 107.25 80.78 104.42 84.44 C 103.19 86.27 101.02 84.74 99.38 84.53 C 96.73 83.54 92.89 83.39 91.47 86.35 C 90.62 90.24 91.85 94.16 92.14 98.04 C 91.15 100.00 88.93 100.93 87.34 102.35 C 91.98 104.28 97.15 102.96 102.02 103.34 C 112.98 103.35 123.95 103.50 134.91 103.32 C 138.58 103.28 142.33 103.67 145.94 102.78 C 148.28 102.25 150.25 99.43 148.76 97.17 C 147.25 93.83 142.39 96.22 140.36 93.67 C 140.24 91.05 141.74 88.16 140.25 85.75 C 136.44 81.82 131.27 88.14 127.26 84.91 C 124.60 82.38 124.75 78.27 122.88 75.24 C 120.83 71.14 115.05 70.05 111.37 72.53 Z" />
<path fill="#ffffff" opacity="1.00" d=" M 108.82 241.13 C 109.87 239.66 110.90 238.17 111.92 236.67 C 113.24 236.67 114.55 236.67 115.87 236.69 C 118.22 236.74 120.57 236.88 122.92 237.03 C 121.89 239.14 120.88 241.26 120.09 243.47 C 116.23 243.62 112.37 243.64 108.53 243.35 C 108.60 242.79 108.75 241.69 108.82 241.13 Z" />
<path fill="#ffffff" opacity="1.00" d=" M 175.25 238.60 C 175.79 239.15 176.35 239.70 176.91 240.25 C 175.10 240.29 173.50 241.09 172.03 242.06 C 173.14 240.94 174.21 239.78 175.25 238.60 Z" />
<path fill="#ffffff" opacity="1.00" d=" M 164.70 239.95 C 163.94 243.79 161.88 247.83 163.85 251.66 C 165.64 257.06 171.36 260.15 176.90 259.11 C 180.73 259.31 183.17 256.18 185.85 253.98 C 183.73 256.31 181.52 259.41 178.04 259.43 C 174.92 259.42 171.40 260.10 168.66 258.22 C 165.12 256.04 163.00 252.05 162.57 247.98 C 162.52 245.17 163.75 242.54 164.70 239.95 Z" />
<path fill="#ffffff" opacity="1.00" d=" M 105.30 247.24 C 107.62 247.35 109.96 247.29 112.29 247.26 C 113.95 247.23 115.61 247.22 117.27 247.23 C 116.88 247.99 116.48 248.75 116.09 249.52 C 115.77 250.10 115.15 251.26 114.83 251.85 C 110.93 252.32 106.98 252.38 103.06 252.06 C 103.80 250.45 104.55 248.84 105.30 247.24 Z" />
<path fill="#ffffff" opacity="1.00" d=" M 104.41 318.29 C 110.07 318.02 115.70 317.37 121.34 316.85 C 121.94 320.23 122.69 323.59 123.62 326.90 C 116.82 326.89 110.03 327.35 103.27 328.06 C 103.62 324.79 104.06 321.55 104.41 318.29 Z" />
</g>
<g id="#6bc6d4ff">
<path fill="#6bc6d4" opacity="1.00" d=" M 215.45 12.42 C 218.08 8.12 221.56 3.83 225.94 1.14 C 229.28 2.33 231.30 5.61 233.77 7.99 L 233.68 8.40 C 231.80 17.16 233.26 26.23 232.86 35.13 C 230.92 35.13 228.98 35.13 227.04 35.12 C 223.42 35.11 219.80 35.11 216.19 35.12 C 216.18 27.54 216.83 19.91 215.45 12.42 Z" />
</g>
<g id="#47bdceff">
<path fill="#47bdce" opacity="1.00" d=" M 232.86 35.13 C 233.26 26.23 231.80 17.16 233.68 8.40 C 240.55 16.43 245.99 25.62 250.59 35.10 C 244.68 35.15 238.77 35.12 232.86 35.13 Z" />
</g>
<g id="#8acddaff">
<path fill="#8acdda" opacity="1.00" d=" M 210.70 18.89 C 211.92 16.49 213.41 14.21 215.45 12.42 C 216.83 19.91 216.18 27.54 216.19 35.12 C 211.42 35.13 206.66 35.14 201.90 35.06 C 204.61 29.55 207.77 24.28 210.70 18.89 Z" />
</g>
<g id="#abe0f1ff">
<path fill="#abe0f1" opacity="1.00" d=" M 305.07 23.08 C 306.38 19.62 310.54 17.58 314.07 18.72 C 317.58 20.02 319.94 23.78 323.88 24.00 C 325.83 22.63 327.31 20.69 329.31 19.37 C 332.31 17.36 336.91 18.07 338.94 21.13 C 340.57 23.74 340.71 27.02 342.37 29.61 C 345.70 31.63 350.23 31.01 353.15 33.83 C 355.30 35.74 355.57 39.48 353.42 41.49 C 351.53 43.47 348.69 43.81 346.17 44.42 C 346.55 41.97 347.70 38.57 345.03 36.98 C 341.48 35.67 337.46 37.63 333.93 36.17 C 330.55 34.06 329.57 28.51 325.02 28.32 C 320.42 28.66 319.24 33.77 316.68 36.72 C 314.13 37.87 311.16 37.51 308.56 38.52 C 306.77 40.01 307.67 42.46 307.74 44.41 C 304.40 44.37 300.60 44.58 298.00 42.09 C 296.03 40.62 296.57 37.58 298.17 36.05 C 299.93 34.44 302.21 33.52 303.91 31.83 C 304.51 28.95 304.02 25.88 305.07 23.08 Z" />
<path fill="#abe0f1" opacity="1.00" d=" M 111.37 72.53 C 115.05 70.05 120.83 71.14 122.88 75.24 C 124.75 78.27 124.60 82.38 127.26 84.91 C 131.27 88.14 136.44 81.82 140.25 85.75 C 141.74 88.16 140.24 91.05 140.36 93.67 C 142.39 96.22 147.25 93.83 148.76 97.17 C 150.25 99.43 148.28 102.25 145.94 102.78 C 142.33 103.67 138.58 103.28 134.91 103.32 C 135.39 100.76 137.76 97.08 134.66 95.35 C 130.91 93.10 126.58 95.89 122.63 96.14 C 121.98 93.92 121.53 91.61 120.41 89.57 C 119.10 87.19 115.74 85.87 113.30 87.34 C 110.54 90.11 110.32 94.80 107.04 97.12 C 104.40 97.64 101.68 97.33 99.01 97.38 C 99.06 99.78 100.30 101.75 102.02 103.34 C 97.15 102.96 91.98 104.28 87.34 102.35 C 88.93 100.93 91.15 100.00 92.14 98.04 C 91.85 94.16 90.62 90.24 91.47 86.35 C 92.89 83.39 96.73 83.54 99.38 84.53 C 101.02 84.74 103.19 86.27 104.42 84.44 C 107.25 80.78 107.74 75.62 111.37 72.53 Z" />
</g>
<g id="#c54390ff">
<path fill="#c54390" opacity="1.00" d=" M 200.32 37.51 C 203.60 31.21 206.80 24.84 210.70 18.89 C 207.77 24.28 204.61 29.55 201.90 35.06 C 206.66 35.14 211.42 35.13 216.19 35.12 C 219.80 35.11 223.42 35.11 227.04 35.12 C 227.38 36.08 227.73 37.03 228.08 37.99 C 218.83 37.75 209.54 38.58 200.32 37.51 Z" />
</g>
<g id="#eebdd5ff">
<path fill="#eebdd5" opacity="1.00" d=" M 151.84 19.41 C 154.07 19.62 153.50 22.16 154.01 23.64 C 155.44 24.19 157.99 23.27 158.55 25.10 C 157.32 26.15 155.56 25.99 154.08 26.41 C 153.76 27.74 153.47 29.07 153.07 30.37 C 150.94 30.40 152.01 27.69 151.50 26.40 C 149.82 25.92 147.40 26.37 146.73 24.30 C 148.35 24.07 149.97 23.86 151.60 23.65 C 151.67 22.24 151.75 20.82 151.84 19.41 Z" />
</g>
<g id="#d3ebf4ff">
<path fill="#d3ebf4" opacity="1.00" d=" M 316.68 36.72 C 319.24 33.77 320.42 28.66 325.02 28.32 C 329.57 28.51 330.55 34.06 333.93 36.17 C 337.46 37.63 341.48 35.67 345.03 36.98 C 347.70 38.57 346.55 41.97 346.17 44.42 C 333.36 44.38 320.55 44.41 307.74 44.41 C 307.67 42.46 306.77 40.01 308.56 38.52 C 311.16 37.51 314.13 37.87 316.68 36.72 Z" />
<path fill="#d3ebf4" opacity="1.00" d=" M 113.30 87.34 C 115.74 85.87 119.10 87.19 120.41 89.57 C 121.53 91.61 121.98 93.92 122.63 96.14 C 126.58 95.89 130.91 93.10 134.66 95.35 C 137.76 97.08 135.39 100.76 134.91 103.32 C 123.95 103.50 112.98 103.35 102.02 103.34 C 100.30 101.75 99.06 99.78 99.01 97.38 C 101.68 97.33 104.40 97.64 107.04 97.12 C 110.32 94.80 110.54 90.11 113.30 87.34 Z" />
</g>
<g id="#b53d88ff">
<path fill="#b53d88" opacity="1.00" d=" M 227.04 35.12 C 228.98 35.13 230.92 35.13 232.86 35.13 C 238.77 35.12 244.68 35.15 250.59 35.10 C 250.93 36.03 251.27 36.96 251.61 37.89 C 244.04 38.08 236.46 37.99 228.88 37.99 L 228.08 37.99 C 227.73 37.03 227.38 36.08 227.04 35.12 Z" />
</g>
<g id="#e34997ff">
<path fill="#e34997" opacity="1.00" d=" M 188.19 81.70 C 189.40 66.38 194.08 51.50 200.32 37.51 C 209.54 38.58 218.83 37.75 228.08 37.99 L 228.88 37.99 C 230.74 42.76 232.80 47.46 234.07 52.43 C 231.36 51.77 228.60 51.32 225.82 51.13 C 222.32 51.36 218.85 52.11 215.61 53.49 C 206.72 57.60 200.62 67.23 201.30 77.09 C 201.20 82.03 203.47 86.51 205.72 90.76 C 207.60 96.15 212.81 99.24 217.84 101.24 C 225.52 103.88 234.22 102.52 240.91 97.97 C 241.37 103.60 241.34 109.25 240.96 114.88 C 234.21 114.94 227.43 114.45 220.71 115.40 C 219.35 115.45 217.99 115.48 216.63 115.50 C 211.32 115.51 206.00 115.45 200.69 115.50 C 196.51 115.53 192.32 115.53 188.14 115.49 C 188.08 120.05 188.08 124.62 188.16 129.19 C 192.43 129.14 196.70 129.13 200.97 129.14 C 206.24 129.14 211.51 129.14 216.77 129.14 C 223.49 129.13 230.21 129.13 236.94 129.13 C 238.32 129.13 239.71 129.13 241.11 129.14 C 240.73 146.61 238.46 164.21 232.69 180.77 C 231.97 180.17 231.26 179.57 230.54 178.98 C 231.40 169.40 231.38 159.78 231.73 150.18 C 232.03 146.72 228.85 144.66 225.81 144.19 C 222.81 145.13 219.93 147.50 220.47 150.99 C 221.37 169.55 221.93 188.15 222.98 206.71 C 219.79 206.80 216.61 207.01 213.42 207.08 C 211.57 206.70 209.57 206.23 208.42 204.59 C 202.38 197.01 198.47 187.99 195.45 178.85 C 193.15 171.29 191.25 163.61 190.05 155.80 C 188.91 148.68 188.24 141.50 187.86 134.30 C 187.43 128.31 187.82 122.31 187.49 116.32 C 187.72 104.78 186.95 93.20 188.19 81.70 Z" />
<path fill="#e34997" opacity="1.00" d=" M 357.34 219.58 C 359.87 218.96 362.49 219.14 365.04 219.53 C 365.73 219.71 367.12 220.07 367.82 220.25 C 368.15 221.23 368.48 222.22 368.80 223.22 C 369.15 225.88 369.18 228.56 369.05 231.24 C 368.91 235.35 367.34 239.18 366.40 243.13 C 366.54 246.66 367.78 250.03 368.46 253.48 C 363.18 254.49 356.64 251.88 352.47 256.18 C 351.51 255.65 350.55 255.13 349.60 254.60 C 349.60 253.92 349.60 252.57 349.61 251.89 C 349.64 248.29 349.91 244.60 348.80 241.12 C 347.87 238.99 346.78 236.94 345.65 234.91 C 345.12 236.05 344.60 237.18 344.12 238.34 C 344.31 233.20 344.22 227.87 346.16 223.03 C 346.87 220.98 349.22 220.64 350.99 219.98 C 353.00 221.57 355.28 220.38 357.34 219.58 Z" />
</g>
<g id="#d1418dff">
<path fill="#d1418d" opacity="1.00" d=" M 228.88 37.99 C 236.46 37.99 244.04 38.08 251.61 37.89 L 251.91 37.88 C 253.33 41.70 255.09 45.38 256.41 49.23 C 261.27 62.95 264.30 77.40 264.39 92.00 C 264.39 99.84 264.36 107.69 264.40 115.53 C 258.67 115.50 252.94 115.52 247.22 115.50 C 243.67 115.49 240.13 115.50 236.59 115.49 C 231.30 115.50 226.01 115.48 220.71 115.40 C 227.43 114.45 234.21 114.94 240.96 114.88 C 241.34 109.25 241.37 103.60 240.91 97.97 C 234.22 102.52 225.52 103.88 217.84 101.24 C 212.81 99.24 207.60 96.15 205.72 90.76 C 208.59 93.88 211.81 96.76 215.65 98.63 C 218.98 100.02 222.56 100.72 226.15 100.94 C 228.84 100.79 231.52 100.36 234.12 99.63 C 243.83 96.20 251.34 86.52 250.80 76.02 C 251.07 66.98 245.59 58.31 237.70 54.10 C 236.52 53.48 235.30 52.93 234.07 52.43 C 232.80 47.46 230.74 42.76 228.88 37.99 Z" />
<path fill="#d1418d" opacity="1.00" d=" M 241.11 129.14 C 243.14 129.14 245.18 129.15 247.22 129.15 C 252.93 129.14 258.64 129.14 264.35 129.13 C 264.32 130.91 264.32 132.70 264.24 134.49 C 263.50 141.69 263.37 148.95 262.03 156.08 C 260.54 163.52 259.02 170.98 256.69 178.21 C 253.72 187.33 249.97 196.39 244.00 204.00 C 242.82 205.66 240.93 206.50 238.99 206.89 C 235.75 206.84 232.51 206.75 229.27 206.81 C 230.00 197.54 230.31 188.26 230.54 178.98 C 231.26 179.57 231.97 180.17 232.69 180.77 C 238.46 164.21 240.73 146.61 241.11 129.14 Z" />
<path fill="#d1418d" opacity="1.00" d=" M 344.12 238.34 C 344.60 237.18 345.12 236.05 345.65 234.91 C 346.78 236.94 347.87 238.99 348.80 241.12 C 346.44 245.77 344.03 250.40 341.14 254.75 L 340.23 254.22 C 339.60 253.23 338.97 252.24 338.36 251.25 C 340.50 247.05 342.79 242.88 344.12 238.34 Z" />
</g>
<g id="#f0f5f7ff">
<path fill="#f0f5f7" opacity="1.00" d=" M 256.41 49.23 C 264.01 47.58 271.87 49.62 279.12 51.94 C 284.36 53.39 288.77 56.73 293.09 59.88 C 296.04 62.77 300.43 62.52 304.09 63.88 C 315.42 67.94 325.18 76.60 329.94 87.73 C 327.12 87.41 323.13 86.59 321.76 89.94 C 319.71 93.75 323.83 98.59 327.93 96.98 C 331.16 96.33 331.20 92.70 331.51 90.10 C 336.48 101.92 339.87 114.36 341.95 127.01 C 344.39 137.89 345.37 149.15 349.39 159.63 C 350.78 164.22 355.94 165.88 360.05 167.17 C 368.32 166.92 376.65 164.39 384.96 165.95 C 392.67 166.51 400.36 168.74 406.67 173.32 C 412.56 177.97 415.66 185.37 416.44 192.69 C 416.96 197.44 417.84 202.16 417.99 206.95 C 417.21 226.76 410.42 245.81 401.38 263.27 C 398.99 268.60 395.05 273.25 394.32 279.23 C 394.03 277.63 393.76 276.03 393.50 274.44 C 392.22 273.52 390.94 272.60 389.64 271.74 C 392.17 265.28 396.41 259.74 399.67 253.67 C 400.28 252.29 401.57 250.34 399.99 249.12 C 396.85 246.37 392.60 245.09 389.92 241.76 C 386.73 241.09 384.45 238.79 382.80 236.09 C 378.13 235.11 373.81 232.56 371.50 228.27 C 370.68 229.25 369.86 230.24 369.05 231.24 C 369.18 228.56 369.15 225.88 368.80 223.22 C 370.91 222.49 374.07 221.91 374.06 219.04 C 374.49 214.84 370.32 212.79 368.03 210.04 C 366.65 206.36 367.64 201.98 365.42 198.60 C 362.70 195.52 357.40 195.19 354.99 198.83 C 351.35 199.09 346.71 197.91 344.00 201.03 C 342.63 202.54 343.37 204.54 344.02 206.19 C 344.89 208.45 345.51 210.81 345.95 213.20 C 343.03 210.91 340.77 207.33 336.74 207.04 C 336.13 205.80 335.53 204.57 334.93 203.33 C 334.38 203.67 333.84 204.02 333.30 204.36 C 332.85 203.50 332.40 202.64 331.96 201.78 C 331.36 202.91 330.76 204.04 330.20 205.19 C 330.21 198.90 330.24 192.61 330.15 186.32 C 330.20 184.43 330.31 182.55 330.44 180.67 C 332.07 180.44 333.70 180.20 335.35 179.97 C 331.20 173.27 326.47 166.97 321.90 160.56 C 316.92 166.37 313.05 173.01 308.19 178.92 C 307.64 181.58 311.42 180.40 312.98 181.05 C 313.11 183.24 313.24 185.43 313.37 187.62 C 312.58 194.06 313.01 200.55 313.03 207.02 C 304.46 201.26 295.89 195.49 287.21 189.90 C 284.79 188.43 283.81 185.65 282.39 183.35 C 281.35 168.75 276.93 154.38 269.38 141.82 C 267.82 139.26 266.08 136.83 264.24 134.49 C 264.32 132.70 264.32 130.91 264.35 129.13 C 264.38 124.60 264.41 120.06 264.40 115.53 C 264.36 107.69 264.39 99.84 264.39 92.00 C 264.30 77.40 261.27 62.95 256.41 49.23 Z" />
</g>
<g id="#70c7d5ff">
<path fill="#70c7d5" opacity="1.00" d=" M 215.61 53.49 C 218.85 52.11 222.32 51.36 225.82 51.13 C 226.22 53.98 225.39 58.11 229.13 58.82 C 224.80 58.63 220.33 59.14 216.55 61.42 C 216.16 58.78 215.86 56.14 215.61 53.49 Z" />
<path fill="#70c7d5" opacity="1.00" d=" M 184.49 163.22 C 188.43 169.77 186.87 178.39 191.49 184.67 C 188.72 193.50 188.58 202.86 188.70 212.03 C 188.89 216.59 186.61 220.68 184.72 224.67 C 183.69 226.51 182.77 229.42 180.08 228.85 C 177.40 228.85 176.61 226.13 176.07 224.02 C 177.52 218.37 176.01 212.64 175.83 206.95 C 175.18 191.99 177.39 176.56 184.49 163.22 Z" />
</g>
<g id="#5ac1d1ff">
<path fill="#5ac1d1" opacity="1.00" d=" M 225.82 51.13 C 228.60 51.32 231.36 51.77 234.07 52.43 C 235.30 52.93 236.52 53.48 237.70 54.10 C 237.22 57.07 237.20 60.10 237.82 63.06 C 235.19 61.15 232.19 59.85 229.13 58.82 C 225.39 58.11 226.22 53.98 225.82 51.13 Z" />
</g>
<g id="#91d0dcff">
<path fill="#91d0dc" opacity="1.00" d=" M 201.30 77.09 C 200.62 67.23 206.72 57.60 215.61 53.49 C 215.86 56.14 216.16 58.78 216.55 61.42 C 212.48 64.77 209.06 69.52 209.17 75.00 C 209.03 78.94 211.59 82.16 213.29 85.50 C 213.31 85.99 213.35 86.97 213.38 87.45 C 214.04 88.30 214.76 89.09 215.51 89.86 C 215.70 92.78 215.71 95.71 215.65 98.63 C 211.81 96.76 208.59 93.88 205.72 90.76 C 203.47 86.51 201.20 82.03 201.30 77.09 Z" />
</g>
<g id="#3cb9ccff">
<path fill="#3cb9cc" opacity="1.00" d=" M 237.82 63.06 C 237.20 60.10 237.22 57.07 237.70 54.10 C 245.59 58.31 251.07 66.98 250.80 76.02 C 251.34 86.52 243.83 96.20 234.12 99.63 C 233.58 97.24 232.99 94.87 232.33 92.51 C 235.06 91.44 236.96 89.25 238.03 86.57 C 240.69 82.87 243.57 78.77 243.33 73.98 C 242.90 69.82 240.65 66.05 237.82 63.06 Z" />
</g>
<g id="#c2e6f3ff">
<path fill="#c2e6f3" opacity="1.00" d=" M 216.55 61.42 C 220.33 59.14 224.80 58.63 229.13 58.82 C 232.19 59.85 235.19 61.15 237.82 63.06 C 240.65 66.05 242.90 69.82 243.33 73.98 C 243.57 78.77 240.69 82.87 238.03 86.57 C 234.37 88.79 230.40 91.06 225.98 90.88 C 221.19 91.00 216.69 88.74 213.29 85.50 C 211.59 82.16 209.03 78.94 209.17 75.00 C 209.06 69.52 212.48 64.77 216.55 61.42 M 223.37 65.39 C 221.30 65.78 218.57 66.64 218.23 69.07 C 218.33 70.64 220.05 71.13 221.24 71.70 C 225.04 73.22 230.14 73.12 233.07 69.94 C 233.76 65.00 226.74 64.90 223.37 65.39 M 233.25 75.99 C 233.52 78.78 236.72 79.18 238.70 77.82 C 238.68 76.63 238.68 75.43 238.69 74.24 C 236.76 72.84 233.51 73.22 233.25 75.99 Z" />
</g>
<g id="#e1f3f9ff">
<path fill="#e1f3f9" opacity="1.00" d=" M 223.37 65.39 C 226.74 64.90 233.76 65.00 233.07 69.94 C 230.14 73.12 225.04 73.22 221.24 71.70 C 220.05 71.13 218.33 70.64 218.23 69.07 C 218.57 66.64 221.30 65.78 223.37 65.39 Z" />
<path fill="#e1f3f9" opacity="1.00" d=" M 233.25 75.99 C 233.51 73.22 236.76 72.84 238.69 74.24 C 238.68 75.43 238.68 76.63 238.70 77.82 C 236.72 79.18 233.52 78.78 233.25 75.99 Z" />
</g>
<g id="#f0f6f8ff">
<path fill="#f0f6f8" opacity="1.00" d=" M 184.61 83.64 C 185.75 82.91 186.98 82.31 188.19 81.70 C 186.95 93.20 187.72 104.78 187.49 116.32 C 187.07 113.32 186.89 110.28 186.38 107.30 C 184.58 105.33 182.07 103.84 179.44 103.35 C 172.63 107.52 165.50 111.25 159.15 116.12 C 150.59 122.26 141.36 127.49 133.34 134.35 C 132.15 135.53 130.48 135.07 129.02 134.94 C 128.61 135.85 128.19 136.76 127.78 137.67 C 126.58 137.36 125.37 137.05 124.16 136.76 C 123.61 136.53 122.49 136.07 121.94 135.83 C 130.81 127.73 139.14 119.04 148.57 111.55 C 159.89 101.40 172.25 92.48 184.61 83.64 Z" />
</g>
<g id="#5fb2c7ff">
<path fill="#5fb2c7" opacity="1.00" d=" M 213.38 87.45 C 213.35 86.97 213.31 85.99 213.29 85.50 C 216.69 88.74 221.19 91.00 225.98 90.88 C 230.40 91.06 234.37 88.79 238.03 86.57 C 236.96 89.25 235.06 91.44 232.33 92.51 C 229.60 92.97 226.83 93.24 224.06 93.30 C 221.02 92.71 218.05 91.68 215.51 89.86 C 214.76 89.09 214.04 88.30 213.38 87.45 Z" />
</g>
<g id="#c9dbecff">
<path fill="#c9dbec" opacity="1.00" d=" M 321.76 89.94 C 323.13 86.59 327.12 87.41 329.94 87.73 C 330.33 88.32 331.11 89.51 331.51 90.10 C 331.20 92.70 331.16 96.33 327.93 96.98 C 323.83 98.59 319.71 93.75 321.76 89.94 M 324.37 89.39 C 320.90 91.43 324.54 97.56 327.97 95.11 C 332.29 93.34 327.93 86.75 324.37 89.39 Z" />
</g>
<g id="#f2f6f8ff">
<path fill="#f2f6f8" opacity="1.00" d=" M 324.37 89.39 C 327.93 86.75 332.29 93.34 327.97 95.11 C 324.54 97.56 320.90 91.43 324.37 89.39 Z" />
<path fill="#f2f6f8" opacity="1.00" d=" M 44.45 225.33 C 45.27 224.23 46.45 223.50 47.54 222.72 C 47.59 224.71 47.69 226.71 47.77 228.71 C 47.22 232.10 46.10 235.40 44.31 238.33 C 38.97 247.36 34.40 256.84 30.72 266.66 C 26.81 277.61 24.15 289.79 28.23 301.10 C 22.72 297.62 19.44 291.37 18.75 284.99 C 17.11 278.56 19.15 272.09 20.89 265.92 C 26.11 251.05 34.92 237.77 44.45 225.33 Z" />
<path fill="#f2f6f8" opacity="1.00" d=" M 374.10 289.71 C 378.19 285.27 384.77 285.36 389.83 282.54 C 384.12 292.81 375.68 301.16 367.23 309.18 C 354.36 320.11 338.30 327.20 321.58 329.56 C 313.13 331.24 304.49 331.04 295.92 331.04 C 294.43 331.10 293.03 330.61 291.68 330.07 C 296.91 329.50 302.14 328.90 307.35 328.12 C 327.11 325.01 345.63 315.74 360.71 302.69 C 365.16 298.10 372.25 301.11 377.25 297.54 C 376.07 297.28 374.90 297.02 373.73 296.77 C 373.75 296.49 373.79 295.93 373.82 295.65 C 373.97 293.67 374.08 291.69 374.10 289.71 Z" />
</g>
<g id="#76c9d7ff">
<path fill="#76c9d7" opacity="1.00" d=" M 215.51 89.86 C 218.05 91.68 221.02 92.71 224.06 93.30 C 226.56 95.02 225.76 98.37 226.15 100.94 C 222.56 100.72 218.98 100.02 215.65 98.63 C 215.71 95.71 215.70 92.78 215.51 89.86 Z" />
</g>
<g id="#5fc2d2ff">
<path fill="#5fc2d2" opacity="1.00" d=" M 224.06 93.30 C 226.83 93.24 229.60 92.97 232.33 92.51 C 232.99 94.87 233.58 97.24 234.12 99.63 C 231.52 100.36 228.84 100.79 226.15 100.94 C 225.76 98.37 226.56 95.02 224.06 93.30 Z" />
</g>
<g id="#e4f3f8ff">
<path fill="#e4f3f8" opacity="1.00" d=" M 179.44 103.35 C 182.07 103.84 184.58 105.33 186.38 107.30 C 186.89 110.28 187.07 113.32 187.49 116.32 C 187.82 122.31 187.43 128.31 187.86 134.30 C 186.06 136.73 184.28 139.18 182.71 141.77 C 176.23 152.78 171.75 165.04 170.33 177.76 C 168.83 177.28 167.34 176.78 165.86 176.26 C 163.26 173.05 159.43 170.93 155.44 170.00 C 155.39 169.42 155.33 168.85 155.28 168.27 C 152.58 166.31 149.79 164.48 146.94 162.75 C 146.03 165.20 145.04 167.63 143.78 169.92 C 145.19 164.80 145.95 159.25 144.15 154.12 C 141.95 146.33 135.55 139.95 127.78 137.67 C 128.19 136.76 128.61 135.85 129.02 134.94 C 130.48 135.07 132.15 135.53 133.34 134.35 C 141.36 127.49 150.59 122.26 159.15 116.12 C 165.50 111.25 172.63 107.52 179.44 103.35 M 163.81 130.92 C 164.37 132.03 164.94 133.15 165.50 134.27 C 164.91 135.30 164.32 136.32 163.73 137.35 C 164.85 137.01 165.97 136.67 167.09 136.33 C 168.35 136.63 169.61 136.93 170.86 137.23 C 170.31 136.23 169.75 135.24 169.20 134.24 C 169.60 133.11 169.99 131.98 170.39 130.85 C 169.42 131.39 168.46 131.94 167.50 132.49 C 166.27 131.96 165.04 131.43 163.81 130.92 Z" />
<path fill="#e4f3f8" opacity="1.00" d=" M 244.00 204.00 C 249.97 196.39 253.72 187.33 256.69 178.21 C 257.86 179.99 259.04 181.76 260.12 183.60 C 263.89 192.54 263.43 202.45 263.41 211.95 C 263.26 217.44 266.48 222.15 268.26 227.15 C 265.23 224.71 262.55 221.82 259.22 219.79 C 254.84 217.35 249.41 217.33 244.74 218.91 C 243.94 219.87 243.18 220.88 242.43 221.88 C 241.28 216.88 239.83 211.95 238.99 206.89 C 240.93 206.50 242.82 205.66 244.00 204.00 Z" />
</g>
<g id="#97d2deff">
<path fill="#97d2de" opacity="1.00" d=" M 188.14 115.49 C 192.32 115.53 196.51 115.53 200.69 115.50 C 200.29 120.04 200.38 124.61 200.97 129.14 C 196.70 129.13 192.43 129.14 188.16 129.19 C 188.08 124.62 188.08 120.05 188.14 115.49 Z" />
</g>
<g id="#84cbd9ff">
<path fill="#84cbd9" opacity="1.00" d=" M 200.69 115.50 C 206.00 115.45 211.32 115.51 216.63 115.50 C 216.58 120.05 217.10 124.59 216.77 129.14 C 211.51 129.14 206.24 129.14 200.97 129.14 C 200.38 124.61 200.29 120.04 200.69 115.50 Z" />
</g>
<g id="#65c3d3ff">
<path fill="#65c3d3" opacity="1.00" d=" M 216.63 115.50 C 217.99 115.48 219.35 115.45 220.71 115.40 C 226.01 115.48 231.30 115.50 236.59 115.49 C 236.35 120.04 236.62 124.59 236.94 129.13 C 230.21 129.13 223.49 129.13 216.77 129.14 C 217.10 124.59 216.58 120.05 216.63 115.50 Z" />
<path fill="#65c3d3" opacity="1.00" d=" M 267.25 163.31 C 268.70 166.01 270.05 168.78 271.10 171.67 C 270.47 188.77 271.02 205.88 270.72 222.98 C 270.49 225.33 271.14 227.58 273.07 229.07 C 272.76 229.13 272.12 229.26 271.81 229.32 C 270.52 228.77 269.32 228.05 268.26 227.15 C 266.48 222.15 263.26 217.44 263.41 211.95 C 263.43 202.45 263.89 192.54 260.12 183.60 C 264.39 177.58 264.64 170.01 267.25 163.31 Z" />
</g>
<g id="#4cbfcfff">
<path fill="#4cbfcf" opacity="1.00" d=" M 236.59 115.49 C 240.13 115.50 243.67 115.49 247.22 115.50 C 247.51 120.04 247.71 124.61 247.22 129.15 C 245.18 129.15 243.14 129.14 241.11 129.14 C 239.71 129.13 238.32 129.13 236.94 129.13 C 236.62 124.59 236.35 120.04 236.59 115.49 Z" />
</g>
<g id="#34b8cbff">
<path fill="#34b8cb" opacity="1.00" d=" M 247.22 115.50 C 252.94 115.52 258.67 115.50 264.40 115.53 C 264.41 120.06 264.38 124.60 264.35 129.13 C 258.64 129.14 252.93 129.14 247.22 129.15 C 247.71 124.61 247.51 120.04 247.22 115.50 Z" />
</g>
<g id="#f6daa8ff">
<path fill="#f6daa8" opacity="1.00" d=" M 163.81 130.92 C 165.04 131.43 166.27 131.96 167.50 132.49 C 168.46 131.94 169.42 131.39 170.39 130.85 C 169.99 131.98 169.60 133.11 169.20 134.24 C 169.75 135.24 170.31 136.23 170.86 137.23 C 169.61 136.93 168.35 136.63 167.09 136.33 C 165.97 136.67 164.85 137.01 163.73 137.35 C 164.32 136.32 164.91 135.30 165.50 134.27 C 164.94 133.15 164.37 132.03 163.81 130.92 Z" />
</g>
<g id="#002b3bff">
<path fill="#002b3b" opacity="1.00" d=" M 53.11 134.04 C 57.08 131.40 62.20 131.94 66.66 132.76 C 67.25 134.38 68.14 136.22 66.94 137.79 C 64.01 140.01 60.01 139.64 56.61 140.71 C 56.61 142.41 56.61 144.12 56.63 145.83 C 55.78 145.73 54.08 145.53 53.23 145.43 C 53.91 147.51 55.20 149.27 56.43 151.05 L 54.47 150.45 C 52.06 148.61 49.80 146.10 49.40 142.97 C 48.77 139.50 51.85 137.00 53.11 134.04 Z" />
</g>
<g id="#fcd1b2ff">
<path fill="#fcd1b2" opacity="1.00" d=" M 66.66 132.76 C 68.91 133.90 69.15 136.77 67.52 138.57 C 64.16 141.17 67.07 145.55 66.21 149.03 C 64.88 153.29 63.52 157.59 61.12 161.39 L 60.40 160.50 C 58.99 158.89 57.13 157.77 55.39 156.56 C 55.47 155.17 55.55 153.77 55.63 152.38 C 55.24 151.74 54.85 151.10 54.47 150.45 L 56.43 151.05 C 55.20 149.27 53.91 147.51 53.23 145.43 C 54.08 145.53 55.78 145.73 56.63 145.83 C 56.61 144.12 56.61 142.41 56.61 140.71 C 60.01 139.64 64.01 140.01 66.94 137.79 C 68.14 136.22 67.25 134.38 66.66 132.76 Z" />
<path fill="#fcd1b2" opacity="1.00" d=" M 93.14 178.46 C 94.95 177.42 96.79 176.44 98.63 175.46 C 98.47 176.16 98.17 177.54 98.02 178.23 C 99.63 177.95 101.23 177.62 102.84 177.34 C 103.65 178.25 104.47 179.16 105.31 180.05 C 102.12 181.95 98.41 181.98 94.83 182.30 C 94.27 181.02 93.71 179.73 93.14 178.46 Z" />
<path fill="#fcd1b2" opacity="1.00" d=" M 60.72 189.49 C 62.28 189.08 63.85 188.68 65.41 188.25 C 65.81 188.13 66.60 187.89 66.99 187.77 C 66.11 188.53 65.24 189.29 64.37 190.07 C 66.72 190.66 69.08 191.25 71.42 191.88 C 68.76 194.72 65.03 194.26 61.66 193.26 C 61.35 192.00 61.03 190.74 60.72 189.49 Z" />
<path fill="#fcd1b2" opacity="1.00" d=" M 103.07 202.77 C 106.06 201.64 109.06 200.49 111.75 198.75 C 113.33 202.48 115.33 206.62 113.51 210.66 C 112.14 211.24 110.77 211.79 109.38 212.32 C 109.73 214.42 110.10 216.52 110.52 218.61 C 108.46 221.41 105.09 220.50 102.94 218.35 C 103.31 215.14 103.37 211.91 103.45 208.69 C 102.73 208.25 101.28 207.38 100.56 206.95 C 101.35 206.50 102.93 205.62 103.72 205.18 C 103.56 204.58 103.24 203.37 103.07 202.77 Z" />
<path fill="#fcd1b2" opacity="1.00" d=" M 117.93 201.93 C 119.15 200.52 120.70 199.52 122.33 198.66 C 121.42 199.69 120.17 200.59 119.90 202.03 C 119.88 204.97 123.24 202.91 124.89 202.60 C 125.24 203.69 125.59 204.79 126.00 205.87 C 124.73 206.26 123.47 206.65 122.20 207.04 C 121.55 206.34 120.89 205.63 120.26 204.92 C 119.45 203.94 118.69 202.93 117.93 201.93 Z" />
<path fill="#fcd1b2" opacity="1.00" d=" M 344.02 206.19 C 346.37 205.46 348.73 204.76 351.11 204.10 C 351.78 205.22 352.47 206.35 353.16 207.47 C 353.90 207.35 355.39 207.11 356.13 207.00 C 355.90 208.99 355.62 210.98 355.53 212.99 C 355.93 215.24 356.63 217.42 357.34 219.58 C 355.28 220.38 353.00 221.57 350.99 219.98 C 350.70 216.88 348.12 215.05 345.95 213.20 C 345.51 210.81 344.89 208.45 344.02 206.19 Z" />
<path fill="#fcd1b2" opacity="1.00" d=" M 108.53 243.35 C 112.37 243.64 116.23 243.62 120.09 243.47 C 119.91 244.00 119.55 245.06 119.37 245.59 C 118.67 246.13 117.97 246.68 117.27 247.23 C 115.61 247.22 113.95 247.23 112.29 247.26 C 112.17 246.50 111.93 245.00 111.81 244.24 C 110.71 243.95 109.62 243.65 108.53 243.35 Z" />
<path fill="#fcd1b2" opacity="1.00" d=" M 79.88 277.72 C 81.85 277.68 83.81 277.62 85.78 277.53 C 86.05 278.03 86.60 279.02 86.88 279.51 C 85.44 279.94 84.20 280.77 82.98 281.60 C 82.45 281.32 81.38 280.75 80.84 280.47 L 80.10 280.07 C 80.05 279.49 79.94 278.31 79.88 277.72 Z" />
</g>
<g id="#24a0baff">
<path fill="#24a0ba" opacity="1.00" d=" M 187.86 134.30 C 188.24 141.50 188.91 148.68 190.05 155.80 C 188.43 157.64 186.79 159.47 185.37 161.47 C 183.70 155.04 183.02 148.40 182.71 141.77 C 184.28 139.18 186.06 136.73 187.86 134.30 Z" />
<path fill="#24a0ba" opacity="1.00" d=" M 264.24 134.49 C 266.08 136.83 267.82 139.26 269.38 141.82 C 268.86 148.66 268.18 155.51 266.61 162.20 C 265.27 160.03 263.65 158.05 262.03 156.08 C 263.37 148.95 263.50 141.69 264.24 134.49 Z" />
</g>
<g id="#fdb615ff">
<path fill="#fdb615" opacity="1.00" d=" M 103.73 143.70 C 108.95 138.25 116.78 136.07 124.16 136.76 C 125.37 137.05 126.58 137.36 127.78 137.67 C 135.55 139.95 141.95 146.33 144.15 154.12 C 145.95 159.25 145.19 164.80 143.78 169.92 C 141.09 175.21 137.32 180.27 131.81 182.86 C 123.73 187.05 113.49 185.99 106.20 180.63 C 105.97 180.49 105.53 180.20 105.31 180.05 C 104.47 179.16 103.65 178.25 102.84 177.34 C 102.00 176.40 101.14 175.48 100.27 174.59 C 99.86 174.81 99.04 175.25 98.63 175.46 C 96.79 176.44 94.95 177.42 93.14 178.46 C 91.63 179.33 90.13 180.22 88.63 181.10 C 88.15 180.22 87.65 179.35 87.12 178.50 C 91.04 176.30 94.95 174.07 98.81 171.76 C 98.13 169.90 97.43 168.04 96.70 166.20 C 95.40 158.15 97.68 149.36 103.73 143.70 M 99.11 160.10 C 99.31 164.60 100.21 169.21 102.87 172.95 C 107.46 180.20 116.73 183.94 125.08 182.18 C 132.82 180.70 139.51 174.58 141.53 166.95 C 144.03 158.96 141.04 149.76 134.57 144.51 C 130.09 140.49 123.89 139.12 118.01 139.56 C 107.91 141.05 99.63 149.84 99.11 160.10 Z" />
<path fill="#fdb615" opacity="1.00" d=" M 166.30 233.84 C 170.16 231.65 174.62 231.16 178.97 231.54 C 183.94 233.20 188.63 236.57 190.30 241.75 C 194.04 250.42 188.03 261.19 178.94 263.14 C 169.88 265.62 159.71 258.45 159.23 249.02 C 158.40 243.06 161.55 237.28 166.30 233.84 M 168.48 237.01 C 172.75 236.30 177.62 234.87 181.47 237.69 C 186.04 240.19 186.85 245.82 187.39 250.49 C 190.09 244.65 185.69 237.02 179.66 235.22 C 176.08 234.14 171.07 233.79 168.48 237.01 M 175.25 238.60 C 174.21 239.78 173.14 240.94 172.03 242.06 C 173.50 241.09 175.10 240.29 176.91 240.25 C 176.35 239.70 175.79 239.15 175.25 238.60 M 164.70 239.95 C 163.75 242.54 162.52 245.17 162.57 247.98 C 163.00 252.05 165.12 256.04 168.66 258.22 C 171.40 260.10 174.92 259.42 178.04 259.43 C 181.52 259.41 183.73 256.31 185.85 253.98 C 183.17 256.18 180.73 259.31 176.90 259.11 C 171.36 260.15 165.64 257.06 163.85 251.66 C 161.88 247.83 163.94 243.79 164.70 239.95 M 172.75 242.77 C 172.89 243.45 173.19 244.81 173.33 245.49 C 175.29 246.45 177.15 247.59 178.93 248.87 C 178.87 250.39 178.84 251.92 178.83 253.45 C 179.14 253.06 179.75 252.26 180.06 251.86 C 181.84 248.44 177.74 246.56 175.85 244.41 C 176.71 244.30 178.43 244.09 179.29 243.98 C 179.28 243.08 179.27 241.26 179.27 240.35 C 177.79 242.66 175.23 242.85 172.75 242.77 M 182.10 245.19 C 181.60 246.82 182.16 247.37 183.79 246.85 C 184.28 245.22 183.72 244.66 182.10 245.19 M 174.31 254.13 C 173.01 255.32 175.11 257.62 176.23 256.04 C 177.62 254.76 175.58 252.64 174.31 254.13 Z" />
<path fill="#fdb615" opacity="1.00" d=" M 342.52 271.50 C 350.36 268.99 358.59 267.47 365.97 263.69 L 366.97 263.28 C 367.01 269.60 367.04 275.92 366.96 282.25 C 364.31 280.07 361.74 277.57 358.42 276.46 C 354.59 275.30 350.51 276.09 346.62 275.38 C 345.01 274.37 343.84 272.83 342.52 271.50 Z" />
</g>
<g id="#ebf5f8ff">
<path fill="#ebf5f8" opacity="1.00" d=" M 99.11 160.10 C 99.63 149.84 107.91 141.05 118.01 139.56 C 117.84 140.13 117.51 141.25 117.34 141.81 C 123.90 141.62 131.07 143.21 135.33 148.62 C 136.94 150.07 136.99 152.28 137.05 154.29 C 134.09 152.12 131.87 149.09 128.80 147.07 C 123.71 144.10 117.40 145.15 112.31 147.53 C 107.29 151.56 106.26 158.15 103.96 163.78 C 103.14 161.96 102.61 160.05 102.28 158.09 C 101.23 158.76 100.17 159.43 99.11 160.10 Z" />
</g>
<g id="#cfeaf5ff">
<path fill="#cfeaf5" opacity="1.00" d=" M 118.01 139.56 C 123.89 139.12 130.09 140.49 134.57 144.51 C 141.04 149.76 144.03 158.96 141.53 166.95 C 139.51 174.58 132.82 180.70 125.08 182.18 C 116.73 183.94 107.46 180.20 102.87 172.95 C 100.21 169.21 99.31 164.60 99.11 160.10 C 100.17 159.43 101.23 158.76 102.28 158.09 C 102.61 160.05 103.14 161.96 103.96 163.78 C 106.26 158.15 107.29 151.56 112.31 147.53 C 117.40 145.15 123.71 144.10 128.80 147.07 C 131.87 149.09 134.09 152.12 137.05 154.29 C 136.99 152.28 136.94 150.07 135.33 148.62 C 131.07 143.21 123.90 141.62 117.34 141.81 C 117.51 141.25 117.84 140.13 118.01 139.56 Z" />
<path fill="#cfeaf5" opacity="1.00" d=" M 150.23 180.58 C 150.89 180.61 152.22 180.65 152.88 180.68 C 154.37 183.13 156.86 186.29 154.09 188.89 C 151.27 187.01 149.92 183.94 150.23 180.58 Z" />
</g>
<g id="#25b4c8ff">
<path fill="#25b4c8" opacity="1.00" d=" M 170.33 177.76 C 171.75 165.04 176.23 152.78 182.71 141.77 C 183.02 148.40 183.70 155.04 185.37 161.47 C 185.07 162.05 184.77 162.63 184.49 163.22 C 177.39 176.56 175.18 191.99 175.83 206.95 C 176.01 212.64 177.52 218.37 176.07 224.02 C 170.92 209.26 168.05 193.36 170.33 177.76 Z" />
<path fill="#25b4c8" opacity="1.00" d=" M 269.38 141.82 C 276.93 154.38 281.35 168.75 282.39 183.35 C 283.12 197.41 280.62 211.48 275.75 224.65 C 273.87 220.26 275.39 215.51 275.36 210.94 C 275.45 197.79 276.25 184.10 271.10 171.67 C 270.05 168.78 268.70 166.01 267.25 163.31 C 267.09 163.03 266.77 162.48 266.61 162.20 C 268.18 155.51 268.86 148.66 269.38 141.82 Z" />
<path fill="#25b4c8" opacity="1.00" d=" M 225.81 144.19 C 228.85 144.66 232.03 146.72 231.73 150.18 C 231.38 159.78 231.40 169.40 230.54 178.98 C 230.31 188.26 230.00 197.54 229.27 206.81 C 229.15 212.39 229.38 218.03 228.15 223.52 C 224.27 221.60 226.25 216.40 225.76 212.96 C 225.92 190.03 225.83 167.12 225.81 144.19 Z" />
</g>
<g id="#84cad8ff">
<path fill="#84cad8" opacity="1.00" d=" M 220.47 150.99 C 219.93 147.50 222.81 145.13 225.81 144.19 C 225.83 167.12 225.92 190.03 225.76 212.96 C 226.25 216.40 224.27 221.60 228.15 223.52 C 227.66 223.62 226.68 223.82 226.19 223.92 C 225.35 223.32 224.51 222.72 223.67 222.13 C 223.50 219.65 223.37 217.16 223.34 214.68 C 223.31 212.02 223.25 209.36 222.98 206.71 C 221.93 188.15 221.37 169.55 220.47 150.99 Z" />
</g>
<g id="#48a8c0ff">
<path fill="#48a8c0" opacity="1.00" d=" M 185.37 161.47 C 186.79 159.47 188.43 157.64 190.05 155.80 C 191.25 163.61 193.15 171.29 195.45 178.85 C 193.98 180.68 192.57 182.58 191.49 184.67 C 186.87 178.39 188.43 169.77 184.49 163.22 C 184.77 162.63 185.07 162.05 185.37 161.47 Z" />
</g>
<g id="#64b1c6ff">
<path fill="#64b1c6" opacity="1.00" d=" M 256.69 178.21 C 259.02 170.98 260.54 163.52 262.03 156.08 C 263.65 158.05 265.27 160.03 266.61 162.20 C 266.77 162.48 267.09 163.03 267.25 163.31 C 264.64 170.01 264.39 177.58 260.12 183.60 C 259.04 181.76 257.86 179.99 256.69 178.21 Z" />
</g>
<g id="#5fa9ddff">
<path fill="#5fa9dd" opacity="1.00" d=" M 40.70 164.50 C 43.99 161.14 48.67 159.59 53.09 158.30 C 55.08 159.94 57.15 161.48 59.31 162.91 C 59.35 166.94 59.68 170.97 59.70 175.01 C 59.81 179.84 59.25 184.79 60.72 189.49 C 61.03 190.74 61.35 192.00 61.66 193.26 C 59.54 193.76 57.42 194.26 55.29 194.76 C 56.33 196.57 57.37 198.39 58.41 200.21 C 63.39 198.04 67.92 195.03 72.68 192.43 C 72.60 195.72 72.45 199.01 72.65 202.30 C 64.39 204.04 55.87 204.04 47.59 202.48 C 47.50 199.97 47.37 197.47 47.18 194.98 C 45.20 194.42 42.09 195.26 41.11 192.93 C 39.06 188.27 38.77 183.05 38.53 178.03 C 38.56 173.48 38.43 168.59 40.70 164.50 Z" />
<path fill="#5fa9dd" opacity="1.00" d=" M 65.54 159.19 C 68.95 160.67 72.85 161.91 75.17 165.00 C 77.47 169.53 78.38 174.58 79.78 179.43 C 80.30 179.39 81.33 179.32 81.84 179.29 C 76.89 182.11 71.81 184.71 66.99 187.77 C 66.60 187.89 65.81 188.13 65.41 188.25 C 64.24 179.28 64.25 169.96 61.12 161.39 C 63.16 162.66 64.24 160.35 65.54 159.19 Z" />
<path fill="#5fa9dd" opacity="1.00" d=" M 88.63 181.10 C 90.13 180.22 91.63 179.33 93.14 178.46 C 93.71 179.73 94.27 181.02 94.83 182.30 C 91.00 185.86 85.55 186.33 80.80 187.97 C 83.65 186.30 86.52 184.64 89.34 182.91 C 89.16 182.46 88.81 181.56 88.63 181.10 Z" />
<path fill="#5fa9dd" opacity="1.00" d=" M 319.73 247.41 C 321.01 247.48 322.30 247.55 323.59 247.63 C 328.11 248.34 332.61 249.20 337.18 249.53 C 337.48 249.96 338.06 250.82 338.36 251.25 C 338.97 252.24 339.60 253.23 340.23 254.22 C 340.35 254.39 340.58 254.73 340.69 254.90 C 341.64 257.32 344.09 257.52 346.36 257.58 C 345.33 257.94 344.29 258.25 343.26 258.59 C 344.10 260.11 344.95 261.63 345.78 263.17 C 339.44 263.24 333.37 260.72 327.01 260.94 C 324.41 256.52 321.81 252.10 319.73 247.41 Z" />
</g>
<g id="#e24962ff">
<path fill="#e24962" opacity="1.00" d=" M 60.40 160.50 L 61.12 161.39 C 64.25 169.96 64.24 179.28 65.41 188.25 C 63.85 188.68 62.28 189.08 60.72 189.49 C 59.25 184.79 59.81 179.84 59.70 175.01 C 59.68 170.97 59.35 166.94 59.31 162.91 C 59.58 162.31 60.13 161.10 60.40 160.50 Z" />
</g>
<g id="#e0c2ddff">
<path fill="#e0c2dd" opacity="1.00" d=" M 308.19 178.92 C 313.05 173.01 316.92 166.37 321.90 160.56 C 326.47 166.97 331.20 173.27 335.35 179.97 C 333.70 180.20 332.07 180.44 330.44 180.67 C 330.31 182.55 330.20 184.43 330.15 186.32 C 328.56 185.79 326.98 185.25 325.40 184.68 C 324.02 185.63 322.65 186.60 321.28 187.57 C 320.70 186.97 320.13 186.37 319.57 185.78 C 319.91 185.05 320.25 184.33 320.60 183.60 C 319.24 184.44 317.89 185.29 316.55 186.15 C 314.52 184.84 314.01 182.48 313.48 180.29 C 311.72 179.81 309.96 179.35 308.19 178.92 Z" />
</g>
<g id="#dbf1faff">
<path fill="#dbf1fa" opacity="1.00" d=" M 143.78 169.92 C 145.04 167.63 146.03 165.20 146.94 162.75 C 149.79 164.48 152.58 166.31 155.28 168.27 C 155.33 168.85 155.39 169.42 155.44 170.00 C 159.43 170.93 163.26 173.05 165.86 176.26 C 167.34 176.78 168.83 177.28 170.33 177.76 C 168.05 193.36 170.92 209.26 176.07 224.02 C 176.61 226.13 177.40 228.85 180.08 228.85 C 182.77 229.42 183.69 226.51 184.72 224.67 C 186.61 220.68 188.89 216.59 188.70 212.03 C 188.58 202.86 188.72 193.50 191.49 184.67 C 192.57 182.58 193.98 180.68 195.45 178.85 C 198.47 187.99 202.38 197.01 208.42 204.59 C 209.57 206.23 211.57 206.70 213.42 207.08 C 212.52 210.71 211.61 214.34 210.69 217.97 C 206.35 217.78 201.58 217.21 197.71 219.66 C 191.34 223.45 186.69 230.21 178.97 231.54 C 174.62 231.16 170.16 231.65 166.30 233.84 C 163.26 232.11 160.23 230.39 157.21 228.64 C 158.07 221.25 157.68 213.80 158.02 206.38 C 159.71 206.14 161.40 205.90 163.10 205.66 C 159.95 200.47 156.21 195.69 152.78 190.69 C 153.34 190.45 154.48 189.97 155.04 189.73 C 155.90 189.34 156.76 188.95 157.62 188.56 C 157.45 185.09 156.26 181.70 153.37 179.58 C 150.37 179.16 148.11 181.34 145.68 182.69 C 137.41 187.25 129.90 193.04 122.33 198.66 C 120.70 199.52 119.15 200.52 117.93 201.93 C 116.93 202.50 115.94 203.07 114.95 203.64 C 115.97 206.01 118.20 205.53 120.26 204.92 C 120.89 205.63 121.55 206.34 122.20 207.04 C 123.65 212.45 125.99 217.55 127.91 222.80 C 122.94 222.49 118.48 220.03 113.63 219.16 C 114.74 217.97 117.35 217.30 116.67 215.25 C 115.78 213.60 114.58 212.17 113.51 210.66 C 115.33 206.62 113.33 202.48 111.75 198.75 C 113.92 196.91 114.49 192.77 111.47 191.46 C 109.14 190.18 107.02 192.22 105.12 193.32 C 102.69 191.81 100.31 190.20 98.00 188.51 C 100.62 185.77 103.35 183.13 106.20 180.63 C 113.49 185.99 123.73 187.05 131.81 182.86 C 137.32 180.27 141.09 175.21 143.78 169.92 Z" />
<path fill="#dbf1fa" opacity="1.00" d=" M 97.44 329.38 L 98.14 329.22 C 97.50 333.37 97.01 337.55 96.92 341.76 C 99.63 341.75 102.34 341.73 105.05 341.69 C 103.65 337.53 102.40 333.19 103.21 328.77 C 103.65 329.36 104.53 330.55 104.96 331.14 C 110.98 330.02 117.11 329.79 123.20 329.39 C 122.86 329.82 122.18 330.69 121.84 331.13 C 123.13 335.99 122.72 341.06 122.88 346.03 C 122.81 349.11 123.16 352.27 122.34 355.29 C 118.90 356.25 115.20 355.72 111.66 355.95 C 103.04 355.20 93.91 352.78 87.55 346.59 C 84.27 343.66 83.67 338.06 86.92 334.89 C 89.90 332.22 93.72 330.71 97.44 329.38 Z" />
</g>
<g id="#d9f0f9ff">
<path fill="#d9f0f9" opacity="1.00" d=" M 86.09 176.85 C 89.49 172.93 92.60 168.78 95.94 164.82 C 96.13 165.17 96.51 165.86 96.70 166.20 C 97.43 168.04 98.13 169.90 98.81 171.76 C 94.95 174.07 91.04 176.30 87.12 178.50 C 86.87 178.09 86.35 177.26 86.09 176.85 Z" />
<path fill="#d9f0f9" opacity="1.00" d=" M 336.74 295.49 C 346.83 295.63 356.92 295.42 367.00 295.61 C 369.27 295.65 371.54 295.65 373.82 295.65 C 373.79 295.93 373.75 296.49 373.73 296.77 C 374.90 297.02 376.07 297.28 377.25 297.54 C 372.25 301.11 365.16 298.10 360.71 302.69 C 345.63 315.74 327.11 325.01 307.35 328.12 C 297.87 321.21 287.77 315.19 278.36 308.20 C 273.53 305.02 268.32 302.45 263.71 298.94 C 282.26 299.00 300.73 296.97 319.22 295.76 C 319.26 297.36 319.33 298.97 319.41 300.58 C 320.95 300.55 322.49 300.52 324.04 300.50 C 323.98 300.72 323.85 301.16 323.79 301.38 C 319.55 302.42 315.56 304.23 311.82 306.45 C 315.96 307.98 320.45 307.06 324.74 306.88 L 324.06 308.90 C 327.98 308.83 331.91 308.79 335.83 308.64 C 335.76 306.95 335.67 305.27 335.57 303.59 C 334.18 303.65 332.79 303.71 331.41 303.76 C 331.26 303.41 330.96 302.71 330.81 302.37 C 332.45 302.35 334.09 302.35 335.73 302.34 C 336.07 300.05 336.41 297.77 336.74 295.49 Z" />
</g>
<g id="#53c0d0ff">
<path fill="#53c0d0" opacity="1.00" d=" M 271.10 171.67 C 276.25 184.10 275.45 197.79 275.36 210.94 C 275.39 215.51 273.87 220.26 275.75 224.65 C 275.17 226.29 274.23 227.77 273.07 229.07 C 271.14 227.58 270.49 225.33 270.72 222.98 C 271.02 205.88 270.47 188.77 271.10 171.67 Z" />
</g>
<g id="#e0eae5ff">
<path fill="#e0eae5" opacity="1.00" d=" M 98.63 175.46 C 99.04 175.25 99.86 174.81 100.27 174.59 C 101.14 175.48 102.00 176.40 102.84 177.34 C 101.23 177.62 99.63 177.95 98.02 178.23 C 98.17 177.54 98.47 176.16 98.63 175.46 Z" />
</g>
<g id="#282f73ff">
<path fill="#282f73" opacity="1.00" d=" M 81.84 179.29 C 83.24 178.45 84.66 177.62 86.09 176.85 C 86.35 177.26 86.87 178.09 87.12 178.50 C 87.65 179.35 88.15 180.22 88.63 181.10 C 88.81 181.56 89.16 182.46 89.34 182.91 C 86.52 184.64 83.65 186.30 80.80 187.97 C 78.05 189.38 75.36 190.90 72.68 192.43 C 67.92 195.03 63.39 198.04 58.41 200.21 C 57.37 198.39 56.33 196.57 55.29 194.76 C 57.42 194.26 59.54 193.76 61.66 193.26 C 65.03 194.26 68.76 194.72 71.42 191.88 C 69.08 191.25 66.72 190.66 64.37 190.07 C 65.24 189.29 66.11 188.53 66.99 187.77 C 71.81 184.71 76.89 182.11 81.84 179.29 Z" />
<path fill="#282f73" opacity="1.00" d=" M 105.12 193.32 C 107.02 192.22 109.14 190.18 111.47 191.46 C 114.49 192.77 113.92 196.91 111.75 198.75 C 109.06 200.49 106.06 201.64 103.07 202.77 C 103.24 203.37 103.56 204.58 103.72 205.18 C 102.93 205.62 101.35 206.50 100.56 206.95 C 101.28 207.38 102.73 208.25 103.45 208.69 C 103.37 211.91 103.31 215.14 102.94 218.35 C 102.31 218.29 101.04 218.16 100.41 218.10 C 97.14 217.77 93.97 216.83 90.87 215.79 C 91.31 211.31 95.05 208.17 95.95 203.85 C 96.74 201.41 96.66 198.47 98.49 196.51 C 100.58 195.20 103.00 194.57 105.12 193.32 Z" />
<path fill="#282f73" opacity="1.00" d=" M 47.59 202.48 C 55.87 204.04 64.39 204.04 72.65 202.30 C 78.24 224.35 81.65 246.87 85.76 269.23 C 86.16 271.96 86.56 274.70 86.73 277.46 L 85.78 277.53 C 83.81 277.62 81.85 277.68 79.88 277.72 C 79.66 277.51 79.20 277.10 78.97 276.89 C 77.92 274.20 77.25 271.39 76.47 268.61 C 71.94 252.31 67.03 236.12 62.60 219.80 C 60.32 239.01 59.68 258.40 57.56 277.63 C 55.40 277.61 53.25 277.59 51.09 277.57 C 49.32 261.34 48.48 245.02 47.77 228.71 C 47.69 226.71 47.59 224.71 47.54 222.72 C 47.55 215.97 47.41 209.22 47.59 202.48 Z" />
<path fill="#282f73" opacity="1.00" d=" M 109.38 212.32 C 110.77 211.79 112.14 211.24 113.51 210.66 C 114.58 212.17 115.78 213.60 116.67 215.25 C 117.35 217.30 114.74 217.97 113.63 219.16 C 112.60 218.95 111.56 218.77 110.52 218.61 C 110.10 216.52 109.73 214.42 109.38 212.32 Z" />
<path fill="#282f73" opacity="1.00" d=" M 340.69 254.90 C 343.69 253.98 346.62 252.86 349.61 251.89 C 349.60 252.57 349.60 253.92 349.60 254.60 C 348.53 255.61 347.44 256.59 346.36 257.58 C 344.09 257.52 341.64 257.32 340.69 254.90 Z" />
<path fill="#282f73" opacity="1.00" d=" M 368.46 253.48 C 368.96 256.27 368.79 259.16 367.76 261.81 C 367.18 262.46 366.59 263.09 365.97 263.69 C 358.59 267.47 350.36 268.99 342.52 271.50 C 341.44 272.07 340.27 272.69 340.18 274.07 C 338.44 281.10 337.86 288.35 336.74 295.49 C 336.41 297.77 336.07 300.05 335.73 302.34 C 334.09 302.35 332.45 302.35 330.81 302.37 C 330.47 299.93 330.37 297.46 330.25 295.01 C 329.87 286.70 329.99 278.39 330.15 270.09 C 327.75 273.20 327.60 277.24 327.00 280.97 C 326.30 285.63 325.67 290.30 325.10 294.97 C 324.84 296.83 324.53 298.68 324.04 300.50 C 322.49 300.52 320.95 300.55 319.41 300.58 C 319.33 298.97 319.26 297.36 319.22 295.76 C 319.11 286.91 319.11 278.04 319.85 269.22 C 320.02 265.07 323.98 262.99 327.01 260.94 C 333.37 260.72 339.44 263.24 345.78 263.17 C 347.76 262.05 349.71 260.87 351.68 259.73 C 351.51 258.91 351.34 258.09 351.17 257.28 C 351.50 257.01 352.15 256.45 352.47 256.18 C 356.64 251.88 363.18 254.49 368.46 253.48 Z" />
</g>
<g id="#1e2a52ff">
<path fill="#1e2a52" opacity="1.00" d=" M 145.68 182.69 C 148.11 181.34 150.37 179.16 153.37 179.58 L 152.88 180.68 C 152.22 180.65 150.89 180.61 150.23 180.58 C 149.92 183.94 151.27 187.01 154.09 188.89 C 154.33 189.10 154.81 189.52 155.04 189.73 C 154.48 189.97 153.34 190.45 152.78 190.69 C 148.83 192.51 145.05 194.71 140.99 196.30 C 135.62 198.39 130.32 200.68 124.89 202.60 C 123.24 202.91 119.88 204.97 119.90 202.03 C 120.17 200.59 121.42 199.69 122.33 198.66 C 129.90 193.04 137.41 187.25 145.68 182.69 Z" />
<path fill="#1e2a52" opacity="1.00" d=" M 354.99 198.83 C 357.40 195.19 362.70 195.52 365.42 198.60 C 367.64 201.98 366.65 206.36 368.03 210.04 C 370.32 212.79 374.49 214.84 374.06 219.04 C 374.07 221.91 370.91 222.49 368.80 223.22 C 368.48 222.22 368.15 221.23 367.82 220.25 C 367.12 220.07 365.73 219.71 365.04 219.53 C 362.94 218.35 360.58 217.12 359.50 214.84 C 358.94 212.90 359.58 210.87 359.77 208.92 C 358.53 210.45 357.13 211.84 355.53 212.99 C 355.62 210.98 355.90 208.99 356.13 207.00 C 355.39 207.11 353.90 207.35 353.16 207.47 C 352.47 206.35 351.78 205.22 351.11 204.10 C 348.73 204.76 346.37 205.46 344.02 206.19 C 343.37 204.54 342.63 202.54 344.00 201.03 C 346.71 197.91 351.35 199.09 354.99 198.83 Z" />
<path fill="#1e2a52" opacity="1.00" d=" M 114.95 203.64 C 115.94 203.07 116.93 202.50 117.93 201.93 C 118.69 202.93 119.45 203.94 120.26 204.92 C 118.20 205.53 115.97 206.01 114.95 203.64 Z" />
<path fill="#1e2a52" opacity="1.00" d=" M 97.07 249.97 C 102.62 254.36 110.45 255.06 116.79 251.99 C 117.66 254.45 118.64 256.87 119.65 259.28 C 120.67 262.31 121.67 265.35 122.59 268.42 C 123.96 272.89 125.39 277.34 126.79 281.80 C 127.78 286.17 129.13 290.51 129.28 295.02 C 129.78 306.45 129.95 317.90 129.75 329.34 C 128.02 329.69 126.28 330.02 124.55 330.37 C 124.27 329.20 123.94 328.05 123.62 326.90 C 122.69 323.59 121.94 320.23 121.34 316.85 C 119.33 308.40 120.76 299.30 117.29 291.21 C 114.67 285.21 112.38 279.07 109.60 273.15 C 109.33 272.61 109.06 272.08 108.79 271.55 C 106.45 290.62 104.55 309.75 102.35 328.83 C 101.40 328.91 99.50 329.07 98.56 329.15 L 98.14 329.22 L 97.44 329.38 C 97.34 327.03 97.23 324.68 97.29 322.32 C 97.58 312.23 97.67 302.09 96.71 292.03 C 96.21 279.29 94.41 266.56 95.94 253.81 C 96.24 252.51 96.64 251.23 97.07 249.97 Z" />
<path fill="#1e2a52" opacity="1.00" d=" M 45.83 284.75 C 46.86 282.08 49.40 280.48 51.89 279.36 C 53.84 279.48 55.63 280.36 57.50 280.87 C 57.42 282.05 57.35 283.23 57.27 284.42 C 53.48 284.89 49.64 284.92 45.83 284.75 Z" />
<path fill="#1e2a52" opacity="1.00" d=" M 82.98 281.60 C 84.20 280.77 85.44 279.94 86.88 279.51 L 87.94 279.94 C 90.26 280.80 92.65 281.59 94.58 283.21 C 90.56 285.79 85.23 284.05 80.68 284.35 C 80.72 283.38 80.80 281.44 80.84 280.47 C 81.38 280.75 82.45 281.32 82.98 281.60 Z" />
<path fill="#1e2a52" opacity="1.00" d=" M 311.82 306.45 C 315.56 304.23 319.55 302.42 323.79 301.38 C 323.79 303.44 324.89 305.21 325.93 306.90 C 327.78 305.89 329.64 304.89 331.41 303.76 C 332.79 303.71 334.18 303.65 335.57 303.59 C 335.67 305.27 335.76 306.95 335.83 308.64 C 331.91 308.79 327.98 308.83 324.06 308.90 L 324.74 306.88 C 320.45 307.06 315.96 307.98 311.82 306.45 Z" />
</g>
<g id="#e3cae2ff">
<path fill="#e3cae2" opacity="1.00" d=" M 312.98 181.05 C 311.42 180.40 307.64 181.58 308.19 178.92 C 309.96 179.35 311.72 179.81 313.48 180.29 C 314.01 182.48 314.52 184.84 316.55 186.15 C 317.89 185.29 319.24 184.44 320.60 183.60 C 320.25 184.33 319.91 185.05 319.57 185.78 C 320.13 186.37 320.70 186.97 321.28 187.57 C 322.65 186.60 324.02 185.63 325.40 184.68 C 326.98 185.25 328.56 185.79 330.15 186.32 C 330.24 192.61 330.21 198.90 330.20 205.19 C 330.18 206.42 330.17 207.66 330.18 208.90 C 329.19 208.38 328.21 207.87 327.23 207.37 C 323.34 208.72 319.27 207.64 315.30 207.47 C 315.06 208.07 314.59 209.26 314.36 209.86 C 313.93 202.45 314.56 194.98 313.37 187.62 C 313.24 185.43 313.11 183.24 312.98 181.05 Z" />
</g>
<g id="#d4edf9ff">
<path fill="#d4edf9" opacity="1.00" d=" M 94.83 182.30 C 98.41 181.98 102.12 181.95 105.31 180.05 C 105.53 180.20 105.97 180.49 106.20 180.63 C 103.35 183.13 100.62 185.77 98.00 188.51 C 100.31 190.20 102.69 191.81 105.12 193.32 C 103.00 194.57 100.58 195.20 98.49 196.51 C 96.66 198.47 96.74 201.41 95.95 203.85 C 95.05 208.17 91.31 211.31 90.87 215.79 C 93.97 216.83 97.14 217.77 100.41 218.10 C 99.86 218.27 98.75 218.60 98.20 218.77 C 94.77 220.50 93.83 224.47 92.86 227.85 C 91.64 232.78 90.56 238.07 91.81 243.10 C 93.49 244.69 95.82 245.30 97.83 246.35 C 97.83 246.73 97.84 247.49 97.84 247.87 C 97.65 248.39 97.26 249.44 97.07 249.97 C 96.64 251.23 96.24 252.51 95.94 253.81 C 95.12 257.16 94.61 260.59 94.48 264.04 C 91.76 264.76 89.04 265.49 86.31 266.20 C 86.17 266.96 85.90 268.47 85.76 269.23 C 81.65 246.87 78.24 224.35 72.65 202.30 C 72.45 199.01 72.60 195.72 72.68 192.43 C 75.36 190.90 78.05 189.38 80.80 187.97 C 85.55 186.33 91.00 185.86 94.83 182.30 Z" />
<path fill="#d4edf9" opacity="1.00" d=" M 62.60 219.80 C 67.03 236.12 71.94 252.31 76.47 268.61 C 71.96 269.89 67.33 271.51 63.77 274.67 C 61.89 276.94 64.27 279.73 64.91 282.07 C 62.41 281.85 59.90 281.63 57.50 280.87 C 55.63 280.36 53.84 279.48 51.89 279.36 C 49.40 280.48 46.86 282.08 45.83 284.75 L 46.27 285.70 C 57.54 289.06 69.42 287.95 81.01 288.06 C 86.08 287.99 90.94 289.62 95.93 290.23 C 96.23 300.04 96.52 309.86 97.07 319.66 C 80.30 319.80 62.94 321.82 46.74 316.29 C 38.96 313.88 31.65 308.66 28.23 301.10 C 24.15 289.79 26.81 277.61 30.72 266.66 C 34.40 256.84 38.97 247.36 44.31 238.33 C 46.10 235.40 47.22 232.10 47.77 228.71 C 48.48 245.02 49.32 261.34 51.09 277.57 C 53.25 277.59 55.40 277.61 57.56 277.63 C 59.68 258.40 60.32 239.01 62.60 219.80 Z" />
<path fill="#d4edf9" opacity="1.00" d=" M 117.29 291.21 C 120.76 299.30 119.33 308.40 121.34 316.85 C 115.70 317.37 110.07 318.02 104.41 318.29 C 105.36 309.53 106.33 300.78 107.33 292.03 C 110.44 292.21 115.48 294.93 117.29 291.21 Z" />
<path fill="#d4edf9" opacity="1.00" d=" M 130.36 294.82 C 141.19 296.15 152.08 296.89 162.97 297.38 C 167.62 297.88 172.29 298.26 176.98 298.10 C 182.66 297.90 188.29 298.88 193.96 299.04 C 217.21 299.20 240.46 299.11 263.71 298.94 C 268.32 302.45 273.53 305.02 278.36 308.20 C 287.77 315.19 297.87 321.21 307.35 328.12 C 302.14 328.90 296.91 329.50 291.68 330.07 C 278.47 329.81 265.16 328.79 252.32 325.48 C 242.70 323.21 233.31 320.14 223.95 316.99 C 203.60 310.83 182.01 311.00 161.00 312.66 C 150.88 313.40 140.76 314.41 130.72 315.88 C 130.78 308.86 130.58 301.83 130.36 294.82 Z" />
</g>
<g id="#7885a3ff">
<path fill="#7885a3" opacity="1.00" d=" M 153.37 179.58 C 156.26 181.70 157.45 185.09 157.62 188.56 C 156.76 188.95 155.90 189.34 155.04 189.73 C 154.81 189.52 154.33 189.10 154.09 188.89 C 156.86 186.29 154.37 183.13 152.88 180.68 L 153.37 179.58 Z" />
</g>
<g id="#e6f4f8ff">
<path fill="#e6f4f8" opacity="1.00" d=" M 282.39 183.35 C 283.81 185.65 284.79 188.43 287.21 189.90 C 295.89 195.49 304.46 201.26 313.03 207.02 C 313.03 214.14 313.50 221.27 312.97 228.39 C 312.50 228.22 311.55 227.89 311.08 227.72 C 305.72 221.80 301.94 214.67 296.87 208.51 C 291.76 214.55 287.35 221.15 283.04 227.78 C 284.66 227.96 286.27 228.13 287.89 228.35 C 287.93 229.96 287.98 231.56 288.03 233.17 C 282.31 233.61 276.87 231.77 271.81 229.32 C 272.12 229.26 272.76 229.13 273.07 229.07 C 274.23 227.77 275.17 226.29 275.75 224.65 C 280.62 211.48 283.12 197.41 282.39 183.35 Z" />
<path fill="#e6f4f8" opacity="1.00" d=" M 348.80 241.12 C 349.91 244.60 349.64 248.29 349.61 251.89 C 346.62 252.86 343.69 253.98 340.69 254.90 C 340.58 254.73 340.35 254.39 340.23 254.22 L 341.14 254.75 C 344.03 250.40 346.44 245.77 348.80 241.12 Z" />
<path fill="#e6f4f8" opacity="1.00" d=" M 103.27 328.06 C 110.03 327.35 116.82 326.89 123.62 326.90 C 123.94 328.05 124.27 329.20 124.55 330.37 C 125.23 334.26 123.26 338.95 126.10 342.18 C 126.44 341.43 127.11 339.94 127.45 339.19 C 129.31 342.30 133.08 341.60 136.13 341.35 C 134.48 339.73 132.51 338.47 130.92 336.79 C 129.90 334.89 129.58 332.70 129.72 330.56 C 130.07 329.39 130.41 328.22 130.72 327.05 C 144.15 326.66 157.61 328.26 170.62 331.59 C 173.71 332.34 177.59 333.69 178.64 336.99 C 177.48 340.30 174.36 342.56 171.61 344.59 C 155.73 354.98 136.18 359.12 117.37 357.43 C 115.40 357.23 113.50 356.65 111.66 355.95 C 115.20 355.72 118.90 356.25 122.34 355.29 C 123.16 352.27 122.81 349.11 122.88 346.03 C 122.72 341.06 123.13 335.99 121.84 331.13 C 122.18 330.69 122.86 329.82 123.20 329.39 C 117.11 329.79 110.98 330.02 104.96 331.14 C 104.53 330.55 103.65 329.36 103.21 328.77 L 103.27 328.06 Z" />
</g>
<g id="#e7d6e9ff">
<path fill="#e7d6e9" opacity="1.00" d=" M 313.37 187.62 C 314.56 194.98 313.93 202.45 314.36 209.86 C 314.59 209.26 315.06 208.07 315.30 207.47 C 319.27 207.64 323.34 208.72 327.23 207.37 C 328.21 207.87 329.19 208.38 330.18 208.90 C 330.17 221.02 330.01 233.16 329.57 245.27 C 325.49 238.43 320.77 231.33 312.97 228.39 C 313.50 221.27 313.03 214.14 313.03 207.02 C 313.01 200.55 312.58 194.06 313.37 187.62 Z" />
</g>
<g id="#dfcbe3ff">
<path fill="#dfcbe3" opacity="1.00" d=" M 140.99 196.30 C 145.05 194.71 148.83 192.51 152.78 190.69 C 156.21 195.69 159.95 200.47 163.10 205.66 C 161.40 205.90 159.71 206.14 158.02 206.38 C 157.68 213.80 158.07 221.25 157.21 228.64 C 152.49 225.25 146.28 226.61 141.61 229.33 C 140.79 221.64 141.36 213.91 140.91 206.21 C 138.97 206.05 137.04 205.90 135.11 205.75 C 137.38 202.80 139.53 199.74 140.99 196.30 Z" />
</g>
<g id="#d6eff9ff">
<path fill="#d6eff9" opacity="1.00" d=" M 124.89 202.60 C 130.32 200.68 135.62 198.39 140.99 196.30 C 139.53 199.74 137.38 202.80 135.11 205.75 C 137.04 205.90 138.97 206.05 140.91 206.21 C 141.36 213.91 140.79 221.64 141.61 229.33 C 137.46 231.78 133.76 235.07 131.22 239.20 C 129.47 241.78 128.25 244.82 125.80 246.86 C 122.98 248.51 119.68 249.16 116.88 250.86 C 116.68 250.53 116.28 249.85 116.09 249.52 C 116.48 248.75 116.88 247.99 117.27 247.23 C 117.97 246.68 118.67 246.13 119.37 245.59 C 119.55 245.06 119.91 244.00 120.09 243.47 C 120.88 241.26 121.89 239.14 122.92 237.03 C 120.57 236.88 118.22 236.74 115.87 236.69 C 116.91 233.91 117.59 231.01 117.92 228.05 C 122.16 229.05 126.53 230.66 130.94 229.83 C 133.54 229.37 135.28 226.62 134.34 224.09 C 132.40 217.67 128.77 211.94 126.00 205.87 C 125.59 204.79 125.24 203.69 124.89 202.60 Z" />
</g>
<g id="#e8f4f8ff">
<path fill="#e8f4f8" opacity="1.00" d=" M 330.20 205.19 C 330.76 204.04 331.36 202.91 331.96 201.78 C 332.40 202.64 332.85 203.50 333.30 204.36 C 333.84 204.02 334.38 203.67 334.93 203.33 C 335.53 204.57 336.13 205.80 336.74 207.04 C 340.77 207.33 343.03 210.91 345.95 213.20 C 348.12 215.05 350.70 216.88 350.99 219.98 C 349.22 220.64 346.87 220.98 346.16 223.03 C 344.22 227.87 344.31 233.20 344.12 238.34 C 342.79 242.88 340.50 247.05 338.36 251.25 C 338.06 250.82 337.48 249.96 337.18 249.53 C 332.61 249.20 328.11 248.34 323.59 247.63 C 325.55 247.37 327.51 247.04 329.47 246.73 C 329.49 246.36 329.54 245.64 329.57 245.27 C 330.01 233.16 330.17 221.02 330.18 208.90 C 330.17 207.66 330.18 206.42 330.20 205.19 Z" />
</g>
<g id="#bd7fb7ff">
<path fill="#bd7fb7" opacity="1.00" d=" M 122.20 207.04 C 123.47 206.65 124.73 206.26 126.00 205.87 C 128.77 211.94 132.40 217.67 134.34 224.09 C 135.28 226.62 133.54 229.37 130.94 229.83 C 126.53 230.66 122.16 229.05 117.92 228.05 C 117.59 231.01 116.91 233.91 115.87 236.69 C 114.55 236.67 113.24 236.67 111.92 236.67 C 110.90 238.17 109.87 239.66 108.82 241.13 C 108.22 241.86 107.61 242.58 107.00 243.30 C 104.68 242.80 102.37 242.31 100.09 241.66 C 99.74 238.59 99.20 235.55 98.63 232.52 C 99.40 227.97 100.38 223.11 98.20 218.77 C 98.75 218.60 99.86 218.27 100.41 218.10 C 101.04 218.16 102.31 218.29 102.94 218.35 C 105.09 220.50 108.46 221.41 110.52 218.61 C 111.56 218.77 112.60 218.95 113.63 219.16 C 118.48 220.03 122.94 222.49 127.91 222.80 C 125.99 217.55 123.65 212.45 122.20 207.04 Z" />
</g>
<g id="#f47326ff">
<path fill="#f47326" opacity="1.00" d=" M 213.42 207.08 C 216.61 207.01 219.79 206.80 222.98 206.71 C 223.25 209.36 223.31 212.02 223.34 214.68 C 221.83 216.80 220.33 218.92 218.83 221.04 C 218.14 219.69 217.46 218.34 216.78 216.99 C 214.76 219.51 212.61 221.92 210.27 224.14 C 210.15 223.56 209.92 222.39 209.80 221.81 C 210.08 220.53 210.38 219.24 210.69 217.97 C 211.61 214.34 212.52 210.71 213.42 207.08 Z" />
<path fill="#f47326" opacity="1.00" d=" M 229.27 206.81 C 232.51 206.75 235.75 206.84 238.99 206.89 C 239.83 211.95 241.28 216.88 242.43 221.88 C 242.83 223.64 243.18 225.40 243.57 227.17 C 241.78 224.79 240.26 222.23 239.03 219.52 C 238.50 221.00 237.97 222.48 237.44 223.97 C 235.54 221.22 233.68 218.44 231.90 215.62 C 231.15 218.45 230.93 221.85 228.15 223.52 C 229.38 218.03 229.15 212.39 229.27 206.81 Z" />
</g>
<g id="#e4cfe5ff">
<path fill="#e4cfe5" opacity="1.00" d=" M 283.04 227.78 C 287.35 221.15 291.76 214.55 296.87 208.51 C 301.94 214.67 305.72 221.80 311.08 227.72 C 309.07 228.08 307.09 228.56 305.08 228.90 C 303.11 229.17 301.11 229.22 299.13 229.29 C 296.26 231.32 292.90 232.35 289.42 232.60 C 289.17 231.22 288.93 229.85 288.63 228.48 L 287.89 228.35 C 286.27 228.13 284.66 227.96 283.04 227.78 Z" />
</g>
<g id="#ecf4f6ff">
<path fill="#ecf4f6" opacity="1.00" d=" M 355.53 212.99 C 357.13 211.84 358.53 210.45 359.77 208.92 C 359.58 210.87 358.94 212.90 359.50 214.84 C 360.58 217.12 362.94 218.35 365.04 219.53 C 362.49 219.14 359.87 218.96 357.34 219.58 C 356.63 217.42 355.93 215.24 355.53 212.99 Z" />
</g>
<g id="#f78b1fff">
<path fill="#f78b1f" opacity="1.00" d=" M 218.83 221.04 C 220.33 218.92 221.83 216.80 223.34 214.68 C 223.37 217.16 223.50 219.65 223.67 222.13 C 224.51 222.72 225.35 223.32 226.19 223.92 C 226.68 223.82 227.66 223.62 228.15 223.52 C 230.93 221.85 231.15 218.45 231.90 215.62 C 233.68 218.44 235.54 221.22 237.44 223.97 C 237.97 222.48 238.50 221.00 239.03 219.52 C 240.26 222.23 241.78 224.79 243.57 227.17 C 243.90 228.27 244.23 229.37 244.56 230.48 C 240.17 227.90 235.17 226.09 230.00 226.51 C 220.29 227.03 211.90 232.93 205.26 239.62 C 206.94 233.73 208.25 227.74 209.80 221.81 C 209.92 222.39 210.15 223.56 210.27 224.14 C 212.61 221.92 214.76 219.51 216.78 216.99 C 217.46 218.34 218.14 219.69 218.83 221.04 Z" />
</g>
<g id="#f7f8fcff">
<path fill="#f7f8fc" opacity="1.00" d=" M 197.71 219.66 C 201.58 217.21 206.35 217.78 210.69 217.97 C 210.38 219.24 210.08 220.53 209.80 221.81 C 208.25 227.74 206.94 233.73 205.26 239.62 C 211.90 232.93 220.29 227.03 230.00 226.51 C 235.17 226.09 240.17 227.90 244.56 230.48 C 248.95 233.89 251.40 239.07 252.65 244.38 C 253.88 248.22 255.10 253.20 259.35 254.70 C 264.01 255.25 266.69 250.45 270.08 248.11 C 275.37 243.96 282.67 246.02 287.93 249.14 C 292.06 254.28 291.82 261.73 296.62 266.47 C 299.30 268.84 303.12 268.90 306.49 269.41 C 309.80 271.71 313.73 275.23 312.14 279.72 C 284.61 279.42 257.08 279.91 229.56 279.46 C 218.80 279.28 208.02 279.13 197.27 279.50 C 196.55 279.63 195.10 279.89 194.38 280.03 C 193.79 280.87 193.19 281.71 192.59 282.54 C 192.66 280.20 192.69 277.86 192.71 275.52 C 191.57 275.23 190.43 274.95 189.29 274.67 C 189.11 272.31 189.82 269.60 188.76 267.48 C 178.17 267.06 167.55 267.44 156.95 267.32 C 156.80 270.00 156.73 272.68 156.72 275.37 C 156.48 273.27 156.31 271.16 156.10 269.06 C 144.94 268.45 133.72 269.56 122.59 268.42 C 121.67 265.35 120.67 262.31 119.65 259.28 C 119.13 256.36 118.48 253.40 116.88 250.86 C 119.68 249.16 122.98 248.51 125.80 246.86 C 128.25 244.82 129.47 241.78 131.22 239.20 C 133.76 235.07 137.46 231.78 141.61 229.33 C 146.28 226.61 152.49 225.25 157.21 228.64 C 160.23 230.39 163.26 232.11 166.30 233.84 C 161.55 237.28 158.40 243.06 159.23 249.02 C 159.71 258.45 169.88 265.62 178.94 263.14 C 188.03 261.19 194.04 250.42 190.30 241.75 C 188.63 236.57 183.94 233.20 178.97 231.54 C 186.69 230.21 191.34 223.45 197.71 219.66 Z" />
<path fill="#f7f8fc" opacity="1.00" d=" M 244.74 218.91 C 249.41 217.33 254.84 217.35 259.22 219.79 C 262.55 221.82 265.23 224.71 268.26 227.15 C 269.32 228.05 270.52 228.77 271.81 229.32 C 276.87 231.77 282.31 233.61 288.03 233.17 C 288.06 234.72 288.09 236.27 288.11 237.83 C 283.54 235.68 278.19 234.28 273.36 236.48 C 270.35 238.36 268.54 241.73 265.33 243.35 C 262.93 244.38 259.46 244.71 257.79 242.26 C 255.07 238.43 254.77 233.53 252.82 229.34 C 251.12 225.19 247.74 222.12 244.74 218.91 Z" />
<path fill="#f7f8fc" opacity="1.00" d=" M 305.08 228.90 C 307.09 228.56 309.07 228.08 311.08 227.72 C 311.55 227.89 312.50 228.22 312.97 228.39 C 320.77 231.33 325.49 238.43 329.57 245.27 C 329.54 245.64 329.49 246.36 329.47 246.73 C 327.51 247.04 325.55 247.37 323.59 247.63 C 322.30 247.55 321.01 247.48 319.73 247.41 C 321.81 252.10 324.41 256.52 327.01 260.94 C 323.98 262.99 320.02 265.07 319.85 269.22 C 317.96 269.16 316.07 269.08 314.18 269.05 C 313.74 267.15 313.77 265.05 312.73 263.35 C 310.72 260.91 307.63 259.79 305.32 257.70 C 304.52 248.13 305.79 238.49 305.08 228.90 Z" />
<path fill="#f7f8fc" opacity="1.00" d=" M 156.72 275.37 C 157.96 275.50 159.19 275.63 160.42 275.76 C 160.36 277.34 160.26 278.91 160.12 280.49 C 158.35 279.26 157.02 277.56 156.72 275.37 Z" />
</g>
<g id="#ca96c3ff">
<path fill="#ca96c3" opacity="1.00" d=" M 92.86 227.85 C 93.83 224.47 94.77 220.50 98.20 218.77 C 100.38 223.11 99.40 227.97 98.63 232.52 C 97.86 235.22 97.28 237.96 96.95 240.74 C 97.73 240.97 99.30 241.43 100.09 241.66 C 102.37 242.31 104.68 242.80 107.00 243.30 C 107.61 242.58 108.22 241.86 108.82 241.13 C 108.75 241.69 108.60 242.79 108.53 243.35 C 109.62 243.65 110.71 243.95 111.81 244.24 C 111.93 245.00 112.17 246.50 112.29 247.26 C 109.96 247.29 107.62 247.35 105.30 247.24 C 103.51 246.96 101.74 246.60 99.97 246.23 C 99.25 246.77 98.54 247.31 97.84 247.87 C 97.84 247.49 97.83 246.73 97.83 246.35 C 95.82 245.30 93.49 244.69 91.81 243.10 C 90.56 238.07 91.64 232.78 92.86 227.85 Z" />
</g>
<g id="#eaecf0ff">
<path fill="#eaecf0" opacity="1.00" d=" M 242.43 221.88 C 243.18 220.88 243.94 219.87 244.74 218.91 C 247.74 222.12 251.12 225.19 252.82 229.34 C 254.77 233.53 255.07 238.43 257.79 242.26 C 259.46 244.71 262.93 244.38 265.33 243.35 C 268.54 241.73 270.35 238.36 273.36 236.48 C 278.19 234.28 283.54 235.68 288.11 237.83 C 288.11 241.60 287.98 245.37 287.93 249.14 C 282.67 246.02 275.37 243.96 270.08 248.11 C 266.69 250.45 264.01 255.25 259.35 254.70 C 255.10 253.20 253.88 248.22 252.65 244.38 C 251.40 239.07 248.95 233.89 244.56 230.48 C 244.23 229.37 243.90 228.27 243.57 227.17 C 243.18 225.40 242.83 223.64 242.43 221.88 Z" />
</g>
<g id="#ecdbebff">
<path fill="#ecdbeb" opacity="1.00" d=" M 287.89 228.35 L 288.63 228.48 C 288.93 229.85 289.17 231.22 289.42 232.60 C 292.90 232.35 296.26 231.32 299.13 229.29 C 301.11 229.22 303.11 229.17 305.08 228.90 C 305.79 238.49 304.52 248.13 305.32 257.70 C 307.63 259.79 310.72 260.91 312.73 263.35 C 313.77 265.05 313.74 267.15 314.18 269.05 C 311.61 269.02 309.05 269.24 306.49 269.41 C 303.12 268.90 299.30 268.84 296.62 266.47 C 291.82 261.73 292.06 254.28 287.93 249.14 C 287.98 245.37 288.11 241.60 288.11 237.83 C 288.09 236.27 288.06 234.72 288.03 233.17 C 287.98 231.56 287.93 229.96 287.89 228.35 Z" />
</g>
<g id="#e9f3f7ff">
<path fill="#e9f3f7" opacity="1.00" d=" M 371.50 228.27 C 373.81 232.56 378.13 235.11 382.80 236.09 C 384.45 238.79 386.73 241.09 389.92 241.76 C 392.60 245.09 396.85 246.37 399.99 249.12 C 401.57 250.34 400.28 252.29 399.67 253.67 C 396.41 259.74 392.17 265.28 389.64 271.74 C 385.30 269.05 380.26 267.93 375.40 266.60 C 374.88 265.12 374.37 263.65 373.86 262.17 C 371.82 262.05 369.79 261.93 367.76 261.81 C 368.79 259.16 368.96 256.27 368.46 253.48 C 367.78 250.03 366.54 246.66 366.40 243.13 C 367.34 239.18 368.91 235.35 369.05 231.24 C 369.86 230.24 370.68 229.25 371.50 228.27 Z" />
</g>
<g id="#d2cde3ff">
<path fill="#d2cde3" opacity="1.00" d=" M 96.95 240.74 C 97.28 237.96 97.86 235.22 98.63 232.52 C 99.20 235.55 99.74 238.59 100.09 241.66 C 99.30 241.43 97.73 240.97 96.95 240.74 Z" />
</g>
<g id="#ffd061ff">
<path fill="#ffd061" opacity="1.00" d=" M 168.48 237.01 C 171.07 233.79 176.08 234.14 179.66 235.22 C 185.69 237.02 190.09 244.65 187.39 250.49 C 186.85 245.82 186.04 240.19 181.47 237.69 C 177.62 234.87 172.75 236.30 168.48 237.01 Z" />
</g>
<g id="#ffd36fff">
<path fill="#ffd36f" opacity="1.00" d=" M 172.75 242.77 C 175.23 242.85 177.79 242.66 179.27 240.35 C 179.27 241.26 179.28 243.08 179.29 243.98 C 178.43 244.09 176.71 244.30 175.85 244.41 C 177.74 246.56 181.84 248.44 180.06 251.86 C 179.75 252.26 179.14 253.06 178.83 253.45 C 178.84 251.92 178.87 250.39 178.93 248.87 C 177.15 247.59 175.29 246.45 173.33 245.49 C 173.19 244.81 172.89 243.45 172.75 242.77 Z" />
</g>
<g id="#ffd780ff">
<path fill="#ffd780" opacity="1.00" d=" M 182.10 245.19 C 183.72 244.66 184.28 245.22 183.79 246.85 C 182.16 247.37 181.60 246.82 182.10 245.19 Z" />
</g>
<g id="#b274afff">
<path fill="#b274af" opacity="1.00" d=" M 97.84 247.87 C 98.54 247.31 99.25 246.77 99.97 246.23 C 101.74 246.60 103.51 246.96 105.30 247.24 C 104.55 248.84 103.80 250.45 103.06 252.06 C 106.98 252.38 110.93 252.32 114.83 251.85 C 115.15 251.26 115.77 250.10 116.09 249.52 C 116.28 249.85 116.68 250.53 116.88 250.86 C 118.48 253.40 119.13 256.36 119.65 259.28 C 118.64 256.87 117.66 254.45 116.79 251.99 C 110.45 255.06 102.62 254.36 97.07 249.97 C 97.26 249.44 97.65 248.39 97.84 247.87 Z" />
</g>
<g id="#606d8bff">
<path fill="#606d8b" opacity="1.00" d=" M 94.48 264.04 C 94.61 260.59 95.12 257.16 95.94 253.81 C 94.41 266.56 96.21 279.29 96.71 292.03 C 97.67 302.09 97.58 312.23 97.29 322.32 C 97.24 321.66 97.13 320.33 97.07 319.66 C 96.52 309.86 96.23 300.04 95.93 290.23 C 95.84 288.42 95.70 286.61 95.56 284.80 C 90.40 285.12 85.23 285.15 80.07 284.90 C 80.09 283.29 80.10 281.68 80.10 280.07 L 80.84 280.47 C 80.80 281.44 80.72 283.38 80.68 284.35 C 85.23 284.05 90.56 285.79 94.58 283.21 C 94.71 282.91 94.98 282.29 95.12 281.99 C 95.14 276.00 94.24 270.03 94.48 264.04 Z" />
</g>
<g id="#ffd370ff">
<path fill="#ffd370" opacity="1.00" d=" M 174.31 254.13 C 175.58 252.64 177.62 254.76 176.23 256.04 C 175.11 257.62 173.01 255.32 174.31 254.13 Z" />
</g>
<g id="#98a8beff">
<path fill="#98a8be" opacity="1.00" d=" M 346.36 257.58 C 347.44 256.59 348.53 255.61 349.60 254.60 C 350.55 255.13 351.51 255.65 352.47 256.18 C 352.15 256.45 351.50 257.01 351.17 257.28 C 351.34 258.09 351.51 258.91 351.68 259.73 C 349.71 260.87 347.76 262.05 345.78 263.17 C 344.95 261.63 344.10 260.11 343.26 258.59 C 344.29 258.25 345.33 257.94 346.36 257.58 Z" />
</g>
<g id="#d7e5f0ff">
<path fill="#d7e5f0" opacity="1.00" d=" M 365.97 263.69 C 366.59 263.09 367.18 262.46 367.76 261.81 C 369.79 261.93 371.82 262.05 373.86 262.17 C 374.37 263.65 374.88 265.12 375.40 266.60 C 380.26 267.93 385.30 269.05 389.64 271.74 C 390.94 272.60 392.22 273.52 393.50 274.44 C 393.76 276.03 394.03 277.63 394.32 279.23 C 392.82 280.33 391.39 281.53 389.83 282.54 C 384.77 285.36 378.19 285.27 374.10 289.71 C 374.11 288.50 374.11 287.29 374.11 286.09 C 374.08 278.44 374.13 270.80 374.08 263.16 C 371.71 263.15 369.33 263.12 366.97 263.28 L 365.97 263.69 Z" />
</g>
<g id="#c8e2f4ff">
<path fill="#c8e2f4" opacity="1.00" d=" M 86.31 266.20 C 89.04 265.49 91.76 264.76 94.48 264.04 C 94.24 270.03 95.14 276.00 95.12 281.99 C 94.98 282.29 94.71 282.91 94.58 283.21 C 92.65 281.59 90.26 280.80 87.94 279.94 L 86.88 279.51 C 86.60 279.02 86.05 278.03 85.78 277.53 L 86.73 277.46 C 86.56 274.70 86.16 271.96 85.76 269.23 C 85.90 268.47 86.17 266.96 86.31 266.20 Z" />
<path fill="#c8e2f4" opacity="1.00" d=" M 63.77 274.67 C 67.33 271.51 71.96 269.89 76.47 268.61 C 77.25 271.39 77.92 274.20 78.97 276.89 C 79.20 277.10 79.66 277.51 79.88 277.72 C 79.94 278.31 80.05 279.49 80.10 280.07 C 80.10 281.68 80.09 283.29 80.07 284.90 C 85.23 285.15 90.40 285.12 95.56 284.80 C 95.70 286.61 95.84 288.42 95.93 290.23 C 90.94 289.62 86.08 287.99 81.01 288.06 C 69.42 287.95 57.54 289.06 46.27 285.70 L 45.83 284.75 C 49.64 284.92 53.48 284.89 57.27 284.42 C 57.35 283.23 57.42 282.05 57.50 280.87 C 59.90 281.63 62.41 281.85 64.91 282.07 C 64.27 279.73 61.89 276.94 63.77 274.67 Z" />
<path fill="#c8e2f4" opacity="1.00" d=" M 107.33 292.03 C 108.10 285.73 108.48 279.40 109.60 273.15 C 112.38 279.07 114.67 285.21 117.29 291.21 C 115.48 294.93 110.44 292.21 107.33 292.03 Z" />
</g>
<g id="#f9991dff">
<path fill="#f9991d" opacity="1.00" d=" M 366.97 263.28 C 369.33 263.12 371.71 263.15 374.08 263.16 C 374.13 270.80 374.08 278.44 374.11 286.09 C 371.71 285.21 369.33 284.30 366.96 283.34 L 366.96 282.25 C 367.04 275.92 367.01 269.60 366.97 263.28 Z" />
</g>
<g id="#f3af21ff">
<path fill="#f3af21" opacity="1.00" d=" M 156.95 267.32 C 167.55 267.44 178.17 267.06 188.76 267.48 C 189.82 269.60 189.11 272.31 189.29 274.67 C 190.43 274.95 191.57 275.23 192.71 275.52 C 192.69 277.86 192.66 280.20 192.59 282.54 C 192.26 282.96 191.60 283.80 191.27 284.22 C 191.26 286.65 191.28 289.07 191.32 291.50 C 180.62 291.76 169.92 291.48 159.22 291.66 C 159.03 287.90 159.40 284.17 160.12 280.49 C 160.26 278.91 160.36 277.34 160.42 275.76 C 159.19 275.63 157.96 275.50 156.72 275.37 C 156.73 272.68 156.80 270.00 156.95 267.32 Z" />
</g>
<g id="#cae4f3ff">
<path fill="#cae4f3" opacity="1.00" d=" M 122.59 268.42 C 133.72 269.56 144.94 268.45 156.10 269.06 C 156.31 271.16 156.48 273.27 156.72 275.37 C 157.02 277.56 158.35 279.26 160.12 280.49 C 159.40 284.17 159.03 287.90 159.22 291.66 C 169.92 291.48 180.62 291.76 191.32 291.50 C 191.28 289.07 191.26 286.65 191.27 284.22 C 191.60 283.80 192.26 282.96 192.59 282.54 C 193.19 281.71 193.79 280.87 194.38 280.03 C 195.10 279.89 196.55 279.63 197.27 279.50 C 197.29 282.19 197.31 284.88 197.32 287.57 C 198.09 287.58 199.63 287.61 200.40 287.62 C 200.44 290.27 200.49 292.93 200.57 295.59 C 211.45 295.45 222.34 295.69 233.22 295.45 C 233.24 292.91 233.26 290.37 233.29 287.83 C 231.96 287.34 230.64 286.85 229.32 286.37 C 229.40 284.06 229.47 281.76 229.56 279.46 C 257.08 279.91 284.61 279.42 312.14 279.72 C 313.73 275.23 309.80 271.71 306.49 269.41 C 309.05 269.24 311.61 269.02 314.18 269.05 C 316.07 269.08 317.96 269.16 319.85 269.22 C 319.11 278.04 319.11 286.91 319.22 295.76 C 300.73 296.97 282.26 299.00 263.71 298.94 C 240.46 299.11 217.21 299.20 193.96 299.04 C 188.29 298.88 182.66 297.90 176.98 298.10 C 172.29 298.26 167.62 297.88 162.97 297.38 C 152.08 296.89 141.19 296.15 130.36 294.82 C 130.19 290.26 128.97 285.80 126.79 281.80 C 125.39 277.34 123.96 272.89 122.59 268.42 Z" />
</g>
<g id="#d0e5f2ff">
<path fill="#d0e5f2" opacity="1.00" d=" M 327.00 280.97 C 327.60 277.24 327.75 273.20 330.15 270.09 C 329.99 278.39 329.87 286.70 330.25 295.01 C 328.53 294.99 326.81 294.98 325.10 294.97 C 325.67 290.30 326.30 285.63 327.00 280.97 Z" />
</g>
<g id="#838aa3ff">
<path fill="#838aa3" opacity="1.00" d=" M 108.79 271.55 C 109.06 272.08 109.33 272.61 109.60 273.15 C 108.48 279.40 108.10 285.73 107.33 292.03 C 106.33 300.78 105.36 309.53 104.41 318.29 C 104.06 321.55 103.62 324.79 103.27 328.06 L 103.21 328.77 C 102.40 333.19 103.65 337.53 105.05 341.69 C 102.34 341.73 99.63 341.75 96.92 341.76 C 97.01 337.55 97.50 333.37 98.14 329.22 L 98.56 329.15 C 98.35 333.19 98.00 337.23 97.41 341.23 C 99.73 341.23 102.04 341.22 104.36 341.22 C 102.22 337.44 101.54 333.09 102.35 328.83 C 104.55 309.75 106.45 290.62 108.79 271.55 Z" />
</g>
<g id="#ffca47ff">
<path fill="#ffca47" opacity="1.00" d=" M 340.18 274.07 C 340.27 272.69 341.44 272.07 342.52 271.50 C 343.84 272.83 345.01 274.37 346.62 275.38 C 350.51 276.09 354.59 275.30 358.42 276.46 C 361.74 277.57 364.31 280.07 366.96 282.25 L 366.96 283.34 C 366.97 287.43 367.00 291.52 367.00 295.61 C 356.92 295.42 346.83 295.63 336.74 295.49 C 337.86 288.35 338.44 281.10 340.18 274.07 M 342.17 278.40 C 341.03 279.15 342.10 281.43 343.36 280.41 C 344.51 279.65 343.42 277.37 342.17 278.40 M 359.18 287.17 C 357.87 287.88 357.86 288.56 359.17 289.21 C 360.47 288.50 360.47 287.82 359.18 287.17 Z" />
</g>
<g id="#fedd9aff">
<path fill="#fedd9a" opacity="1.00" d=" M 342.17 278.40 C 343.42 277.37 344.51 279.65 343.36 280.41 C 342.10 281.43 341.03 279.15 342.17 278.40 Z" />
</g>
<g id="#f0ab21ff">
<path fill="#f0ab21" opacity="1.00" d=" M 197.27 279.50 C 208.02 279.13 218.80 279.28 229.56 279.46 C 229.47 281.76 229.40 284.06 229.32 286.37 C 230.64 286.85 231.96 287.34 233.29 287.83 C 233.26 290.37 233.24 292.91 233.22 295.45 C 222.34 295.69 211.45 295.45 200.57 295.59 C 200.49 292.93 200.44 290.27 200.40 287.62 C 199.63 287.61 198.09 287.58 197.32 287.57 C 197.31 284.88 197.29 282.19 197.27 279.50 Z" />
</g>
<g id="#99a5bcff">
<path fill="#99a5bc" opacity="1.00" d=" M 126.79 281.80 C 128.97 285.80 130.19 290.26 130.36 294.82 C 130.58 301.83 130.78 308.86 130.72 315.88 C 130.58 319.60 130.84 323.33 130.72 327.05 C 130.41 328.22 130.07 329.39 129.72 330.56 L 129.75 329.34 C 129.95 317.90 129.78 306.45 129.28 295.02 C 129.13 290.51 127.78 286.17 126.79 281.80 Z" />
</g>
<g id="#fcb54aff">
<path fill="#fcb54a" opacity="1.00" d=" M 366.96 283.34 C 369.33 284.30 371.71 285.21 374.11 286.09 C 374.11 287.29 374.11 288.50 374.10 289.71 C 374.08 291.69 373.97 293.67 373.82 295.65 C 371.54 295.65 369.27 295.65 367.00 295.61 C 367.00 291.52 366.97 287.43 366.96 283.34 Z" />
</g>
<g id="#ffd77fff">
<path fill="#ffd77f" opacity="1.00" d=" M 359.18 287.17 C 360.47 287.82 360.47 288.50 359.17 289.21 C 357.86 288.56 357.87 287.88 359.18 287.17 Z" />
</g>
<g id="#def2faff">
<path fill="#def2fa" opacity="1.00" d=" M 325.10 294.97 C 326.81 294.98 328.53 294.99 330.25 295.01 C 330.37 297.46 330.47 299.93 330.81 302.37 C 330.96 302.71 331.26 303.41 331.41 303.76 C 329.64 304.89 327.78 305.89 325.93 306.90 C 324.89 305.21 323.79 303.44 323.79 301.38 C 323.85 301.16 323.98 300.72 324.04 300.50 C 324.53 298.68 324.84 296.83 325.10 294.97 Z" />
</g>
<g id="#371a3bff">
<path fill="#371a3b" opacity="1.00" d=" M 98.56 329.15 C 99.50 329.07 101.40 328.91 102.35 328.83 C 101.54 333.09 102.22 337.44 104.36 341.22 C 102.04 341.22 99.73 341.23 97.41 341.23 C 98.00 337.23 98.35 333.19 98.56 329.15 Z" />
<path fill="#371a3b" opacity="1.00" d=" M 124.55 330.37 C 126.28 330.02 128.02 329.69 129.75 329.34 L 129.72 330.56 C 129.58 332.70 129.90 334.89 130.92 336.79 C 132.51 338.47 134.48 339.73 136.13 341.35 C 133.08 341.60 129.31 342.30 127.45 339.19 C 127.11 339.94 126.44 341.43 126.10 342.18 C 123.26 338.95 125.23 334.26 124.55 330.37 Z" />
</g>
</svg>
